<?xml version="1.0" encoding="UTF-8" standalone="no"?>
<!-- Created with Inkscape (http://www.inkscape.org/) -->

<svg
	width="300"
	height="346.4003"
	viewBox="0 0 79.375002 91.651746"
	version="1.1"
	id="svg1"
	xml:space="preserve"
	inkscape:version="1.4 (e7c3feb1, 2024-10-09)"
	sodipodi:docname="base-hex.svg"
	xmlns:inkscape="http://www.inkscape.org/namespaces/inkscape"
	xmlns:sodipodi="http://sodipodi.sourceforge.net/DTD/sodipodi-0.dtd"
	xmlns="http://www.w3.org/2000/svg"
	xmlns:svg="http://www.w3.org/2000/svg"><sodipodi:namedview
     id="namedview1"
     pagecolor="#ffffff"
     bordercolor="#000000"
     borderopacity="0.25"
     inkscape:showpageshadow="2"
     inkscape:pageopacity="0.0"
     inkscape:pagecheckerboard="0"
     inkscape:deskcolor="#d1d1d1"
     inkscape:document-units="mm"
     inkscape:zoom="0.534686"
     inkscape:cx="-65.45898"
     inkscape:cy="-3.7405131"
     inkscape:window-width="1920"
     inkscape:window-height="1027"
     inkscape:window-x="0"
     inkscape:window-y="25"
     inkscape:window-maximized="1"
     inkscape:current-layer="svg1"
     showguides="false" />
	<defs
		id="defs1"/>
	<g
		id="hextile"
		inkscape:label="hextile"
		transform="matrix(2.0353806,0,0,2.0353806,-266.32513,-90.705118)"
		inkscape:tile-x0="41.572541"
		inkscape:tile-y0="7.548274"
		style="opacity:1"><title
       id="title1">hextile</title>
		<path
			id="path1797"
			style="display:inline;fill:#ffffff;stroke:none;stroke-width:0.842525;stroke-dasharray:none"
			d="m 150.77045,47.484462 16.33063,9.428115 0.42743,0.741743 v 18.85623 l -0.43357,0.7384 -16.32449,9.424771 -0.85598,-0.0039 -16.32172,-9.422542 -0.42798,-0.741187 V 57.659355 l 0.42353,-0.74453 16.32617,-9.426442 z"
			sodipodi:nodetypes="ccccccccccccc"
			inkscape:label="bg"/>
		<path
			id="path1798"
			style="display:inline;fill:#0000ff;stroke:none;stroke-width:0.842525;stroke-dasharray:none"
			inkscape:label="lake"
			d="m 150.77064,47.484437 -0.85628,0.0041 -16.32613,9.426298 -0.42323,0.744657 v 18.846393 l 0.42788,0.74104 16.32148,9.422674 0.85628,0.004 16.32407,-9.424744 0.43357,-0.73845 V 57.654359 l -0.42737,-0.741556 z m -4.38371,12.981637 c 0.50159,0 0.91375,0.05632 1.23713,0.16847 0.3234,0.11214 0.62406,0.23756 0.90124,0.3762 0.27721,0.13869 0.55429,0.26732 0.83147,0.38602 0.27719,0.11881 0.60682,0.17829 0.98961,0.17829 0.38281,0 0.71295,-0.05948 0.99012,-0.17829 0.27719,-0.11866 0.55427,-0.24729 0.83147,-0.38602 0.27718,-0.13869 0.58106,-0.26411 0.91106,-0.3762 0.32998,-0.11215 0.73893,-0.16847 1.22731,-0.16847 0.50158,0 0.91747,0.05632 1.24747,0.16847 0.32998,0.11214 0.63385,0.23756 0.91106,0.3762 0.27719,0.13869 0.55429,0.26732 0.83147,0.38602 0.2772,0.11881 0.60037,0.17829 0.96997,0.17829 v 1.544087 c -0.5016,0 -0.92071,-0.0591 -1.25729,-0.177767 -0.33659,-0.1188 -0.64315,-0.24744 -0.92036,-0.38602 -0.27716,-0.13869 -0.54781,-0.26409 -0.81183,-0.37621 -0.26398,-0.11214 -0.5877,-0.16846 -0.97049,-0.16846 -0.36958,0 -0.68955,0.05632 -0.96014,0.16846 -0.2706,0.11216 -0.54124,0.23756 -0.81184,0.37621 -0.27058,0.13869 -0.57393,0.26733 -0.91054,0.38602 -0.33658,0.118667 -0.76265,0.177767 -1.27744,0.177767 -0.51477,0 -0.94032,-0.0591 -1.27693,-0.177767 -0.33658,-0.1188 -0.63994,-0.24744 -0.91053,-0.38602 -0.2706,-0.13869 -0.53804,-0.26409 -0.80202,-0.37621 -0.264,-0.11214 -0.58718,-0.16846 -0.96997,-0.16846 -0.3696,0 -0.69007,0.05632 -0.96066,0.16846 -0.2706,0.11216 -0.54449,0.23756 -0.82166,0.37621 -0.27721,0.13869 -0.58378,0.26733 -0.92036,0.38602 -0.33659,0.118667 -0.75568,0.177767 -1.25728,0.177767 v -1.544087 c 0.38278,0 0.70919,-0.05948 0.97978,-0.17829 0.27059,-0.11866 0.54446,-0.24729 0.82166,-0.38602 0.27718,-0.13869 0.58426,-0.26411 0.92087,-0.3762 0.33659,-0.11215 0.74926,-0.16847 1.23765,-0.16847 z m 0,3.524327 c 0.50159,0 0.91375,0.0563 1.23713,0.16847 0.3234,0.11215 0.62406,0.23756 0.90124,0.3762 0.27721,0.1385 0.55429,0.26713 0.83147,0.38603 0.27719,0.11866 0.60682,0.17776 0.98961,0.17776 0.38281,0 0.71295,-0.0591 0.99012,-0.17776 0.27719,-0.1188 0.55427,-0.24744 0.83147,-0.38603 0.27718,-0.13868 0.58106,-0.26409 0.91106,-0.3762 0.32998,-0.11215 0.73893,-0.16847 1.22731,-0.16847 0.50158,0 0.91747,0.0563 1.24747,0.16847 0.32998,0.11215 0.63385,0.23756 0.91106,0.3762 0.27719,0.1385 0.55429,0.26713 0.83147,0.38603 0.2772,0.11866 0.60037,0.17776 0.96997,0.17776 v 1.54461 c -0.5016,0 -0.92071,-0.0591 -1.25729,-0.17777 -0.33659,-0.1188 -0.64315,-0.24796 -0.92036,-0.38654 -0.27716,-0.13869 -0.54781,-0.26409 -0.81183,-0.3762 -0.26398,-0.11215 -0.5877,-0.16795 -0.97049,-0.16795 -0.36958,0 -0.68955,0.0558 -0.96014,0.16795 -0.2706,0.11215 -0.54124,0.23755 -0.81184,0.3762 -0.27058,0.13849 -0.57393,0.26765 -0.91054,0.38654 -0.33658,0.11867 -0.76265,0.17777 -1.27744,0.17777 -0.51477,0 -0.94032,-0.0591 -1.27693,-0.17777 -0.33658,-0.1188 -0.63994,-0.24796 -0.91053,-0.38654 -0.2706,-0.13869 -0.53804,-0.26409 -0.80202,-0.3762 -0.264,-0.11215 -0.58718,-0.16795 -0.96997,-0.16795 -0.3696,0 -0.69007,0.0558 -0.96066,0.16795 -0.2706,0.11215 -0.54449,0.23755 -0.82166,0.3762 -0.27721,0.13849 -0.58378,0.26765 -0.92036,0.38654 -0.33659,0.11867 -0.75568,0.17777 -1.25728,0.17777 v -1.54461 c 0.38278,0 0.70919,-0.0591 0.97978,-0.17776 0.27059,-0.1188 0.54446,-0.24744 0.82166,-0.38603 0.27718,-0.13868 0.58426,-0.26409 0.92087,-0.3762 0.33659,-0.11215 0.74926,-0.16847 1.23765,-0.16847 z m 0,3.52434 c 0.50159,0 0.91375,0.0558 1.23713,0.16794 0.3234,0.11215 0.62406,0.23757 0.90124,0.37621 0.27721,0.13868 0.55429,0.267827 0.83147,0.386537 0.27719,0.1188 0.60682,0.17776 0.98961,0.17776 0.38281,0 0.71295,-0.059 0.99012,-0.17776 0.27719,-0.11867 0.55427,-0.247817 0.83147,-0.386537 0.27718,-0.1385 0.58106,-0.26391 0.91106,-0.37621 0.32998,-0.11214 0.73893,-0.16794 1.22731,-0.16794 0.50158,0 0.91747,0.0558 1.24747,0.16794 0.32998,0.11215 0.63385,0.23757 0.91106,0.37621 0.27719,0.13868 0.55429,0.267827 0.83147,0.386537 0.2772,0.1188 0.60037,0.17776 0.96997,0.17776 v 1.54461 c -0.5016,0 -0.92071,-0.0595 -1.25729,-0.17828 -0.33659,-0.11867 -0.64315,-0.2473 -0.92036,-0.38602 -0.27716,-0.13849 -0.54781,-0.26389 -0.81183,-0.37621 -0.26398,-0.11214 -0.5877,-0.16846 -0.97049,-0.16846 -0.38278,0 -0.70919,0.0563 -0.97978,0.16846 -0.27059,0.11216 -0.54124,0.23756 -0.81184,0.37621 -0.27059,0.13869 -0.57073,0.26733 -0.90072,0.38602 -0.32999,0.1188 -0.75283,0.17828 -1.26762,0.17828 -0.51477,0 -0.94032,-0.0595 -1.27693,-0.17828 -0.33658,-0.11867 -0.63994,-0.2473 -0.91053,-0.38602 -0.2706,-0.13849 -0.53804,-0.26389 -0.80202,-0.37621 -0.264,-0.11214 -0.58718,-0.16846 -0.96997,-0.16846 -0.3696,0 -0.69007,0.0563 -0.96066,0.16846 -0.2706,0.11216 -0.54449,0.23756 -0.82166,0.37621 -0.27721,0.13869 -0.58378,0.26733 -0.92036,0.38602 -0.33659,0.1188 -0.75568,0.17828 -1.25728,0.17828 v -1.54461 c 0.38278,0 0.70919,-0.059 0.97978,-0.17776 0.27059,-0.11867 0.54446,-0.247817 0.82166,-0.386537 0.27718,-0.1385 0.58426,-0.26391 0.92087,-0.37621 0.33659,-0.11214 0.74926,-0.16794 1.23765,-0.16794 z m 0,3.524327 c 0.50159,0 0.91375,0.0563 1.23713,0.16846 0.3234,0.11216 0.62406,0.23756 0.90124,0.37621 0.27721,0.13869 0.55429,0.26733 0.83147,0.38602 0.27719,0.11867 0.60682,0.17777 0.98961,0.17777 0.38281,0 0.71295,-0.0591 0.99012,-0.17777 0.27719,-0.1188 0.55427,-0.24744 0.83147,-0.38602 0.27718,-0.13869 0.58106,-0.26409 0.91106,-0.37621 0.32998,-0.11214 0.73893,-0.16846 1.22731,-0.16846 0.50158,0 0.91747,0.0563 1.24747,0.16846 0.32998,0.11216 0.63385,0.23756 0.91106,0.37621 0.27719,0.13869 0.55429,0.26733 0.83147,0.38602 0.2772,0.11867 0.60037,0.17777 0.96997,0.17777 v 1.544607 c -0.5016,0 -0.92071,-0.0595 -1.25729,-0.178287 -0.33659,-0.11866 -0.64315,-0.24731 -0.92036,-0.38602 -0.27716,-0.13869 -0.54781,-0.2641 -0.81183,-0.3762 -0.26398,-0.11216 -0.5877,-0.16847 -0.97049,-0.16847 -0.36958,0 -0.68955,0.0563 -0.96014,0.16847 -0.2706,0.11214 -0.54124,0.23755 -0.81184,0.3762 -0.27058,0.13869 -0.57393,0.26733 -0.91054,0.38602 -0.33658,0.118797 -0.76265,0.178287 -1.27744,0.178287 -0.51477,0 -0.94032,-0.0595 -1.27693,-0.178287 -0.33658,-0.11866 -0.63994,-0.24731 -0.91053,-0.38602 -0.2706,-0.13869 -0.53804,-0.2641 -0.80202,-0.3762 -0.264,-0.11216 -0.58718,-0.16847 -0.96997,-0.16847 -0.3696,0 -0.69007,0.0563 -0.96066,0.16847 -0.2706,0.11214 -0.54449,0.23755 -0.82166,0.3762 -0.27721,0.13869 -0.58378,0.26733 -0.92036,0.38602 -0.33659,0.118797 -0.75568,0.178287 -1.25728,0.178287 v -1.544607 c 0.38278,0 0.70919,-0.0591 0.97978,-0.17777 0.27059,-0.1188 0.54446,-0.24744 0.82166,-0.38602 0.27718,-0.13869 0.58426,-0.26409 0.92087,-0.37621 0.33659,-0.11214 0.74926,-0.16846 1.23765,-0.16846 z"/>
		<path
			id="path1799"
			style="fill:#000000;stroke:none;stroke-width:0.781267;stroke-dasharray:none"
			d="m 150.34586,44.564205 -19.49803,11.25616 v 22.517489 l 19.49803,11.255644 19.49959,-11.255644 V 55.820365 Z m 0.39378,1.143599 17.9157,10.343038 -1.97869,1.142566 -15.93701,-9.200472 z m -0.79375,0.0036 v 2.285132 l -15.93391,9.198404 -1.97921,-1.142049 z m 0.79375,3.197737 15.14326,8.742619 0.39636,0.687813 v 17.485238 l -0.40205,0.684713 -15.13757,8.739518 -0.79375,-0.0036 -15.135,-8.737451 -0.39687,-0.687297 V 58.344242 l 0.39274,-0.690397 15.13913,-8.741068 z m 18.31102,7.83053 V 77.42523 l -1.97817,-1.142049 V 57.881738 Z m -37.41012,0.0036 1.97869,1.14205 v 18.394226 l -1.97869,1.142049 z m 2.3766,20.223055 15.92875,9.195305 v 2.285132 L 132.04,78.107377 Z m 32.65434,0.0016 1.97869,1.142566 -17.91053,10.339937 v -2.285132 z"
			sodipodi:nodetypes="cccccccccccccccccccccccccccccccccccccccccccccccccc"
			inkscape:label="outline"/>
		<path
			d="m 166.65236,76.967395 -15.93184,9.197371 v 2.285132 l 17.91053,-10.339937 z"
			style="fill:#0000ff;stroke-width:0.781267"
			id="path1800"
			inkscape:label="river-south-east"/>
		<path
			d="m 149.92677,45.710388 -17.91312,10.341488 1.9792,1.142049 15.93392,-9.198405 z"
			style="fill:#0000ff;stroke-width:0.781267"
			id="path1801"
			inkscape:label="river-north-west"/>
		<path
			d="m 133.99389,76.967395 -1.97869,1.142566 17.91002,10.340971 V 86.1658 Z"
			style="fill:#0000ff;stroke-width:0.781267"
			id="path1802"
			inkscape:label="river-south-west"/>
		<path
			d="m 150.71897,45.710388 5.1e-4,2.285132 15.9334,9.199955 1.97869,-1.142566 z"
			style="fill:#0000ff;stroke-width:0.781267"
			id="path1803"
			inkscape:label="river-north-east"/>
		<path
			d="m 131.61729,56.739689 -5.2e-4,20.680908 1.97869,-1.142049 5.2e-4,-18.396293 z"
			style="fill:#0000ff;stroke-width:0.781267"
			id="path1804"
			inkscape:label="river-west"/>
		<path
			d="m 169.02793,56.738139 -1.97869,1.143083 -5.2e-4,18.39836 1.97869,1.142566 z"
			style="fill:#0000ff;stroke-width:0.781267"
			id="path1805"
			inkscape:label="river-east"/>
		<path
			d="m 135.75186,63.850359 1.86503,-2.486715 1.39878,1.865035 h 2.3313 l -1.5542,-2.067081 -0.7771,1.02577 -0.38855,-0.512885 1.16565,-1.554196 2.79755,3.730072 z m 4.04868,-0.62168 z m -2.80533,0 h 1.24336 l -0.62168,-0.831494 z m 0,0 h 1.24336 z"
			id="path1806"
			style="display:inline;fill:#000000;stroke-width:0.00777097"
			inkscape:label="mountain"/>
		<path
			d="m 136.15185,64.763643 q -0.16147,0 -0.27069,-0.109226 -0.10923,-0.109225 -0.10923,-0.270689 0,-0.161463 0.10923,-0.270689 0.10922,-0.109225 0.27069,-0.109225 h 0.37992 v -2.279488 h -0.37992 q -0.16147,0 -0.27069,-0.109225 -0.10923,-0.109226 -0.10923,-0.27069 0,-0.161463 0.10923,-0.270689 0.10922,-0.109225 0.27069,-0.109225 h 0.37992 v -2.279488 h -0.37992 q -0.16147,0 -0.27069,-0.109225 -0.10923,-0.109226 -0.10923,-0.27069 0,-0.161463 0.10923,-0.270688 0.10922,-0.109226 0.27069,-0.109226 h 6.07863 q 0.16146,0 0.27069,0.109226 0.10922,0.109225 0.10922,0.270688 0,0.161464 -0.10922,0.27069 -0.10923,0.109225 -0.27069,0.109225 h -0.37991 v 2.279488 h 0.37991 q 0.16146,0 0.27069,0.109225 0.10922,0.109226 0.10922,0.270689 0,0.161464 -0.10922,0.27069 -0.10923,0.109225 -0.27069,0.109225 h -0.37991 v 2.279488 h 0.37991 q 0.16146,0 0.27069,0.109225 0.10922,0.109226 0.10922,0.270689 0,0.161464 -0.10922,0.270689 -0.10923,0.109226 -0.27069,0.109226 z m 1.13974,-0.759829 h 3.79915 v -2.279488 q -0.16147,0 -0.27069,-0.109225 -0.10923,-0.109226 -0.10923,-0.27069 0,-0.161463 0.10923,-0.270689 0.10922,-0.109225 0.27069,-0.109225 v -2.279488 h -3.79915 v 2.279488 q 0.16147,0 0.2707,0.109225 0.10922,0.109226 0.10922,0.270689 0,0.161464 -0.10922,0.27069 -0.10923,0.109225 -0.2707,0.109225 z m 1.89957,-1.139744 q 0.4749,0 0.80733,-0.327677 0.33242,-0.327676 0.33242,-0.793071 0,-0.370417 -0.2137,-0.636358 -0.2137,-0.265939 -0.92605,-1.092254 -0.71233,0.816817 -0.92604,1.087506 -0.21369,0.270689 -0.21369,0.641106 0,0.465395 0.33242,0.793071 0.33242,0.327677 0.80731,0.327677 z m -1.89957,1.139744 v -5.318805 z"
			id="path1807"
			style="display:inline;fill:#000000;stroke-width:0.00949786"
			inkscape:label="tundra"/>
		<path
			d="m 137.90328,64.841361 v -1.139744 h -1.99455 l 1.097,-1.709615 h -0.52713 l 1.99455,-2.849359 0.85481,1.225224 0.85481,-1.225224 1.99455,2.849359 h -0.52714 l 1.09701,1.709615 h -1.99455 v 1.139744 h -1.13974 v -1.139744 h -0.56988 v 1.139744 z m 2.771,-1.709616 h 1.0329 l -1.10414,-1.709615 h 0.47727 l -0.89754,-1.282212 -0.50576,0.719464 0.7907,1.13262 h -0.52714 z m -3.72554,0 h 3.04881 l -1.10412,-1.709615 h 0.47727 l -0.89755,-1.282212 -0.89754,1.282212 h 0.47726 z m 0,0 h 1.10413 -0.47726 1.79509 -0.47727 1.10412 z m 3.72554,0 h -0.73371 0.52714 -0.7907 1.4033 -0.47727 1.10414 z m -1.06138,0.569872 h 1.13974 z m 1.43179,0 z"
			id="path1808"
			style="display:inline;fill:#000000;stroke-width:0.00712339"
			inkscape:label="forest"/>
		<path
			d="m 136.60802,61.489445 q -0.13211,0 -0.22147,-0.08937 -0.0894,-0.08937 -0.0894,-0.221473 0,-0.132107 0.0894,-0.221473 0.0894,-0.08937 0.22147,-0.08937 h 0.93251 q 0.25645,0 0.43906,0.182618 0.18262,0.182618 0.18262,0.439061 z m 0.62168,2.797552 q 0.38854,0 0.66053,-0.271984 0.27198,-0.271984 0.27198,-0.660533 0,-0.388549 -0.27198,-0.660534 -0.27199,-0.271984 -0.66053,-0.271984 -0.38856,0 -0.66054,0.271984 -0.27198,0.271985 -0.27198,0.660534 0,0.388549 0.27198,0.660533 0.27198,0.271984 0.66054,0.271984 z m 4.19632,0 q 0.19428,0 0.33027,-0.135992 0.136,-0.135992 0.136,-0.330266 0,-0.194275 -0.136,-0.330267 -0.13599,-0.135992 -0.33027,-0.135992 -0.19427,0 -0.33026,0.135992 -0.136,0.135992 -0.136,0.330267 0,0.194274 0.136,0.330266 0.13599,0.135992 0.33026,0.135992 z m -4.19632,-0.466258 q -0.19428,0 -0.33027,-0.135993 -0.136,-0.135992 -0.136,-0.330266 0,-0.194275 0.136,-0.330267 0.13599,-0.135992 0.33027,-0.135992 0.19427,0 0.33026,0.135992 0.13599,0.135992 0.13599,0.330267 0,0.194274 -0.13599,0.330266 -0.13599,0.135993 -0.33026,0.135993 z m 4.35174,-1.080167 q 0.20205,0.03885 0.33416,0.104909 0.1321,0.06605 0.28752,0.213702 v -1.880578 q 0,-0.256442 -0.18262,-0.43906 -0.18261,-0.182619 -0.43906,-0.182619 h -1.95828 l -0.32639,-0.341923 0.43518,-0.435174 -0.21759,-0.217588 -1.10347,1.10348 0.23313,0.217586 0.43517,-0.435174 0.32638,0.326381 v 0.714931 q 0,0.256442 -0.18262,0.439059 -0.18262,0.182619 -0.43906,0.182619 h -0.62945 q 0.17873,0.132107 0.28753,0.271984 0.10879,0.139877 0.21759,0.349695 h 0.12433 q 0.51288,0 0.87812,-0.365237 0.36524,-0.365236 0.36524,-0.87812 v -0.31084 h 1.55419 z m -1.23558,0.924747 q 0.0466,-0.209817 0.11268,-0.338038 0.0661,-0.128221 0.20593,-0.283641 h -1.91167 q 0.0311,0.178733 0.0311,0.31084 0,0.132106 -0.0311,0.310839 z m 1.08016,1.243357 q -0.45071,0 -0.76933,-0.318611 -0.3186,-0.31861 -0.3186,-0.769326 0,-0.450718 0.3186,-0.769327 0.31862,-0.31861 0.76933,-0.31861 0.45072,0 0.76933,0.31861 0.31861,0.318609 0.31861,0.769327 0,0.450716 -0.31861,0.769326 -0.31861,0.318611 -0.76933,0.318611 z m -4.19632,0 q -0.64499,0 -1.0996,-0.454603 -0.4546,-0.454602 -0.4546,-1.099593 0,-0.644992 0.4546,-1.099595 0.45461,-0.454602 1.0996,-0.454602 0.64499,0 1.09959,0.454602 0.4546,0.454603 0.4546,1.099595 0,0.644991 -0.4546,1.099593 -0.4546,0.454603 -1.09959,0.454603 z m 3.05399,-2.797553 z"
			id="path1809"
			inkscape:label="farm"
			style="display:inline;fill:#000000;stroke-width:0.007771"/>
		<path
			d="m 135.90437,64.907988 v -4.111625 l 2.39346,-1.017222 v 0.683847 l 1.70962,-0.683847 v 1.02577 h 2.73538 v 4.103077 z m 0.68384,-0.683846 h 5.47077 v -2.735385 h -2.73538 v -0.700943 l -1.70962,0.683847 v -0.66675 l -1.02577,0.453048 z m 2.39346,-0.683846 h 0.68385 v -1.367693 h -0.68385 z m -1.36769,0 h 0.68385 v -1.367693 h -0.68385 z m 2.73538,0 h 0.68385 v -1.367693 h -0.68385 z m 2.39347,-2.735385 h -1.70962 l 0.34193,-2.735385 h 1.02576 z m -6.15462,3.419231 h 5.47077 z"
			id="path1810"
			inkscape:label="factory"
			style="display:inline;fill:#000000;stroke-width:0.00854807"/>
		<path
			d="m 135.79699,64.872078 v -3.419231 l 2.05154,-2.051539 2.05154,2.051539 v 3.419231 z m 0.68385,-0.683846 h 1.02577 v -1.02577 h 0.68384 v 1.02577 h 1.02577 v -2.453299 l -1.36769,-1.367692 -1.36769,1.367692 z m 1.02577,-1.709616 V 61.79477 h 0.68384 v 0.683846 z m 3.07731,2.393462 V 61.17076 l -1.76946,-1.769452 h 0.96594 l 1.48737,1.487366 v 3.983404 z m 1.36769,0 v -4.26549 l -1.20528,-1.20528 h 0.96593 l 0.9232,0.923192 v 4.547578 z m -5.47077,-0.683846 h 2.73538 z"
			id="path1811"
			style="fill:#000000;stroke-width:0.00854807"
			inkscape:label="village"/>
		<path
			d="m 161.61983,75.963656 v -2.609451 c 0,-0.28112 0.0728,-0.525032 0.21828,-0.731738 0.14552,-0.206706 0.35057,-0.362975 0.61515,-0.468809 0.1786,-0.06945 0.36877,-0.113274 0.57051,-0.131464 0.20175,-0.01819 0.39522,-0.02729 0.58043,-0.02729 0.18521,0 0.37869,0.0091 0.58043,0.02729 0.20174,0.01819 0.39192,0.06202 0.57051,0.131464 0.26458,0.105834 0.46964,0.262103 0.61515,0.468809 0.14552,0.206706 0.21829,0.450618 0.21829,0.731738 v 2.609451 z m 0.39687,-0.396875 h 3.175 v -2.212576 c 0,-0.198438 -0.0488,-0.367937 -0.14635,-0.508496 -0.0976,-0.14056 -0.24391,-0.248874 -0.43904,-0.324942 -0.14552,-0.05622 -0.30675,-0.09178 -0.48369,-0.10666 -0.17694,-0.01488 -0.34975,-0.02232 -0.51842,-0.02232 -0.16867,0 -0.34147,0.0074 -0.51841,0.02232 -0.17694,0.01489 -0.33818,0.05044 -0.48369,0.10666 -0.19513,0.07607 -0.34148,0.184382 -0.43905,0.324942 -0.0976,0.140559 -0.14635,0.310058 -0.14635,0.508496 z m 0,0 h 3.175 z"
			id="path1812"
			sodipodi:nodetypes="csscssscssccccsscssscsscccc"
			style="fill:#000000;stroke-width:0.00496093"
			inkscape:label="tunnel"/>
		<path
			d="m 136.44092,75.48977 1.38906,-0.396875 0.39688,-1.389063 -1.38907,0.396875 z m 0.89296,-0.595313 q -0.12402,0 -0.21084,-0.08682 -0.0868,-0.08682 -0.0868,-0.21084 0,-0.124024 0.0868,-0.21084 0.0868,-0.08682 0.21084,-0.08682 0.12403,0 0.21084,0.08682 0.0868,0.08682 0.0868,0.21084 0,0.124024 -0.0868,0.21084 -0.0868,0.08682 -0.21084,0.08682 z m 0,1.686719 q -0.41175,0 -0.7739,-0.15627 -0.36215,-0.156269 -0.63004,-0.42416 -0.26789,-0.26789 -0.42416,-0.630039 -0.15627,-0.362149 -0.15627,-0.773906 0,-0.411758 0.15627,-0.773906 0.15627,-0.362149 0.42416,-0.63004 0.26789,-0.26789 0.63004,-0.42416 0.36215,-0.156269 0.7739,-0.156269 0.41176,0 0.77392,0.156269 0.36214,0.15627 0.63004,0.42416 0.26788,0.267891 0.42415,0.63004 0.15627,0.362148 0.15627,0.773906 0,0.411757 -0.15627,0.773906 -0.15627,0.362149 -0.42415,0.630039 -0.2679,0.267891 -0.63004,0.42416 -0.36216,0.15627 -0.77392,0.15627 z m 0,-0.396875 q 0.65981,0 1.12366,-0.463848 0.46385,-0.463848 0.46385,-1.123652 0,-0.659804 -0.46385,-1.123653 -0.46385,-0.463847 -1.12366,-0.463847 -0.6598,0 -1.12364,0.463847 -0.46386,0.463849 -0.46386,1.123653 0,0.659804 0.46386,1.123652 0.46384,0.463848 1.12364,0.463848 z m 0,-1.5875 z"
			id="path1813"
			style="fill:#000000;stroke-width:0.00496094"
			inkscape:label="encounter"/>
		<path
			d="M 144.37714,61.520878 V 60.96168 c 0,-0.109842 0.0283,-0.213027 0.0849,-0.309554 0.0565,-0.09653 0.13481,-0.169757 0.23466,-0.219686 0.16976,-0.08654 0.36114,-0.159771 0.57417,-0.219685 0.21303,-0.05991 0.44769,-0.08987 0.704,-0.08987 0.25629,0 0.49095,0.02996 0.70399,0.08987 0.21303,0.05991 0.40442,0.133142 0.57417,0.219685 0.0999,0.04994 0.17808,0.123158 0.23466,0.219686 0.0565,0.09653 0.0849,0.199712 0.0849,0.309554 v 0.559198 z m 0.39944,-0.399426 h 2.39656 V 60.96168 c 0,-0.03662 -0.009,-0.0699 -0.0276,-0.09986 -0.0183,-0.02996 -0.0425,-0.05326 -0.0724,-0.0699 -0.11983,-0.05991 -0.27377,-0.119829 -0.46183,-0.179742 -0.18807,-0.05991 -0.40026,-0.08987 -0.63659,-0.08987 -0.23633,0 -0.44853,0.02996 -0.63659,0.08987 -0.18806,0.05991 -0.34202,0.119829 -0.46183,0.179742 -0.03,0.01665 -0.0541,0.03996 -0.0724,0.0699 -0.0183,0.02996 -0.0276,0.06324 -0.0276,0.09986 z m 1.19828,-1.19828 c -0.21968,0 -0.40775,-0.07822 -0.56419,-0.234664 -0.15645,-0.156442 -0.23465,-0.344504 -0.23465,-0.56419 h -0.0499 c -0.03,0 -0.0541,-0.0092 -0.0724,-0.02747 -0.0183,-0.0183 -0.0275,-0.04244 -0.0275,-0.0724 0,-0.02996 0.009,-0.05409 0.0275,-0.0724 0.0183,-0.0183 0.0425,-0.02747 0.0724,-0.02747 h 0.0499 c 0,-0.149786 0.0366,-0.284593 0.10983,-0.404421 0.0732,-0.119826 0.16975,-0.214692 0.28958,-0.28459 v 0.189727 c 0,0.02996 0.009,0.05409 0.0275,0.07239 0.0183,0.0183 0.0425,0.02747 0.0724,0.02747 0.03,0 0.0541,-0.0092 0.0724,-0.02747 0.0184,-0.0183 0.0276,-0.04244 0.0276,-0.07239 v -0.269615 c 0.03,-0.01 0.0616,-0.01748 0.0949,-0.02248 0.0333,-0.005 0.0683,-0.0074 0.10486,-0.0074 0.0366,0 0.0716,0.0025 0.10484,0.0074 0.0333,0.005 0.065,0.01249 0.0949,0.02248 v 0.269612 c 0,0.02996 0.009,0.05409 0.0275,0.07239 0.0184,0.0183 0.0425,0.02747 0.0724,0.02747 0.03,0 0.0541,-0.0092 0.0724,-0.02747 0.0183,-0.0183 0.0276,-0.04244 0.0276,-0.07239 v -0.189729 c 0.11983,0.0699 0.21636,0.164764 0.28958,0.284592 0.0732,0.119828 0.10985,0.254633 0.10985,0.40442 h 0.0499 c 0.03,0 0.0542,0.0092 0.0724,0.02747 0.0183,0.0183 0.0276,0.04244 0.0276,0.0724 0,0.02996 -0.009,0.05409 -0.0276,0.07239 -0.0183,0.0183 -0.0425,0.02747 -0.0724,0.02747 h -0.0499 c 0,0.219686 -0.0782,0.40775 -0.23466,0.564193 -0.15645,0.156441 -0.34451,0.234662 -0.56419,0.234662 z m 0,-0.399428 c 0.10984,0 0.20387,-0.03911 0.28209,-0.117331 0.0783,-0.07822 0.11732,-0.172252 0.11732,-0.282095 h -0.79884 c 0,0.109843 0.0391,0.203872 0.11733,0.282095 0.0782,0.07822 0.17225,0.117331 0.2821,0.117331 z"
			id="path1814"
			sodipodi:nodetypes="csscssscssccccsscssscsscsscssssscscssssscssscssssscscssssscssssccss"
			style="fill:#000000;stroke-width:0.00499284"
			inkscape:label="worker-1"/>
		<path
			d="M 148.10512,61.520878 V 60.96168 c 0,-0.109842 0.0283,-0.213027 0.0848,-0.309554 0.0565,-0.09653 0.13482,-0.169757 0.23467,-0.219686 0.16976,-0.08654 0.36115,-0.159771 0.57418,-0.219685 0.21303,-0.05991 0.44769,-0.08987 0.70399,-0.08987 0.25629,0 0.49095,0.02996 0.70399,0.08987 0.21303,0.05991 0.40441,0.133142 0.57418,0.219685 0.0998,0.04994 0.17806,0.123158 0.23466,0.219686 0.0565,0.09653 0.0848,0.199712 0.0848,0.309554 v 0.559198 z m 0.39943,-0.399426 h 2.39656 V 60.96168 c 0,-0.03662 -0.009,-0.0699 -0.0276,-0.09986 -0.0183,-0.02996 -0.0425,-0.05326 -0.0724,-0.0699 -0.11984,-0.05991 -0.27378,-0.119829 -0.46184,-0.179742 -0.18807,-0.05991 -0.40026,-0.08987 -0.63659,-0.08987 -0.23633,0 -0.44852,0.02996 -0.63658,0.08987 -0.18807,0.05991 -0.34202,0.119829 -0.46184,0.179742 -0.03,0.01665 -0.0541,0.03996 -0.0724,0.0699 -0.0183,0.02996 -0.0276,0.06324 -0.0276,0.09986 z m 1.19829,-1.19828 c -0.21968,0 -0.40776,-0.07822 -0.56419,-0.234664 -0.15644,-0.156442 -0.23466,-0.344504 -0.23466,-0.56419 h -0.0499 c -0.03,0 -0.0542,-0.0092 -0.0724,-0.02747 -0.0183,-0.0183 -0.0275,-0.04244 -0.0275,-0.0724 0,-0.02996 0.009,-0.05409 0.0275,-0.0724 0.0183,-0.0183 0.0425,-0.02747 0.0724,-0.02747 h 0.0499 c 0,-0.149786 0.0366,-0.284593 0.10984,-0.404421 0.0732,-0.119826 0.16975,-0.214692 0.28958,-0.28459 v 0.189727 c 0,0.02996 0.009,0.05409 0.0275,0.07239 0.0183,0.0183 0.0425,0.02747 0.0724,0.02747 0.03,0 0.0541,-0.0092 0.0724,-0.02747 0.0184,-0.0183 0.0276,-0.04244 0.0276,-0.07239 v -0.269615 c 0.03,-0.01 0.0616,-0.01748 0.0949,-0.02248 0.0333,-0.005 0.0683,-0.0074 0.10486,-0.0074 0.0366,0 0.0716,0.0025 0.10485,0.0074 0.0333,0.005 0.0649,0.01249 0.0949,0.02248 v 0.269612 c 0,0.02996 0.009,0.05409 0.0275,0.07239 0.0184,0.0183 0.0425,0.02747 0.0724,0.02747 0.03,0 0.0541,-0.0092 0.0724,-0.02747 0.0183,-0.0183 0.0276,-0.04244 0.0276,-0.07239 v -0.189729 c 0.11982,0.0699 0.21635,0.164764 0.28958,0.284592 0.0732,0.119828 0.10984,0.254633 0.10984,0.40442 h 0.0499 c 0.03,0 0.0541,0.0092 0.0724,0.02747 0.0183,0.0183 0.0276,0.04244 0.0276,0.0724 0,0.02996 -0.009,0.05409 -0.0276,0.07239 -0.0183,0.0183 -0.0425,0.02747 -0.0724,0.02747 h -0.0499 c 0,0.219686 -0.0782,0.40775 -0.23466,0.564193 -0.15644,0.156441 -0.3445,0.234662 -0.56419,0.234662 z m 0,-0.399428 c 0.10983,0 0.20388,-0.03911 0.28209,-0.117331 0.0783,-0.07822 0.11732,-0.172252 0.11732,-0.282095 h -0.79884 c 0,0.109843 0.0391,0.203872 0.11732,0.282095 0.0782,0.07822 0.17226,0.117331 0.28211,0.117331 z"
			id="path1815"
			sodipodi:nodetypes="csscssscssccccsscssscsscsscssssscscssssscssscssssscscssssscssssccss"
			style="fill:#000000;stroke-width:0.00499284"
			inkscape:label="worker-2"/>
		<path
			d="M 151.8331,61.520878 V 60.96168 c 0,-0.109842 0.0283,-0.213027 0.0849,-0.309554 0.0565,-0.09653 0.13481,-0.169757 0.23466,-0.219686 0.16975,-0.08654 0.36114,-0.159771 0.57417,-0.219685 0.21303,-0.05991 0.44769,-0.08987 0.704,-0.08987 0.25628,0 0.49094,0.02996 0.70399,0.08987 0.21303,0.05991 0.40441,0.133142 0.57418,0.219685 0.0998,0.04994 0.17806,0.123158 0.23465,0.219686 0.0565,0.09653 0.0849,0.199712 0.0849,0.309554 v 0.559198 z m 0.39944,-0.399426 h 2.39656 V 60.96168 c 0,-0.03662 -0.009,-0.0699 -0.0276,-0.09986 -0.0183,-0.02996 -0.0425,-0.05326 -0.0724,-0.0699 -0.11984,-0.05991 -0.27379,-0.119829 -0.46185,-0.179742 -0.18807,-0.05991 -0.40025,-0.08987 -0.63658,-0.08987 -0.23633,0 -0.44853,0.02996 -0.63659,0.08987 -0.18806,0.05991 -0.34202,0.119829 -0.46183,0.179742 -0.03,0.01665 -0.0541,0.03996 -0.0724,0.0699 -0.0183,0.02996 -0.0276,0.06324 -0.0276,0.09986 z m 1.19828,-1.19828 c -0.21968,0 -0.40775,-0.07822 -0.5642,-0.234664 -0.15643,-0.156442 -0.23464,-0.344504 -0.23464,-0.56419 h -0.0499 c -0.03,0 -0.0541,-0.0092 -0.0724,-0.02747 -0.0183,-0.0183 -0.0275,-0.04244 -0.0275,-0.0724 0,-0.02996 0.009,-0.05409 0.0275,-0.0724 0.0183,-0.0183 0.0425,-0.02747 0.0724,-0.02747 h 0.0499 c 0,-0.149786 0.0366,-0.284593 0.10983,-0.404421 0.0732,-0.119826 0.16975,-0.214692 0.28958,-0.28459 v 0.189727 c 0,0.02996 0.009,0.05409 0.0275,0.07239 0.0183,0.0183 0.0425,0.02747 0.0724,0.02747 0.03,0 0.0541,-0.0092 0.0724,-0.02747 0.0184,-0.0183 0.0276,-0.04244 0.0276,-0.07239 v -0.269615 c 0.03,-0.01 0.0616,-0.01748 0.0949,-0.02248 0.0333,-0.005 0.0683,-0.0074 0.10486,-0.0074 0.0366,0 0.0716,0.0025 0.10484,0.0074 0.0333,0.005 0.0649,0.01249 0.0949,0.02248 v 0.269612 c 0,0.02996 0.009,0.05409 0.0275,0.07239 0.0184,0.0183 0.0425,0.02747 0.0724,0.02747 0.03,0 0.0541,-0.0092 0.0724,-0.02747 0.0183,-0.0183 0.0276,-0.04244 0.0276,-0.07239 v -0.189729 c 0.11983,0.0699 0.21636,0.164764 0.28958,0.284592 0.0732,0.119828 0.10984,0.254633 0.10984,0.40442 h 0.0499 c 0.03,0 0.0541,0.0092 0.0724,0.02747 0.0183,0.0183 0.0276,0.04244 0.0276,0.0724 0,0.02996 -0.009,0.05409 -0.0276,0.07239 -0.0183,0.0183 -0.0425,0.02747 -0.0724,0.02747 h -0.0499 c 0,0.219686 -0.0782,0.40775 -0.23466,0.564193 -0.15644,0.156441 -0.3445,0.234662 -0.56418,0.234662 z m 0,-0.399428 c 0.10983,0 0.20387,-0.03911 0.28209,-0.117331 0.0783,-0.07822 0.11733,-0.172252 0.11733,-0.282095 h -0.79885 c 0,0.109843 0.0391,0.203872 0.11733,0.282095 0.0782,0.07822 0.17225,0.117331 0.2821,0.117331 z"
			id="path1816"
			sodipodi:nodetypes="csscssscssccccsscssscsscsscssssscscssssscssscssssscscssssscssssccss"
			style="fill:#000000;stroke-width:0.00499284"
			inkscape:label="worker-3"/>
		<path
			d="M 155.56111,61.520878 V 60.96168 c 0,-0.109842 0.0283,-0.213027 0.0848,-0.309554 0.0565,-0.09653 0.1348,-0.169757 0.23466,-0.219686 0.16975,-0.08654 0.36114,-0.159771 0.57417,-0.219685 0.21303,-0.05991 0.44769,-0.08987 0.70399,-0.08987 0.2563,0 0.49096,0.02996 0.704,0.08987 0.21303,0.05991 0.40441,0.133142 0.57417,0.219685 0.0999,0.04994 0.17807,0.123158 0.23466,0.219686 0.0565,0.09653 0.0848,0.199712 0.0848,0.309554 v 0.559198 z m 0.39943,-0.399426 h 2.39657 V 60.96168 c 0,-0.03662 -0.009,-0.0699 -0.0276,-0.09986 -0.0183,-0.02996 -0.0425,-0.05326 -0.0724,-0.0699 -0.11983,-0.05991 -0.27378,-0.119829 -0.46183,-0.179742 -0.18808,-0.05991 -0.40026,-0.08987 -0.6366,-0.08987 -0.23632,0 -0.44852,0.02996 -0.63658,0.08987 -0.18806,0.05991 -0.34202,0.119829 -0.46183,0.179742 -0.03,0.01665 -0.0541,0.03996 -0.0724,0.0699 -0.0183,0.02996 -0.0276,0.06324 -0.0276,0.09986 z m 1.19828,-1.19828 c -0.21967,0 -0.40774,-0.07822 -0.56419,-0.234664 -0.15644,-0.156442 -0.23464,-0.344504 -0.23464,-0.56419 h -0.0499 c -0.03,0 -0.0541,-0.0092 -0.0724,-0.02747 -0.0183,-0.0183 -0.0275,-0.04244 -0.0275,-0.0724 0,-0.02996 0.009,-0.05409 0.0275,-0.0724 0.0183,-0.0183 0.0425,-0.02747 0.0724,-0.02747 h 0.0499 c 0,-0.149786 0.0366,-0.284593 0.10983,-0.404421 0.0732,-0.119826 0.16975,-0.214692 0.28958,-0.28459 v 0.189727 c 0,0.02996 0.009,0.05409 0.0275,0.07239 0.0183,0.0183 0.0425,0.02747 0.0724,0.02747 0.03,0 0.0542,-0.0092 0.0724,-0.02747 0.0184,-0.0183 0.0276,-0.04244 0.0276,-0.07239 v -0.269615 c 0.03,-0.01 0.0616,-0.01748 0.0949,-0.02248 0.0333,-0.005 0.0683,-0.0074 0.10486,-0.0074 0.0366,0 0.0716,0.0025 0.10484,0.0074 0.0333,0.005 0.065,0.01249 0.0949,0.02248 v 0.269612 c 0,0.02996 0.009,0.05409 0.0275,0.07239 0.0184,0.0183 0.0425,0.02747 0.0724,0.02747 0.03,0 0.0541,-0.0092 0.0724,-0.02747 0.0183,-0.0183 0.0276,-0.04244 0.0276,-0.07239 v -0.189729 c 0.11983,0.0699 0.21636,0.164764 0.28958,0.284592 0.0732,0.119828 0.10984,0.254633 0.10984,0.40442 h 0.0499 c 0.03,0 0.0541,0.0092 0.0724,0.02747 0.0183,0.0183 0.0276,0.04244 0.0276,0.0724 0,0.02996 -0.009,0.05409 -0.0276,0.07239 -0.0183,0.0183 -0.0425,0.02747 -0.0724,0.02747 h -0.0499 c 0,0.219686 -0.0782,0.40775 -0.23466,0.564193 -0.15644,0.156441 -0.3445,0.234662 -0.56418,0.234662 z m 0,-0.399428 c 0.10984,0 0.20388,-0.03911 0.2821,-0.117331 0.0783,-0.07822 0.11732,-0.172252 0.11732,-0.282095 h -0.79884 c 0,0.109843 0.0391,0.203872 0.11733,0.282095 0.0782,0.07822 0.17225,0.117331 0.28209,0.117331 z"
			id="path1817"
			sodipodi:nodetypes="csscssscssccccsscssscsscsscssssscscssssscssscssssscscssssscssssccss"
			style="fill:#000000;stroke-width:0.00499284"
			inkscape:label="worker-4"/>
		<path
			d="m 144.37714,65.248865 v -0.559197 c 0,-0.109842 0.0283,-0.213027 0.0849,-0.309555 0.0565,-0.09653 0.13481,-0.169757 0.23466,-0.219685 0.16976,-0.08654 0.36114,-0.159771 0.57417,-0.219685 0.21303,-0.05991 0.44769,-0.08987 0.704,-0.08987 0.25629,0 0.49095,0.02996 0.70399,0.08987 0.21303,0.05991 0.40442,0.133142 0.57417,0.219685 0.0999,0.04994 0.17808,0.123157 0.23466,0.219685 0.0565,0.09653 0.0849,0.199713 0.0849,0.309555 v 0.559197 z m 0.39944,-0.399426 h 2.39656 v -0.159771 c 0,-0.03662 -0.009,-0.0699 -0.0276,-0.09986 -0.0183,-0.02996 -0.0425,-0.05326 -0.0724,-0.0699 -0.11983,-0.05991 -0.27377,-0.119828 -0.46183,-0.179741 -0.18807,-0.05991 -0.40026,-0.08987 -0.63659,-0.08987 -0.23633,0 -0.44853,0.02996 -0.63659,0.08987 -0.18806,0.05991 -0.34202,0.119827 -0.46183,0.179741 -0.03,0.01665 -0.0541,0.03996 -0.0724,0.0699 -0.0183,0.02996 -0.0276,0.06324 -0.0276,0.09986 z m 1.19828,-1.198279 c -0.21968,0 -0.40775,-0.07822 -0.56419,-0.234664 -0.15645,-0.156442 -0.23465,-0.344505 -0.23465,-0.56419 h -0.0499 c -0.03,0 -0.0541,-0.0092 -0.0724,-0.02747 -0.0183,-0.0183 -0.0275,-0.04244 -0.0275,-0.0724 0,-0.02996 0.009,-0.05409 0.0275,-0.0724 0.0183,-0.0183 0.0425,-0.02747 0.0724,-0.02747 h 0.0499 c 0,-0.149786 0.0366,-0.284592 0.10983,-0.404421 0.0732,-0.119827 0.16975,-0.214692 0.28958,-0.28459 v 0.189727 c 0,0.02996 0.009,0.05409 0.0275,0.07239 0.0183,0.0183 0.0425,0.02747 0.0724,0.02747 0.03,0 0.0541,-0.0092 0.0724,-0.02747 0.0184,-0.0183 0.0276,-0.04244 0.0276,-0.07239 v -0.269613 c 0.03,-0.01 0.0616,-0.01748 0.0949,-0.02247 0.0333,-0.005 0.0683,-0.0074 0.10486,-0.0074 0.0366,0 0.0716,0.0025 0.10484,0.0074 0.0333,0.005 0.065,0.01249 0.0949,0.02247 v 0.269613 c 0,0.02996 0.009,0.05409 0.0275,0.07239 0.0184,0.0183 0.0425,0.02747 0.0724,0.02747 0.03,0 0.0541,-0.0092 0.0724,-0.02747 0.0183,-0.0183 0.0276,-0.04244 0.0276,-0.07239 v -0.189729 c 0.11983,0.0699 0.21636,0.164764 0.28958,0.284591 0.0732,0.119829 0.10985,0.254634 0.10985,0.40442 h 0.0499 c 0.03,0 0.0542,0.0092 0.0724,0.02747 0.0183,0.0183 0.0276,0.04244 0.0276,0.0724 0,0.02996 -0.009,0.05409 -0.0276,0.07239 -0.0183,0.0183 -0.0425,0.02747 -0.0724,0.02747 h -0.0499 c 0,0.219685 -0.0782,0.407749 -0.23466,0.564192 -0.15645,0.156441 -0.34451,0.234662 -0.56419,0.234662 z m 0,-0.399428 c 0.10984,0 0.20387,-0.03911 0.28209,-0.117331 0.0783,-0.07822 0.11732,-0.172252 0.11732,-0.282095 h -0.79884 c 0,0.109843 0.0391,0.203872 0.11733,0.282095 0.0782,0.07822 0.17225,0.117331 0.2821,0.117331 z"
			id="path1818"
			sodipodi:nodetypes="csscssscssccccsscssscsscsscssssscscssssscssscssssscscssssscssssccss"
			style="fill:#000000;stroke-width:0.00499284"
			inkscape:label="worker-5"/>
		<path
			d="m 148.10512,65.248865 v -0.559197 c 0,-0.109842 0.0283,-0.213027 0.0848,-0.309555 0.0565,-0.09653 0.13482,-0.169757 0.23467,-0.219685 0.16976,-0.08654 0.36115,-0.159771 0.57418,-0.219685 0.21303,-0.05991 0.44769,-0.08987 0.70399,-0.08987 0.25629,0 0.49095,0.02996 0.70399,0.08987 0.21303,0.05991 0.40441,0.133142 0.57418,0.219685 0.0998,0.04994 0.17806,0.123157 0.23466,0.219685 0.0565,0.09653 0.0848,0.199713 0.0848,0.309555 v 0.559197 z m 0.39943,-0.399426 h 2.39656 v -0.159771 c 0,-0.03662 -0.009,-0.0699 -0.0276,-0.09986 -0.0183,-0.02996 -0.0425,-0.05326 -0.0724,-0.0699 -0.11984,-0.05991 -0.27378,-0.119828 -0.46184,-0.179741 -0.18807,-0.05991 -0.40026,-0.08987 -0.63659,-0.08987 -0.23633,0 -0.44852,0.02996 -0.63658,0.08987 -0.18807,0.05991 -0.34202,0.119827 -0.46184,0.179741 -0.03,0.01665 -0.0541,0.03996 -0.0724,0.0699 -0.0183,0.02996 -0.0276,0.06324 -0.0276,0.09986 z m 1.19829,-1.198279 c -0.21968,0 -0.40776,-0.07822 -0.56419,-0.234664 -0.15644,-0.156442 -0.23466,-0.344505 -0.23466,-0.56419 h -0.0499 c -0.03,0 -0.0542,-0.0092 -0.0724,-0.02747 -0.0183,-0.0183 -0.0275,-0.04244 -0.0275,-0.0724 0,-0.02996 0.009,-0.05409 0.0275,-0.0724 0.0183,-0.0183 0.0425,-0.02747 0.0724,-0.02747 h 0.0499 c 0,-0.149786 0.0366,-0.284592 0.10984,-0.404421 0.0732,-0.119827 0.16975,-0.214692 0.28958,-0.28459 v 0.189727 c 0,0.02996 0.009,0.05409 0.0275,0.07239 0.0183,0.0183 0.0425,0.02747 0.0724,0.02747 0.03,0 0.0541,-0.0092 0.0724,-0.02747 0.0184,-0.0183 0.0276,-0.04244 0.0276,-0.07239 v -0.269613 c 0.03,-0.01 0.0616,-0.01748 0.0949,-0.02247 0.0333,-0.005 0.0683,-0.0074 0.10486,-0.0074 0.0366,0 0.0716,0.0025 0.10485,0.0074 0.0333,0.005 0.0649,0.01249 0.0949,0.02247 v 0.269613 c 0,0.02996 0.009,0.05409 0.0275,0.07239 0.0184,0.0183 0.0425,0.02747 0.0724,0.02747 0.03,0 0.0541,-0.0092 0.0724,-0.02747 0.0183,-0.0183 0.0276,-0.04244 0.0276,-0.07239 v -0.189729 c 0.11982,0.0699 0.21635,0.164764 0.28958,0.284591 0.0732,0.119829 0.10984,0.254634 0.10984,0.40442 h 0.0499 c 0.03,0 0.0541,0.0092 0.0724,0.02747 0.0183,0.0183 0.0276,0.04244 0.0276,0.0724 0,0.02996 -0.009,0.05409 -0.0276,0.07239 -0.0183,0.0183 -0.0425,0.02747 -0.0724,0.02747 h -0.0499 c 0,0.219685 -0.0782,0.407749 -0.23466,0.564192 -0.15644,0.156441 -0.3445,0.234662 -0.56419,0.234662 z m 0,-0.399428 c 0.10983,0 0.20388,-0.03911 0.28209,-0.117331 0.0783,-0.07822 0.11732,-0.172252 0.11732,-0.282095 h -0.79884 c 0,0.109843 0.0391,0.203872 0.11732,0.282095 0.0782,0.07822 0.17226,0.117331 0.28211,0.117331 z"
			id="path1819"
			sodipodi:nodetypes="csscssscssccccsscssscsscsscssssscscssssscssscssssscscssssscssssccss"
			style="fill:#000000;stroke-width:0.00499284"
			inkscape:label="worker-6"/>
		<path
			d="m 151.8331,65.248865 v -0.559197 c 0,-0.109842 0.0283,-0.213027 0.0849,-0.309555 0.0565,-0.09653 0.13481,-0.169757 0.23466,-0.219685 0.16975,-0.08654 0.36114,-0.159771 0.57417,-0.219685 0.21303,-0.05991 0.44769,-0.08987 0.704,-0.08987 0.25628,0 0.49094,0.02996 0.70399,0.08987 0.21303,0.05991 0.40441,0.133142 0.57418,0.219685 0.0998,0.04994 0.17806,0.123157 0.23465,0.219685 0.0565,0.09653 0.0849,0.199713 0.0849,0.309555 v 0.559197 z m 0.39944,-0.399426 h 2.39656 v -0.159771 c 0,-0.03662 -0.009,-0.0699 -0.0276,-0.09986 -0.0183,-0.02996 -0.0425,-0.05326 -0.0724,-0.0699 -0.11984,-0.05991 -0.27379,-0.119828 -0.46185,-0.179741 -0.18807,-0.05991 -0.40025,-0.08987 -0.63658,-0.08987 -0.23633,0 -0.44853,0.02996 -0.63659,0.08987 -0.18806,0.05991 -0.34202,0.119827 -0.46183,0.179741 -0.03,0.01665 -0.0541,0.03996 -0.0724,0.0699 -0.0183,0.02996 -0.0276,0.06324 -0.0276,0.09986 z m 1.19828,-1.198279 c -0.21968,0 -0.40775,-0.07822 -0.5642,-0.234664 -0.15643,-0.156442 -0.23464,-0.344505 -0.23464,-0.56419 h -0.0499 c -0.03,0 -0.0541,-0.0092 -0.0724,-0.02747 -0.0183,-0.0183 -0.0275,-0.04244 -0.0275,-0.0724 0,-0.02996 0.009,-0.05409 0.0275,-0.0724 0.0183,-0.0183 0.0425,-0.02747 0.0724,-0.02747 h 0.0499 c 0,-0.149786 0.0366,-0.284592 0.10983,-0.404421 0.0732,-0.119827 0.16975,-0.214692 0.28958,-0.28459 v 0.189727 c 0,0.02996 0.009,0.05409 0.0275,0.07239 0.0183,0.0183 0.0425,0.02747 0.0724,0.02747 0.03,0 0.0541,-0.0092 0.0724,-0.02747 0.0184,-0.0183 0.0276,-0.04244 0.0276,-0.07239 v -0.269613 c 0.03,-0.01 0.0616,-0.01748 0.0949,-0.02247 0.0333,-0.005 0.0683,-0.0074 0.10486,-0.0074 0.0366,0 0.0716,0.0025 0.10484,0.0074 0.0333,0.005 0.0649,0.01249 0.0949,0.02247 v 0.269613 c 0,0.02996 0.009,0.05409 0.0275,0.07239 0.0184,0.0183 0.0425,0.02747 0.0724,0.02747 0.03,0 0.0541,-0.0092 0.0724,-0.02747 0.0183,-0.0183 0.0276,-0.04244 0.0276,-0.07239 v -0.189729 c 0.11983,0.0699 0.21636,0.164764 0.28958,0.284591 0.0732,0.119829 0.10984,0.254634 0.10984,0.40442 h 0.0499 c 0.03,0 0.0541,0.0092 0.0724,0.02747 0.0183,0.0183 0.0276,0.04244 0.0276,0.0724 0,0.02996 -0.009,0.05409 -0.0276,0.07239 -0.0183,0.0183 -0.0425,0.02747 -0.0724,0.02747 h -0.0499 c 0,0.219685 -0.0782,0.407749 -0.23466,0.564192 -0.15644,0.156441 -0.3445,0.234662 -0.56418,0.234662 z m 0,-0.399428 c 0.10983,0 0.20387,-0.03911 0.28209,-0.117331 0.0783,-0.07822 0.11733,-0.172252 0.11733,-0.282095 h -0.79885 c 0,0.109843 0.0391,0.203872 0.11733,0.282095 0.0782,0.07822 0.17225,0.117331 0.2821,0.117331 z"
			id="path1820"
			sodipodi:nodetypes="csscssscssccccsscssscsscsscssssscscssssscssscssssscscssssscssssccss"
			style="fill:#000000;stroke-width:0.00499284"
			inkscape:label="worker-7"/>
		<path
			d="m 155.56111,65.248865 v -0.559197 c 0,-0.109842 0.0283,-0.213027 0.0848,-0.309555 0.0565,-0.09653 0.1348,-0.169757 0.23466,-0.219685 0.16975,-0.08654 0.36114,-0.159771 0.57417,-0.219685 0.21303,-0.05991 0.44769,-0.08987 0.70399,-0.08987 0.2563,0 0.49096,0.02996 0.704,0.08987 0.21303,0.05991 0.40441,0.133142 0.57417,0.219685 0.0999,0.04994 0.17807,0.123157 0.23466,0.219685 0.0565,0.09653 0.0848,0.199713 0.0848,0.309555 v 0.559197 z m 0.39943,-0.399426 h 2.39657 v -0.159771 c 0,-0.03662 -0.009,-0.0699 -0.0276,-0.09986 -0.0183,-0.02996 -0.0425,-0.05326 -0.0724,-0.0699 -0.11983,-0.05991 -0.27378,-0.119828 -0.46183,-0.179741 -0.18808,-0.05991 -0.40026,-0.08987 -0.6366,-0.08987 -0.23632,0 -0.44852,0.02996 -0.63658,0.08987 -0.18806,0.05991 -0.34202,0.119827 -0.46183,0.179741 -0.03,0.01665 -0.0541,0.03996 -0.0724,0.0699 -0.0183,0.02996 -0.0276,0.06324 -0.0276,0.09986 z m 1.19828,-1.198279 c -0.21967,0 -0.40774,-0.07822 -0.56419,-0.234664 -0.15644,-0.156442 -0.23464,-0.344505 -0.23464,-0.56419 h -0.0499 c -0.03,0 -0.0541,-0.0092 -0.0724,-0.02747 -0.0183,-0.0183 -0.0275,-0.04244 -0.0275,-0.0724 0,-0.02996 0.009,-0.05409 0.0275,-0.0724 0.0183,-0.0183 0.0425,-0.02747 0.0724,-0.02747 h 0.0499 c 0,-0.149786 0.0366,-0.284592 0.10983,-0.404421 0.0732,-0.119827 0.16975,-0.214692 0.28958,-0.28459 v 0.189727 c 0,0.02996 0.009,0.05409 0.0275,0.07239 0.0183,0.0183 0.0425,0.02747 0.0724,0.02747 0.03,0 0.0542,-0.0092 0.0724,-0.02747 0.0184,-0.0183 0.0276,-0.04244 0.0276,-0.07239 v -0.269613 c 0.03,-0.01 0.0616,-0.01748 0.0949,-0.02247 0.0333,-0.005 0.0683,-0.0074 0.10486,-0.0074 0.0366,0 0.0716,0.0025 0.10484,0.0074 0.0333,0.005 0.065,0.01249 0.0949,0.02247 v 0.269613 c 0,0.02996 0.009,0.05409 0.0275,0.07239 0.0184,0.0183 0.0425,0.02747 0.0724,0.02747 0.03,0 0.0541,-0.0092 0.0724,-0.02747 0.0183,-0.0183 0.0276,-0.04244 0.0276,-0.07239 v -0.189729 c 0.11983,0.0699 0.21636,0.164764 0.28958,0.284591 0.0732,0.119829 0.10984,0.254634 0.10984,0.40442 h 0.0499 c 0.03,0 0.0541,0.0092 0.0724,0.02747 0.0183,0.0183 0.0276,0.04244 0.0276,0.0724 0,0.02996 -0.009,0.05409 -0.0276,0.07239 -0.0183,0.0183 -0.0425,0.02747 -0.0724,0.02747 h -0.0499 c 0,0.219685 -0.0782,0.407749 -0.23466,0.564192 -0.15644,0.156441 -0.3445,0.234662 -0.56418,0.234662 z m 0,-0.399428 c 0.10984,0 0.20388,-0.03911 0.2821,-0.117331 0.0783,-0.07822 0.11732,-0.172252 0.11732,-0.282095 h -0.79884 c 0,0.109843 0.0391,0.203872 0.11733,0.282095 0.0782,0.07822 0.17225,0.117331 0.28209,0.117331 z"
			id="path1821"
			sodipodi:nodetypes="csscssscssccccsscssscsscsscssssscscssssscssscssssscscssssscssssccss"
			style="fill:#000000;stroke-width:0.00499284"
			inkscape:label="worker-8"/>
		<path
			id="path1822"
			style="fill:#000000;stroke-width:0.00977177"
			d="m 147.06006,66.774613 0.001,0.442223 h -1.00665 c -0.60755,0 -1.10168,0.494392 -1.10168,1.101934 0,0.607542 0.49413,1.101676 1.10168,1.101676 h 2.73023 c 0.60756,0 1.10168,-0.494125 1.10168,-1.101676 0,-0.607552 -0.49412,-1.101934 -1.10168,-1.101934 h -0.98594 l -0.30138,-0.442223 z m 0.1468,0.146545 h 0.21308 l 0.30138,0.442223 h 1.06336 c 0.52673,0 0.95512,0.42866 0.95512,0.955389 0,0.526728 -0.42839,0.955131 -0.95512,0.955131 h -2.18161 c 0.0949,-0.05473 0.18112,-0.123258 0.25556,-0.20273 h 1.10529 v -0.146546 h -0.98956 c 0.11499,-0.173966 0.18201,-0.382159 0.18201,-0.605855 0,-0.07146 -0.007,-0.141494 -0.02,-0.209202 h 1.0587 v -0.146545 h -1.09779 c -0.0253,-0.07396 -0.0582,-0.144267 -0.0979,-0.210237 h 1.95582 v -0.146545 h -2.0612 c -0.0821,-0.09663 -0.18053,-0.179148 -0.29102,-0.24286 h 0.60482 z m -1.15242,0.442223 c 0.52672,0 0.95539,0.42866 0.95539,0.955389 0,0.526728 -0.42867,0.955131 -0.95539,0.955131 -0.52673,0 -0.95513,-0.428403 -0.95513,-0.955131 0,-0.526729 0.4284,-0.955389 0.95513,-0.955389 z m 0,0.188748 c -0.42261,0 -0.76638,0.34402 -0.76638,0.766641 0,0.42261 0.34376,0.766382 0.76638,0.766382 0.11898,-10e-6 0.23304,-0.02666 0.33918,-0.07923 l -0.065,-0.131268 c -0.0857,0.04246 -0.17797,0.06395 -0.27419,0.06395 -0.3418,0 -0.61984,-0.27805 -0.61984,-0.619837 0,-0.341798 0.27804,-0.619838 0.61984,-0.619838 0.34179,0 0.61984,0.27804 0.61984,0.619838 0,0.160423 -0.0614,0.312671 -0.17269,0.42876 l 0.10589,0.101493 c 0.13768,-0.143509 0.21334,-0.331808 0.21334,-0.530253 0,-0.422621 -0.34377,-0.766641 -0.76638,-0.766641 z m 0,0.33555 c -0.23768,0 -0.43109,0.193411 -0.43109,0.431091 0,0.237679 0.19341,0.430831 0.43109,0.430831 0.23768,0 0.43109,-0.193161 0.43109,-0.430831 0,-0.23768 -0.19342,-0.431091 -0.43109,-0.431091 z m 2.36413,0.07534 v 0.146545 h 1.0341 v -0.146545 z m -2.36413,0.0712 c 0.15685,0 0.28455,0.127689 0.28455,0.284546 0,0.156847 -0.1277,0.284286 -0.28455,0.284286 -0.15686,0 -0.28455,-0.127439 -0.28455,-0.284286 0,-0.156857 0.12769,-0.284546 0.28455,-0.284546 z m 2.50032,0.261503 c -0.15984,0 -0.31177,0.0653 -0.42203,0.179944 h -0.84043 v 0.146545 h 0.90646 l 0.022,-0.02589 c 0.0837,-0.09791 0.20553,-0.154053 0.33401,-0.154053 0.12847,0 0.25005,0.05614 0.33373,0.154053 l 0.022,0.02589 h 0.54216 v -0.146545 h -0.47588 c -0.11025,-0.114643 -0.26219,-0.179944 -0.42203,-0.179944 z m 0,0.290758 c -0.16264,0 -0.29516,0.132251 -0.29516,0.294903 h 0.1468 c 0,-0.08183 0.0666,-0.148357 0.14836,-0.148357 0.0818,0 0.14836,0.06653 0.14836,0.148357 h 0.14654 c 0,-0.162662 -0.13226,-0.294903 -0.2949,-0.294903 z"
			inkscape:label="wood"/>
		<path
			d="M 145.20374,71.370485 V 71.12582 c 0,-0.02442 0.0156,-0.04549 0.0374,-0.05339 l 2.0502,-0.980814 c 0.008,-0.0053 0.0184,-0.0081 0.029,-0.0081 h 0.69019 v 0 l 0.056,0.06631 0.0496,0.07852 -0.21162,0.26669 0.14722,0.05315 0.004,-0.0089 0.0893,0.105575 -0.95616,2.019803 v 0.0077 c 0,0.03136 -0.0254,0.05698 -0.057,0.05698 h -1.87137 c -0.0314,-10e-7 -0.057,-0.02538 -0.057,-0.05698 v -0.245863 c 0,-0.01748 0.008,-0.03304 0.0203,-0.04357 l 0.75075,-0.733037 v -0.07661 l -0.72537,-0.147229 c -0.0268,-0.0053 -0.0455,-0.02897 -0.0457,-0.05554 z m 2.81365,-0.75195 v 0 l -0.16974,-0.05171 -0.65906,0.830473 c -0.004,0.0237 -0.0232,0.04237 -0.0469,0.0462 l -0.11348,0.02035 -0.5779,0.783071 0.6921,0.12353 c 0.005,9.63e-4 0.0103,0.0026 0.0151,0.0048 z m -2.58455,1.719119 0.542,-0.09815 v -0.430916 z m 0.078,-1.268811 h 1.59607 l 0.77684,-0.871649 h -0.55109 z m 1.35451,0.423974 -0.45821,0.08187 v 0.539364 z m -1.54771,-0.31002 v 0.141484 l 0.72035,0.146272 c 0.0285,0.0031 0.0507,0.02729 0.0507,0.0565 v 0.759849 h -2.3e-4 c 0,0.02705 -0.0192,0.05099 -0.0467,0.05578 l -0.72418,0.13119 v 0.141724 h 1.7579 v -0.141245 l -0.73424,-0.131191 c -0.0271,-0.0043 -0.0479,-0.02777 -0.0479,-0.05626 v -0.759611 c -2.3e-4,-0.02729 0.0192,-0.05147 0.0469,-0.0565 l 0.73543,-0.131429 v -0.156803 h -1.75815 z"
			id="path1823"
			style="stroke-width:0.0239398"
			inkscape:label="steel"/>
		<path
			class="st0"
			d="m 155.54385,71.035796 c -0.1404,-0.243511 -0.24495,-0.499954 -0.35521,-0.76789 0.0643,0.252133 0.1314,0.501391 0.23488,0.749932 z m 0.45183,-0.169165 c -0.0381,-0.278711 -0.0971,-0.557421 -0.17385,-0.83685 0.111,0.23202 0.19145,0.485589 0.2579,0.748855 z m -0.56031,-0.942084 c 0.1218,0.452546 0.0679,0.505342 0.11595,0.869533 0.009,0.06321 0.0175,0.122475 0.0482,0.170242 0.0177,0.02694 0.042,0.05064 0.0772,0.0686 0.1458,0.07542 0.23238,-0.009 0.26577,-0.147254 0.004,-0.04597 -0.009,-0.09698 -0.0345,-0.150131 -0.034,-0.07003 -0.0909,-0.14367 -0.16341,-0.214062 -0.18462,-0.178144 -0.21334,-0.354493 -0.30924,-0.596927 z m 1.26426,3.968746 c -0.0435,-0.21837 -0.13395,-0.38107 -0.24675,-0.534433 l 0.30135,-0.07722 c 0.004,0.175272 0.0162,0.346233 0.0464,0.515038 z m -0.61632,-0.915505 c -0.069,-0.009 -0.13755,-0.01975 -0.20113,-0.04489 -0.0507,-0.01976 -0.0984,-0.04884 -0.14115,-0.09303 0.0229,0.04526 0.0466,0.08979 0.0715,0.134324 0.1023,0.182814 0.23632,0.394362 0.47409,0.385023 0.0701,-0.0029 0.13395,-0.03089 0.16629,-0.09842 0.028,-0.05819 0.015,-0.1311 -0.0546,-0.187842 -0.0905,-0.07506 -0.20472,-0.08082 -0.31499,-0.09517 z M 155.9303,72.49256 c -0.0686,-0.0111 -0.1368,-0.02371 -0.19968,-0.05064 -0.0499,-0.0212 -0.097,-0.05172 -0.1383,-0.09698 0.0216,0.04561 0.0441,0.09123 0.0675,0.136125 0.097,0.185686 0.22447,0.401184 0.4626,0.39903 0.07,-7.16e-4 0.1347,-0.02694 0.16917,-0.09374 0.0299,-0.05746 0.0183,-0.13074 -0.0489,-0.189278 -0.0887,-0.07758 -0.20256,-0.08657 -0.31248,-0.10452 z m -0.13725,-0.445722 c -0.068,-0.0147 -0.13545,-0.03052 -0.19719,-0.06069 -0.0489,-0.0237 -0.094,-0.05639 -0.1332,-0.103799 0.0194,0.04669 0.0395,0.09337 0.0607,0.139349 0.0873,0.190356 0.204,0.412318 0.44176,0.421656 0.0701,0.0028 0.13575,-0.02012 0.17384,-0.08477 0.0327,-0.05603 0.0248,-0.12966 -0.0391,-0.191793 -0.0845,-0.08188 -0.19791,-0.09661 -0.30674,-0.119955 z m -0.16377,-0.468706 c -0.0686,-0.01185 -0.1365,-0.02514 -0.19935,-0.0528 -0.0499,-0.02191 -0.0966,-0.05244 -0.13725,-0.09841 0.0212,0.04597 0.043,0.09159 0.0661,0.136845 0.0953,0.186765 0.22015,0.403699 0.45828,0.403699 0.0701,0 0.135,-0.0255 0.17025,-0.09195 0.0301,-0.05711 0.0193,-0.13038 -0.0471,-0.189996 -0.0873,-0.0783 -0.20114,-0.08835 -0.31103,-0.107385 z m -0.1458,-0.457573 c -0.0672,-0.01796 -0.13365,-0.03735 -0.19359,-0.0704 -0.0477,-0.02622 -0.0912,-0.06106 -0.1278,-0.110265 0.0168,0.04778 0.0348,0.09517 0.0536,0.14223 0.078,0.194667 0.1828,0.421657 0.42021,0.443208 0.0697,0.0065 0.1368,-0.01335 0.17779,-0.07614 0.0352,-0.05424 0.0312,-0.12822 -0.0298,-0.19323 -0.0801,-0.08621 -0.19251,-0.106665 -0.30025,-0.135405 z m 1.27683,1.603661 c 0.0466,-0.05136 0.0922,-0.10344 0.12495,-0.163779 0.0258,-0.04778 0.0441,-0.10056 0.0482,-0.161982 0.012,0.0492 0.0219,0.09877 0.0316,0.148695 0.0395,0.2058 0.0732,0.453982 -0.1149,0.599801 -0.0554,0.0431 -0.1224,0.06249 -0.19073,0.0316 -0.0589,-0.02658 -0.0952,-0.09123 -0.0793,-0.178863 0.0216,-0.115649 0.10515,-0.193228 0.1803,-0.275477 z m -0.16557,-0.46368 c 0.0466,-0.05136 0.0923,-0.10344 0.12495,-0.163777 0.026,-0.04778 0.0441,-0.10056 0.0482,-0.161984 0.012,0.0492 0.0219,0.09878 0.0316,0.148695 0.0395,0.205802 0.0734,0.453982 -0.1149,0.599802 -0.0553,0.04274 -0.12255,0.06249 -0.19071,0.0316 -0.0589,-0.02658 -0.0951,-0.09123 -0.0794,-0.178863 0.0216,-0.11565 0.10485,-0.19323 0.18031,-0.275478 z m -0.16595,-0.463678 c 0.0466,-0.05136 0.0922,-0.10344 0.12495,-0.163779 0.0258,-0.04778 0.0441,-0.10056 0.0481,-0.161982 0.012,0.0492 0.0219,0.09878 0.0317,0.148695 0.0396,0.2058 0.0733,0.453982 -0.1149,0.599802 -0.0554,0.04274 -0.1224,0.06249 -0.19072,0.0316 -0.0589,-0.02658 -0.0953,-0.09123 -0.0794,-0.178863 0.0216,-0.11565 0.10515,-0.19323 0.1803,-0.275478 z m -0.15766,-0.465835 c 0.0466,-0.05136 0.0923,-0.10344 0.12495,-0.163777 0.026,-0.04778 0.0441,-0.10056 0.0482,-0.161982 0.012,0.0492 0.0219,0.09877 0.0316,0.148695 0.0395,0.2058 0.0732,0.45398 -0.1149,0.599801 -0.0553,0.04274 -0.1224,0.06249 -0.19071,0.03161 -0.0589,-0.02658 -0.0952,-0.09123 -0.0794,-0.178863 0.0216,-0.11565 0.10515,-0.19323 0.1803,-0.275477 z m -0.17133,-0.465115 c 0.0441,-0.05352 0.0873,-0.108105 0.1167,-0.169884 0.0237,-0.0492 0.0388,-0.10272 0.0399,-0.164137 0.0135,0.04884 0.027,0.0977 0.0392,0.146895 0.0495,0.203646 0.0958,0.449671 -0.0847,0.604829 -0.0531,0.04561 -0.11925,0.0686 -0.18891,0.04131 -0.0603,-0.02371 -0.0999,-0.0862 -0.088,-0.174553 0.0152,-0.11673 0.0948,-0.198258 0.16594,-0.284457 z"
			id="path1824"
			style="stroke-width:0.0359161"
			inkscape:label="food"
			sodipodi:nodetypes="cccccccccccccccccccccccccccccccccccccccccccccccccsccccccccccccccccccccccccccccccccccccccccccccccccccc"/>
		<path
			d="m 154.93177,69.56389 q -0.0625,0 -0.10473,-0.04226 -0.0423,-0.04226 -0.0423,-0.10473 0,-0.06247 0.0423,-0.104731 0.0423,-0.04226 0.10473,-0.04226 h 0.14699 v -0.881945 h -0.14699 q -0.0625,0 -0.10473,-0.04226 -0.0423,-0.04226 -0.0423,-0.104731 0,-0.06247 0.0423,-0.104731 0.0423,-0.04226 0.10473,-0.04226 h 0.14699 v -0.881945 h -0.14699 q -0.0625,0 -0.10473,-0.04226 -0.0423,-0.04226 -0.0423,-0.104731 0,-0.06247 0.0423,-0.104731 0.0423,-0.04226 0.10473,-0.04226 h 2.35185 q 0.0625,0 0.10473,0.04226 0.0423,0.04226 0.0423,0.104731 0,0.06247 -0.0423,0.104731 -0.0423,0.04226 -0.10473,0.04226 h -0.14699 v 0.881945 h 0.14699 q 0.0625,0 0.10473,0.04226 0.0423,0.04226 0.0423,0.104731 0,0.06247 -0.0423,0.104731 -0.0423,0.04226 -0.10473,0.04226 h -0.14699 v 0.881945 h 0.14699 q 0.0625,0 0.10473,0.04226 0.0423,0.04226 0.0423,0.104731 0,0.06247 -0.0423,0.10473 -0.0423,0.04226 -0.10473,0.04226 z m 0.44097,-0.293981 h 1.46991 v -0.881945 q -0.0625,0 -0.10473,-0.04226 -0.0423,-0.04226 -0.0423,-0.104731 0,-0.06247 0.0423,-0.104731 0.0423,-0.04226 0.10473,-0.04226 v -0.881945 h -1.46991 v 0.881945 q 0.0625,0 0.10474,0.04226 0.0423,0.04226 0.0423,0.104731 0,0.06247 -0.0423,0.104731 -0.0423,0.04226 -0.10474,0.04226 z m 0.73496,-0.440972 q 0.18374,0 0.31235,-0.12678 0.12862,-0.126779 0.12862,-0.306843 0,-0.143316 -0.0827,-0.24621 -0.0827,-0.102893 -0.35829,-0.422598 -0.27561,0.31603 -0.35829,0.420761 -0.0827,0.104731 -0.0827,0.248047 0,0.180064 0.12861,0.306843 0.12862,0.12678 0.31236,0.12678 z m -0.73496,0.440972 v -2.057871 z"
			id="path1825"
			style="display:inline;fill:#000000;stroke-width:0.00367477"
			inkscape:label="oil"/>
		<path
			fill="#000000"
			d="m 141.6377,73.816441 v 0.372386 l 0.44669,0.148923 0.44671,-0.148923 v -0.372386 z m 0,0.589734 v 0.0091 l 0.3186,0.477911 h 0.2562 l 0.3186,-0.477911 v -0.0091 l -0.44671,0.148876 z m -0.012,0.362834 -0.62132,0.207131 -0.10893,0.435622 0.17994,0.449792 0.56222,0.749618 v 0.274891 h 0.89339 v -0.274891 l 0.56222,-0.749618 0.17993,-0.449792 -0.10893,-0.435622 -0.62132,-0.207131 -0.22019,0.330259 h -0.47684 z m -0.79532,0.05309 -0.49439,0.247195 -0.24669,0.740112 h 0.49424 l 0.24684,-0.987319 z m 2.50786,0 0.24683,0.987307 h 0.49423 l -0.24667,-0.740112 z m -1.35702,0.540608 h 0.20617 v 0.601016 l 0.60495,-0.151225 0.05,0.199983 -0.75807,0.189527 -0.75805,-0.189527 0.05,-0.199983 0.60494,0.151225 z m -1.825,0.652868 0.3244,0.988315 0.20896,-0.208987 -0.15588,-0.779328 z m 3.47869,0 -0.15588,0.779328 0.20897,0.208987 0.3244,-0.988315 z m -2.20346,0.79676 -0.53307,0.26652 -0.0629,0.629982 0.3247,0.10824 0.27135,-0.135693 v -0.869058 z m 1.30573,0 v 0.869059 l 0.27134,0.13567 0.3247,-0.108227 -0.0629,-0.629982 -0.53304,-0.26653 z m -1.09957,0.279897 v 0.183262 h 0.89339 v -0.183258 z m -0.20616,0.81967 -0.25554,0.12776 -0.36154,-0.12052 -0.0767,0.766695 0.69373,-0.277491 v -0.49645 z m 1.30573,0 v 0.496442 l 0.69373,0.277492 -0.0767,-0.766695 -0.36154,0.12052 z m -1.27401,0.705783 -0.77027,0.308143 -0.0912,0.182276 h 0.984 l -0.12253,-0.490407 z m 1.24227,0 -0.12253,0.490419 h 0.984 l -0.0912,-0.182276 -0.77027,-0.308131 z"
			id="path1826"
			style="stroke-width:0.0114538"
			inkscape:label="mech-1"/>
		<path
			fill="#000000"
			d="m 146.4002,73.816441 v 0.372386 l 0.44669,0.148923 0.44671,-0.148923 v -0.372386 z m 0,0.589734 v 0.0091 l 0.3186,0.477911 h 0.2562 l 0.3186,-0.477911 v -0.0091 l -0.44671,0.148876 z m -0.012,0.362834 -0.62132,0.207131 -0.10893,0.435622 0.17994,0.449792 0.56222,0.749618 v 0.274891 h 0.89339 v -0.274891 l 0.56222,-0.749618 0.17993,-0.449792 -0.10893,-0.435622 -0.62132,-0.207131 -0.22019,0.330259 h -0.47684 z m -0.79532,0.05309 -0.49439,0.247195 -0.24669,0.740112 h 0.49424 l 0.24684,-0.987319 z m 2.50786,0 0.24683,0.987307 h 0.49423 l -0.24667,-0.740112 z m -1.35702,0.540608 h 0.20617 v 0.601016 l 0.60495,-0.151225 0.05,0.199983 -0.75807,0.189527 -0.75805,-0.189527 0.05,-0.199983 0.60494,0.151225 z m -1.825,0.652868 0.3244,0.988315 0.20896,-0.208987 -0.15588,-0.779328 z m 3.47869,0 -0.15588,0.779328 0.20897,0.208987 0.3244,-0.988315 z m -2.20346,0.79676 -0.53307,0.26652 -0.0629,0.629982 0.3247,0.10824 0.27135,-0.135693 v -0.869058 z m 1.30573,0 v 0.869059 l 0.27134,0.13567 0.3247,-0.108227 -0.0629,-0.629982 -0.53304,-0.26653 z m -1.09957,0.279897 v 0.183262 h 0.89339 v -0.183258 z m -0.20616,0.81967 -0.25554,0.12776 -0.36154,-0.12052 -0.0767,0.766695 0.69373,-0.277491 v -0.49645 z m 1.30573,0 v 0.496442 l 0.69373,0.277492 -0.0767,-0.766695 -0.36154,0.12052 z m -1.27401,0.705783 -0.77027,0.308143 -0.0912,0.182276 h 0.984 l -0.12253,-0.490407 z m 1.24227,0 -0.12253,0.490419 h 0.984 l -0.0912,-0.182276 -0.77027,-0.308131 z"
			id="path1827"
			style="stroke-width:0.0114538"
			inkscape:label="mech-2"/>
		<path
			fill="#000000"
			d="m 151.1627,73.816441 v 0.372386 l 0.44669,0.148923 0.44671,-0.148923 v -0.372386 z m 0,0.589734 v 0.0091 l 0.3186,0.477911 h 0.2562 l 0.3186,-0.477911 v -0.0091 l -0.44671,0.148876 z m -0.012,0.362834 -0.62132,0.207131 -0.10893,0.435622 0.17994,0.449792 0.56222,0.749618 v 0.274891 h 0.89339 v -0.274891 l 0.56222,-0.749618 0.17993,-0.449792 -0.10893,-0.435622 -0.62132,-0.207131 -0.22019,0.330259 h -0.47684 z m -0.79532,0.05309 -0.49439,0.247195 -0.24669,0.740112 h 0.49424 l 0.24684,-0.987319 z m 2.50786,0 0.24683,0.987307 h 0.49423 l -0.24667,-0.740112 z m -1.35702,0.540608 h 0.20617 v 0.601016 l 0.60495,-0.151225 0.05,0.199983 -0.75807,0.189527 -0.75805,-0.189527 0.05,-0.199983 0.60494,0.151225 z m -1.825,0.652868 0.3244,0.988315 0.20896,-0.208987 -0.15588,-0.779328 z m 3.47869,0 -0.15588,0.779328 0.20897,0.208987 0.3244,-0.988315 z m -2.20346,0.79676 -0.53307,0.26652 -0.0629,0.629982 0.3247,0.10824 0.27135,-0.135693 v -0.869058 z m 1.30573,0 v 0.869059 l 0.27134,0.13567 0.3247,-0.108227 -0.0629,-0.629982 -0.53304,-0.26653 z m -1.09957,0.279897 v 0.183262 h 0.89339 v -0.183258 z m -0.20616,0.81967 -0.25554,0.12776 -0.36154,-0.12052 -0.0767,0.766695 0.69373,-0.277491 v -0.49645 z m 1.30573,0 v 0.496442 l 0.69373,0.277492 -0.0767,-0.766695 -0.36154,0.12052 z m -1.27401,0.705783 -0.77027,0.308143 -0.0912,0.182276 h 0.984 l -0.12253,-0.490407 z m 1.24227,0 -0.12253,0.490419 h 0.984 l -0.0912,-0.182276 -0.77027,-0.308131 z"
			id="path1828"
			style="stroke-width:0.0114538"
			inkscape:label="mech-3"/>
		<path
			fill="#000000"
			d="m 155.9252,73.816441 v 0.372386 l 0.44669,0.148923 0.44671,-0.148923 v -0.372386 z m 0,0.589734 v 0.0091 l 0.3186,0.477911 H 156.5 l 0.3186,-0.477911 v -0.0091 l -0.44671,0.148876 z m -0.012,0.362834 -0.62132,0.207131 -0.10893,0.435622 0.17994,0.449792 0.56222,0.749618 v 0.274891 h 0.89339 v -0.274891 l 0.56222,-0.749618 0.17993,-0.449792 -0.10893,-0.435622 -0.62132,-0.207131 -0.22019,0.330259 h -0.47684 z m -0.79532,0.05309 -0.49439,0.247195 -0.24669,0.740112 h 0.49424 l 0.24684,-0.987319 z m 2.50786,0 0.24683,0.987307 h 0.49423 l -0.24667,-0.740112 z m -1.35702,0.540608 h 0.20617 v 0.601016 l 0.60495,-0.151225 0.05,0.199983 -0.75807,0.189527 -0.75805,-0.189527 0.05,-0.199983 0.60494,0.151225 z m -1.825,0.652868 0.3244,0.988315 0.20896,-0.208987 -0.15588,-0.779328 z m 3.47869,0 -0.15588,0.779328 0.20897,0.208987 0.3244,-0.988315 z m -2.20346,0.79676 -0.53307,0.26652 -0.0629,0.629982 0.3247,0.10824 0.27135,-0.135693 v -0.869058 z m 1.30573,0 v 0.869059 l 0.27134,0.13567 0.3247,-0.108227 -0.0629,-0.629982 -0.53304,-0.26653 z m -1.09957,0.279897 v 0.183262 h 0.89339 v -0.183258 z m -0.20616,0.81967 -0.25554,0.12776 -0.36154,-0.12052 -0.0767,0.766695 0.69373,-0.277491 v -0.49645 z m 1.30573,0 v 0.496442 l 0.69373,0.277492 -0.0767,-0.766695 -0.36154,0.12052 z m -1.27401,0.705783 -0.77027,0.308143 -0.0912,0.182276 h 0.984 l -0.12253,-0.490407 z m 1.24227,0 -0.12253,0.490419 h 0.984 l -0.0912,-0.182276 -0.77027,-0.308131 z"
			id="path1829"
			style="stroke-width:0.0114538"
			inkscape:label="mech-4"/>
		<path
			id="path1830"
			style="fill:#231f20;stroke-width:0.0129224"
			d="m 150.2729,49.70293 c -0.37227,0 -0.67513,0.302867 -0.67513,0.675133 0,0.293014 0.18769,0.542907 0.4491,0.63608 l -1.08712,1.63656 -1.02277,-0.82752 c 0.0961,-0.102666 0.15524,-0.24048 0.15524,-0.39192 0,-0.31644 -0.25744,-0.573853 -0.57387,-0.573853 -0.31642,0 -0.57385,0.257413 -0.57385,0.573853 0,0.28528 0.20927,0.522507 0.48235,0.56648 l 0.48498,2.88352 c 0.0107,0.06507 0.0672,0.113334 0.1332,0.113334 h 4.45587 c 0.0659,0 0.12227,-0.04827 0.1332,-0.113334 l 0.48636,-2.891626 c 0.25227,-0.06027 0.44043,-0.28788 0.44043,-0.558374 0,-0.31644 -0.25743,-0.573853 -0.57387,-0.573853 -0.31643,0 -0.57385,0.257413 -0.57385,0.573853 0,0.160627 0.0664,0.305947 0.17313,0.410227 l -1.00017,0.809227 -1.0873,-1.636507 c 0.26154,-0.09307 0.4493,-0.343067 0.4493,-0.636147 0,-0.372266 -0.30286,-0.675133 -0.67514,-0.675133 z m -1e-5,0.270053 c 0.22337,0 0.40509,0.18172 0.40509,0.40508 0,0.22336 -0.18172,0.405067 -0.40509,0.405067 -0.22336,0 -0.40507,-0.181707 -0.40507,-0.405067 0,-0.22336 0.18171,-0.40508 0.40507,-0.40508 z m -2.75454,1.154467 c 0.16754,0 0.30382,0.13628 0.30382,0.303813 0,0.16752 -0.13628,0.3038 -0.30382,0.3038 -0.16752,0 -0.3038,-0.13628 -0.3038,-0.3038 0,-0.167533 0.13628,-0.303813 0.3038,-0.303813 z m 5.46858,0 c 0.16753,0 0.30381,0.13628 0.30381,0.303813 0,0.16752 -0.13628,0.3038 -0.30381,0.3038 -0.16752,0 -0.3038,-0.13628 -0.3038,-0.3038 0,-0.167533 0.13628,-0.303813 0.3038,-0.303813 z m -2.71415,0.03467 1.17041,1.761573 c 0.0211,0.03173 0.0544,0.05293 0.092,0.0588 0.0376,0.0053 0.0759,-0.004 0.10534,-0.02853 l 1.19717,-0.968614 c 0.003,8.14e-4 0.007,0.0013 0.009,0.0027 l -0.0649,0.386107 -1.31736,1.069626 -1.07903,-1.624466 c -0.0251,-0.0376 -0.0672,-0.06027 -0.11253,-0.06027 -0.0452,0 -0.0875,0.02267 -0.1124,0.06027 l -1.07884,1.624146 -1.31676,-1.062893 -0.0679,-0.403773 1.20811,0.977466 c 0.0296,0.024 0.0677,0.03427 0.10533,0.02853 0.0376,-0.0053 0.0709,-0.02707 0.092,-0.0588 z m 2.5e-4,0.975666 1.04876,1.57888 c 0.0211,0.03173 0.0545,0.05307 0.0921,0.0588 0.0377,0.0053 0.0759,-0.0053 0.10546,-0.02867 l 1.1945,-0.969174 -0.32726,1.946934 h -4.22744 l -0.32642,-1.9418 1.19465,0.96396 c 0.0296,0.02387 0.0677,0.034 0.10533,0.02827 0.0376,-0.0053 0.0709,-0.0272 0.092,-0.0588 z m 4e-4,0.735334 c -0.0439,0 -0.0849,0.02133 -0.11026,0.0572 l -0.48626,0.688773 c -0.0329,0.04667 -0.0329,0.109067 0,0.155747 l 0.48626,0.6888 c 0.0253,0.03587 0.0664,0.0572 0.11026,0.0572 0.0439,0 0.0851,-0.02133 0.11027,-0.0572 l 0.48625,-0.6888 c 0.0329,-0.04667 0.0329,-0.109067 0,-0.155747 L 150.3837,52.93032 c -0.0253,-0.03587 -0.0664,-0.0572 -0.11027,-0.0572 z m 0,0.369146 0.32098,0.45468 -0.32098,0.45468 -0.32096,-0.45468 z"
			inkscape:label="leader"/></g>
	<style
		type="text/css"
		id="style1">.st0 {
		fill-rule: evenodd;
		clip-rule: evenodd;
	}</style></svg>
