<?xml version="1.0" encoding="UTF-8" standalone="no"?>
<!-- Uploaded to: SVG Repo, www.svgrepo.com, Generator: SVG Repo Mixer Tools -->

<svg
   version="1.1"
   id="_x32_"
   viewBox="0 0 446.13477 280.401"
   xml:space="preserve"
   sodipodi:docname="airship-2.svg"
   inkscape:version="1.4.2 (ebf0e940, 2025-05-08)"
   width="446.13477"
   height="280.401"
   xmlns:inkscape="http://www.inkscape.org/namespaces/inkscape"
   xmlns:sodipodi="http://sodipodi.sourceforge.net/DTD/sodipodi-0.dtd"
   xmlns="http://www.w3.org/2000/svg"
   xmlns:svg="http://www.w3.org/2000/svg"><defs
   id="defs4" /><sodipodi:namedview
   id="namedview4"
   pagecolor="#ffffff"
   bordercolor="#000000"
   borderopacity="0.25"
   inkscape:showpageshadow="2"
   inkscape:pageopacity="0.0"
   inkscape:pagecheckerboard="0"
   inkscape:deskcolor="#d1d1d1"
   inkscape:zoom="1.1906757"
   inkscape:cx="195.6872"
   inkscape:cy="46.192259"
   inkscape:window-width="1920"
   inkscape:window-height="1027"
   inkscape:window-x="0"
   inkscape:window-y="25"
   inkscape:window-maximized="1"
   inkscape:current-layer="_x32_" />
<style
   type="text/css"
   id="style1">
	.st0{fill:#000000;}
</style>

<path
   class="st0"
   d="m 2.268142,115.677 c 2.506894,-6.55 6.58746,-11.958 11.379924,-16.816 l 0.01743,-0.02 C 17.995269,94.525 42.594704,81.115873 52.472291,73.042637 L 28.513416,15.907 C 26.826721,11.884674 30.06966,7.54 32.566969,4.663 35.074734,1.785 38.540992,0 42.381934,0 H 66.263215 C 74.99334,0 82.92356,5.877 86.5606,14.968 l 27.97726,27.055527 c 17.3374,-7.164 26.21244,-6.137527 56.04944,-12.157527 30.6648,-6.142 68.97575,-10.489 117.27071,-10.489 53.24689,0 92.39347,14.041 118.64049,34.662 13.12263,10.296 23.00905,22.224 29.63223,34.886 6.62493,12.651 10.00405,26.007 10.00405,38.894 0,12.673 -3.25364,25.917 -9.66509,38.508 -9.61978,18.897 -26.27228,36.406 -50.09954,49.18 -15.9589,8.53 -21.308,8.80286 -43.83781,12.12986 l -13.45175,31.72933 c -6.33527,9.69324 -16.80628,21.03481 -28.96868,21.03481 H 186.57322 c -13.6472,0 -25.41923,-14.99 -28.19276,-30.346 l -3.93203,-30.57964 c -13.48686,-2.439 4.59074,2.64147 -6.31865,-0.25653 -16.73179,-4.428 -23.29446,-5.82159 -34.90617,-10.35159 L 86.56234,240.73 c -3.63704,9.102 -11.56813,14.958 -20.297382,14.958 H 42.383677 c -3.822644,0 -7.32637,-1.765 -9.824551,-4.663 -2.488595,-2.856 -4.027412,-6.866 -4.044839,-11.234 L 51.79,178.34386 C 50.687733,177.59886 26.300169,167.224 25.232757,166.49 l 0.275349,0.173 -0.275349,-0.194 C 18.511109,161.634 12.545799,156.399 7.931092,150.195 v -0.01 C 5.663821,147.083 3.681483,143.726 2.268142,139.992 0.835631,136.226 0,132.104 0,127.818 c 0,-4.273 0.835631,-8.386 2.268142,-12.141 z"
   id="airship"
   style="fill:#000000;stroke-width:0.933465"
   sodipodi:nodetypes="ccccscsscccsccsccccsscccccsscccccccccsc"
   inkscape:label="airship" /></svg>
