<?xml version="1.0" encoding="UTF-8" standalone="no"?>
<!-- Uploaded to: SVG Repo, www.svgrepo.com, Generator: SVG Repo Mixer Tools -->

<svg
   version="1.1"
   id="_x32_"
   viewBox="0 0 512 280.401"
   xml:space="preserve"
   sodipodi:docname="airship.svg"
   inkscape:version="1.4.2 (ebf0e940, 2025-05-08)"
   width="512"
   height="280.401"
   xmlns:inkscape="http://www.inkscape.org/namespaces/inkscape"
   xmlns:sodipodi="http://sodipodi.sourceforge.net/DTD/sodipodi-0.dtd"
   xmlns="http://www.w3.org/2000/svg"
   xmlns:svg="http://www.w3.org/2000/svg"><defs
   id="defs4" /><sodipodi:namedview
   id="namedview4"
   pagecolor="#ffffff"
   bordercolor="#000000"
   borderopacity="0.25"
   inkscape:showpageshadow="2"
   inkscape:pageopacity="0.0"
   inkscape:pagecheckerboard="0"
   inkscape:deskcolor="#d1d1d1"
   inkscape:zoom="1.2449667"
   inkscape:cx="355.02958"
   inkscape:cy="228.92179"
   inkscape:window-width="1920"
   inkscape:window-height="1027"
   inkscape:window-x="0"
   inkscape:window-y="25"
   inkscape:window-maximized="1"
   inkscape:current-layer="_x32_" />
<style
   type="text/css"
   id="style1">
	.st0{fill:#000000;}
</style>

<path
   class="st0"
   d="m 28.268142,115.677 c 2.506894,-6.55 6.58746,-11.958 11.379924,-16.816 l 0.01743,-0.02 c 4.329773,-4.316 19.63982,-13.32489 25.11717,-16.99789 L 54.513416,15.907 C 53.8422,11.5973 56.06966,7.54 58.566969,4.663 61.074734,1.785 64.540992,0 68.381934,0 h 23.881281 c 8.730125,0 16.660345,5.877 20.297385,14.968 l 14.28764,35.856 c 17.3374,-7.164 39.90206,-14.938 69.73906,-20.958 30.6648,-6.142 68.97575,-10.489 117.27071,-10.489 53.24689,0 92.39347,14.041 118.64049,34.662 13.12263,10.296 23.00905,22.224 29.63223,34.886 6.62493,12.651 10.00405,26.007 10.00405,38.894 0,12.673 -3.25364,25.917 -9.66509,38.508 -9.61978,18.897 -26.27228,36.406 -50.09954,49.18 -15.9589,8.53 -15.44102,8.80286 -37.97083,12.12986 l -19.31873,31.72933 c -6.33527,9.69324 -16.80628,21.03481 -28.96868,21.03481 H 212.57322 c -13.6472,0 -25.41923,-14.99 -28.19276,-30.346 l -8.82118,-31.55747 c -13.48686,-2.439 4.59074,2.64147 -6.31865,-0.25653 -16.73179,-4.428 -30.62819,-9.244 -42.2399,-13.774 l -14.43839,36.263 c -3.63704,9.102 -11.56813,14.958 -20.297382,14.958 H 68.383677 c -3.822644,0 -7.32637,-1.765 -9.824551,-4.663 -2.488595,-2.856 -4.027412,-6.866 -4.044839,-11.234 L 65.567121,173.94362 C 64.464854,173.19862 52.300169,167.224 51.232757,166.49 l 0.275349,0.173 -0.275349,-0.194 c -6.721648,-4.835 -12.686958,-10.07 -17.301665,-16.274 v -0.01 c -2.267271,-3.102 -4.249609,-6.459 -5.66295,-10.193 C 26.835631,136.226 26,132.104 26,127.818 c 0,-4.273 0.835631,-8.386 2.268142,-12.141 z M 98.878557,22.152 c -1.182431,-3 -3.787788,-4.876 -6.61447,-4.876 h -22.69885 l 10.269247,58.63011 c 9.211115,-5.111 8.846583,-4.73511 18.394913,-9.12411 4.454373,-2.04 9.593643,-4.509 15.568533,-7.203 z M 199.12121,246.587 c 1.29745,7.325 6.93426,16.59 13.45114,16.56 h 113.53868 c 5.80586,0 10.2287,-4.173 14.81436,-9.60581 l 13.49999,-22.05153 c -6.46373,0.54 -28.56355,1.95634 -35.54225,1.95634 -1.68956,0 -3.38784,-0.03 -5.11312,-0.062 -31.57972,-0.57 -57.60849,-1.1737 -81.39131,-4.3877 -3.35211,-0.469 -36.04664,-5.04948 -39.25672,-5.53948 z M 69.565237,238.445 h 22.69885 c 2.826682,0 5.432039,-1.938 6.61447,-4.877 l 14.981243,-37.63 c -5.98361,-2.623 -11.17603,-5.031 -15.630403,-7.082 -9.54833,-4.407 -8.400212,-3.86138 -17.611327,-9.01438 z M 42.030356,133.095 c 1.235584,3.224 3.760776,6.907 7.522425,10.694 2.133081,2.152 4.666988,4.315 7.476243,6.458 3.734636,2.796 7.97553,5.612 12.536213,8.326 1.049114,0.623 2.125239,1.244 3.227506,1.878 9.370573,5.346 19.853869,10.376 30.077497,15.06 4.70359,2.163 10.04675,4.632 16.20812,7.305 3.63617,1.572 7.5747,3.255 11.82431,4.918 11.35378,4.479 25.0367,9.264 41.7075,13.703 10.17048,2.694 21.43538,5.265 33.9716,7.581 3.83223,0.694 7.76117,1.388 11.84261,2.041 26.39689,4.245 57.8703,7.245 95.51467,7.938 1.67126,0.041 3.33381,0.062 4.94408,0.062 8.72141,0 16.98972,-0.429 24.80492,-1.224 4.8186,-0.5 9.41588,-1.164 13.88769,-1.939 29.32203,-5.03 51.59392,-15.713 67.50751,-28.671 11.16731,-9.122 19.18641,-19.346 24.39625,-29.611 5.23686,-10.264 7.61915,-20.519 7.61915,-29.794 0,-9.408 -2.46246,-19.733 -7.85093,-29.998 -8.06354,-15.407 -22.73458,-30.692 -45.0143,-42.13 -22.2806,-11.468 -52.1542,-19.049 -90.37628,-19.049 -63.37379,0 -108.76191,7.55 -141.92488,16.713 -16.50961,4.55 -29.97991,9.52 -41.20038,14.183 l -0.17775,0.102 c -4.16073,1.714 -7.98338,3.407 -11.54897,5.051 -6.09079,2.734 -11.4078,5.265 -16.13753,7.438 -11.406935,5.265 -23.187681,10.938 -33.305007,16.958 -3.031451,1.775 -5.902573,3.612 -8.579381,5.49 -0.595137,0.398 -1.182432,0.826 -1.751428,1.225 -5.938298,4.265 -10.757773,8.662 -13.842377,12.825 -1.52836,2.082 -2.65851,4.092 -3.360824,5.928 -0.6936,1.867 -0.995961,3.571 -0.995961,5.265 0.0017,1.732 0.304103,3.396 0.997704,5.274 z"
   id="airship"
   style="fill:#000000;stroke-width:0.933465"
   sodipodi:nodetypes="ccccscsscccsccsccccsscccccsscccccccccsccscccccccsccscccccscccccccccccccccccsccccsccscccccccccccc"
   inkscape:label="airship" /><ellipse
   style="fill:#000000;stroke:none;stroke-width:1.00722"
   id="ship11"
   cx="240.04272"
   cy="71.344772"
   inkscape:label="ship11"
   rx="24.270723"
   ry="24.270937" /><ellipse
   style="fill:#000000;stroke:none;stroke-width:1.00722"
   id="ship10"
   cx="296.0806"
   cy="71.344772"
   inkscape:label="ship10"
   rx="24.270723"
   ry="24.270937" /><ellipse
   style="fill:#000000;stroke:none;stroke-width:1.00722"
   id="ship9"
   cx="352.1185"
   cy="71.344772"
   inkscape:label="ship9"
   rx="24.270723"
   ry="24.270937" /><ellipse
   style="fill:#000000;stroke:none;stroke-width:1.00722"
   id="ship8"
   cx="238.78105"
   cy="181.41121"
   inkscape:label="ship8"
   rx="24.270723"
   ry="24.270937" /><ellipse
   style="fill:#000000;stroke:none;stroke-width:1.00722"
   id="ship7"
   cx="296.0806"
   cy="181.41121"
   inkscape:label="ship7"
   rx="24.270723"
   ry="24.270937" /><ellipse
   style="fill:#000000;stroke:none;stroke-width:1.00722"
   id="ship6"
   cx="353.38019"
   cy="181.41121"
   inkscape:label="ship6"
   rx="24.270723"
   ry="24.270937" /><ellipse
   style="fill:#000000;stroke:none;stroke-width:1.00722"
   id="ship5"
   cx="156.78366"
   cy="127.97492"
   inkscape:label="ship5"
   rx="24.270723"
   ry="24.270937" /><ellipse
   style="fill:#000000;stroke:none;stroke-width:1.00722"
   id="ship4"
   cx="212.39183"
   cy="128.85873"
   inkscape:label="ship4"
   rx="24.270723"
   ry="24.270937" /><ellipse
   style="fill:#000000;stroke:none;stroke-width:1.00722"
   id="ship3"
   cx="268"
   cy="127.0576"
   inkscape:label="ship3"
   rx="24.270723"
   ry="24.270937" /><ellipse
   style="fill:#000000;stroke:none;stroke-width:1.00722"
   id="ship2"
   cx="323.60818"
   cy="127.0576"
   inkscape:label="ship2"
   rx="24.270723"
   ry="24.270937" /><ellipse
   style="fill:#000000;stroke:none;stroke-width:1.00722"
   id="ship1"
   cx="379.21634"
   cy="127.0576"
   inkscape:label="ship1"
   rx="24.270723"
   ry="24.270937" /></svg>
