<?xml version="1.0" encoding="UTF-8" standalone="no"?>
<svg
   height="24px"
   viewBox="0 -960 960 960"
   width="24px"
   fill="#e3e3e3"
   version="1.1"
   id="svg1"
   sodipodi:docname="any-resource.svg"
   inkscape:version="1.4.2 (ebf0e940, 2025-05-08)"
   xmlns:inkscape="http://www.inkscape.org/namespaces/inkscape"
   xmlns:sodipodi="http://sodipodi.sourceforge.net/DTD/sodipodi-0.dtd"
   xmlns="http://www.w3.org/2000/svg"
   xmlns:svg="http://www.w3.org/2000/svg">
  <defs
     id="defs1" />
  <sodipodi:namedview
     id="namedview1"
     pagecolor="#ffffff"
     bordercolor="#000000"
     borderopacity="0.25"
     inkscape:showpageshadow="2"
     inkscape:pageopacity="0.0"
     inkscape:pagecheckerboard="0"
     inkscape:deskcolor="#d1d1d1"
     inkscape:zoom="18.923244"
     inkscape:cx="8.4023648"
     inkscape:cy="7.0548158"
     inkscape:window-width="1488"
     inkscape:window-height="966"
     inkscape:window-x="93"
     inkscape:window-y="40"
     inkscape:window-maximized="0"
     inkscape:current-layer="svg1" />
  <path
     id="icon-anyresource"
     style="fill:#000000;stroke-width:0.878456"
     d="M 75.46875 -960 C 33.6525 -960 0 -926.34745 0 -884.53125 L 0 -75.46875 C 0 -33.6525 33.6525 0 75.46875 0 L 884.53125 0 C 926.3475 0 960 -33.6525 960 -75.46875 L 960 -884.53125 C 960 -926.34745 926.3475 -960 884.53125 -960 L 75.46875 -960 z M 87.5 -915 L 872.5 -915 C 894.2075 -915 911.64062 -897.56687 911.64062 -875.85938 L 911.64062 -84.140625 C 911.64062 -62.433135 894.2075 -45 872.5 -45 L 87.5 -45 C 65.7925 -45 48.359375 -62.433135 48.359375 -84.140625 L 48.359375 -875.85938 C 48.359375 -897.56687 65.7925 -915 87.5 -915 z M 480 -831.40625 C 455.69604 -831.40625 432.13674 -829.06502 409.29688 -824.45312 C 386.45702 -819.84123 364.34452 -812.97379 342.96875 -803.75 C 300.2172 -785.30242 263.03068 -760.21818 231.40625 -728.59375 C 199.78182 -696.96932 174.69758 -659.7828 156.25 -617.03125 C 147.0262 -595.65548 140.15876 -573.54298 135.54688 -550.70312 L 135.54688 -550.625 C 130.94386 -527.80576 128.59375 -504.28052 128.59375 -480 L 128.59375 -479.92188 C 128.59575 -467.92278 129.15841 -456.12311 130.3125 -444.45312 C 133.74825 -408.9664 142.3682 -375.13926 156.25 -342.96875 C 174.69758 -300.2172 199.78182 -263.03068 231.40625 -231.40625 C 255.12457 -207.68793 281.9758 -187.7126 311.95312 -171.40625 C 321.94557 -165.9708 332.28086 -160.86189 342.96875 -156.25 C 385.72028 -137.80241 431.39208 -128.59375 480 -128.59375 C 528.60792 -128.59375 574.27972 -137.80241 617.03125 -156.25 C 627.71914 -160.8619 638.05444 -165.95249 648.04688 -171.40625 C 678.02421 -187.7126 704.87543 -207.68793 728.59375 -231.40625 C 760.21818 -263.03068 785.30242 -300.2172 803.75 -342.96875 C 817.63179 -375.13922 826.25174 -408.96645 829.6875 -444.45312 C 830.84159 -456.1231 831.404 -467.92281 831.40625 -479.92188 L 831.40625 -480 C 831.40625 -504.32726 829.07386 -527.9161 824.45312 -550.70312 C 819.84123 -573.54299 812.97379 -595.65548 803.75 -617.03125 C 785.30242 -659.7828 760.21818 -696.96932 728.59375 -728.59375 C 696.96932 -760.21818 659.7828 -785.30242 617.03125 -803.75 C 595.65548 -812.97379 573.54298 -819.84123 550.70312 -824.45312 L 550.625 -824.45312 C 527.85835 -829.06502 504.30396 -831.40625 480 -831.40625 z M 444.84375 -759.29688 L 444.84375 -515.15625 L 200.85938 -515.15625 C 201.24123 -518.50217 201.69409 -521.77641 202.1875 -525.07812 C 207.21253 -554.97068 216.18702 -582.75009 229.21875 -608.28125 C 229.49341 -608.81652 229.8778 -609.30998 230.15625 -609.84375 C 236.26257 -621.61195 243.27403 -632.837 251.09375 -643.67188 C 252.21084 -645.22232 253.45606 -646.74515 254.60938 -648.28125 C 262.63979 -658.93524 271.28679 -669.25555 281.01562 -678.98438 C 325.81689 -723.78566 380.42362 -750.51232 444.84375 -759.29688 z M 515.15625 -759.29688 C 579.57638 -750.51231 634.1831 -723.78565 678.98438 -678.98438 C 688.71321 -669.25554 697.3602 -658.93524 705.39062 -648.28125 C 706.54394 -646.74515 707.78916 -645.22232 708.90625 -643.67188 C 716.72597 -632.83701 723.73743 -621.61195 729.84375 -609.84375 C 730.1222 -609.30998 730.50659 -608.81652 730.78125 -608.28125 C 743.81298 -582.75009 752.78747 -554.97068 757.8125 -525.07812 C 758.30591 -521.77642 758.75877 -518.50217 759.14062 -515.15625 L 515.15625 -515.15625 L 515.15625 -759.29688 z M 200.85938 -444.84375 L 444.84375 -444.84375 L 444.84375 -200.70312 C 382.5608 -208.63004 329.3742 -233.91348 285.15625 -276.32812 C 283.26779 -278.16525 281.30596 -279.8168 279.45312 -281.71875 C 275.34103 -285.87431 271.61352 -290.21274 267.8125 -294.53125 C 258.61251 -305.11179 250.24485 -316.03187 242.89062 -327.34375 C 242.43813 -328.04345 242.00815 -328.82796 241.5625 -329.53125 C 234.1675 -341.13155 227.73501 -353.02733 222.26562 -365.39062 C 214.10677 -384.05903 207.95232 -403.86478 203.90625 -424.6875 C 202.66278 -431.33024 201.6385 -438.01701 200.85938 -444.84375 z M 515.15625 -444.84375 L 759.14062 -444.84375 C 758.3615 -438.01701 757.33722 -431.33024 756.09375 -424.6875 C 752.04768 -403.86478 745.89323 -384.05903 737.73438 -365.39062 C 732.26499 -353.02733 725.8325 -341.13155 718.4375 -329.53125 C 717.99185 -328.82796 717.56186 -328.04345 717.10938 -327.34375 C 709.75514 -316.03187 701.38749 -305.11179 692.1875 -294.53125 C 688.38648 -290.21274 684.65897 -285.87431 680.54688 -281.71875 C 678.69403 -279.8168 676.73221 -278.16525 674.84375 -276.32812 C 630.6258 -233.91348 577.4392 -208.63004 515.15625 -200.70312 L 515.15625 -444.84375 z "
     inkscape:label="icon-anyresource" />
</svg>
