<?xml version="1.0" encoding="UTF-8" standalone="no"?>
<svg
   height="24"
   viewBox="0 -960 960 960"
   width="24"
   fill="#e3e3e3"
   version="1.1"
   id="svg1"
   sodipodi:docname="card.svg"
   inkscape:version="1.4.2 (ebf0e940, 2025-05-08)"
   xmlns:inkscape="http://www.inkscape.org/namespaces/inkscape"
   xmlns:sodipodi="http://sodipodi.sourceforge.net/DTD/sodipodi-0.dtd"
   xmlns="http://www.w3.org/2000/svg"
   xmlns:svg="http://www.w3.org/2000/svg">
  <defs
     id="defs1" />
  <sodipodi:namedview
     id="namedview1"
     pagecolor="#ffffff"
     bordercolor="#000000"
     borderopacity="0.25"
     inkscape:showpageshadow="2"
     inkscape:pageopacity="0.0"
     inkscape:pagecheckerboard="0"
     inkscape:deskcolor="#d1d1d1"
     inkscape:zoom="13.469892"
     inkscape:cx="4.0831804"
     inkscape:cy="14.254012"
     inkscape:window-width="1920"
     inkscape:window-height="1027"
     inkscape:window-x="0"
     inkscape:window-y="25"
     inkscape:window-maximized="1"
     inkscape:current-layer="svg1" />
  <path
     id="icon-card"
     style="fill:#000000"
     d="M 75.46875 -960 C 33.6525 -960 0 -926.34755 0 -884.53125 L 0 -75.46875 C 0 -33.6525 33.6525 -2.2737368e-13 75.46875 0 L 884.53125 0 C 926.3475 0 960 -33.6525 960 -75.46875 L 960 -884.53125 C 960 -926.34755 926.3475 -960 884.53125 -960 L 75.46875 -960 z M 87.5 -915 L 872.5 -915 C 894.2075 -915 911.64062 -897.56688 911.64062 -875.85938 L 911.64062 -84.140625 C 911.64062 -62.433125 894.2075 -45 872.5 -45 L 87.5 -45 C 65.7925 -45 48.359375 -62.433125 48.359375 -84.140625 L 48.359375 -875.85938 C 48.359375 -897.56687 65.7925 -915 87.5 -915 z M 474.76562 -865.54688 C 467.05075 -865.7223 459.10634 -864.64246 451.01562 -862.42188 C 429.44039 -856.50033 413.06982 -844.13698 401.95312 -825.23438 L 141.17188 -375.3125 C 130.05519 -356.4099 127.61418 -335.9712 133.75 -314.14062 C 139.88583 -292.31006 152.3474 -275.88232 171.25 -264.76562 L 449.0625 -104.92188 C 467.96509 -93.805189 488.1904 -91.187822 509.76562 -97.109375 C 531.34086 -103.03092 547.6333 -115.4724 558.75 -134.375 L 818.90625 -585.07812 C 830.02294 -603.98072 832.64029 -624.20602 826.71875 -645.78125 C 820.79721 -667.35649 808.43385 -683.64892 789.53125 -694.76562 L 511.71875 -854.6875 C 499.90463 -861.63543 487.62375 -865.2545 474.76562 -865.54688 z M 471.64062 -785.78125 L 749.375 -625.9375 L 489.14062 -173.82812 L 210.70312 -334.45312 L 471.64062 -785.78125 z M 550.625 -601.40625 L 393.90625 -529.92188 L 410.15625 -358.125 L 566.875 -429.60938 L 550.625 -601.40625 z "
     inkscape:label="icon-card" />
</svg>
