<?xml version="1.0" encoding="UTF-8" standalone="no"?>
<!-- Uploaded to: SVG Repo, www.svgrepo.com, Generator: SVG Repo Mixer Tools -->

<svg
   width="24"
   height="24"
   viewBox="0 0 15.36 15.36"
   version="1.1"
   id="svg1"
   sodipodi:docname="eagle.svg"
   inkscape:version="1.4.2 (ebf0e940, 2025-05-08)"
   xmlns:inkscape="http://www.inkscape.org/namespaces/inkscape"
   xmlns:sodipodi="http://sodipodi.sourceforge.net/DTD/sodipodi-0.dtd"
   xmlns="http://www.w3.org/2000/svg"
   xmlns:svg="http://www.w3.org/2000/svg">
  <defs
     id="defs1" />
  <sodipodi:namedview
     id="namedview1"
     pagecolor="#ffffff"
     bordercolor="#000000"
     borderopacity="0.25"
     inkscape:showpageshadow="2"
     inkscape:pageopacity="0.0"
     inkscape:pagecheckerboard="0"
     inkscape:deskcolor="#d1d1d1"
     inkscape:zoom="21.462828"
     inkscape:cx="15.235643"
     inkscape:cy="16.796481"
     inkscape:window-width="1344"
     inkscape:window-height="962"
     inkscape:window-x="245"
     inkscape:window-y="74"
     inkscape:window-maximized="0"
     inkscape:current-layer="svg1" />
  <path
     id="icon-power"
     style="stroke-width:0.0246408"
     d="M 1.2075 0 C 0.53844 0 0 0.53844 0 1.2075 L 0 14.1525 C 0 14.82156 0.53844 15.36 1.2075 15.36 L 14.1525 15.36 C 14.82156 15.36 15.36 14.82156 15.36 14.1525 L 15.36 1.2075 C 15.36 0.53844 14.82156 0 14.1525 0 L 1.2075 0 z M 1.4 0.72 L 13.96 0.72 C 14.30732 0.72 14.58625 0.99893 14.58625 1.34625 L 14.58625 14.01375 C 14.58625 14.36107 14.30732 14.64 13.96 14.64 L 1.4 14.64 C 1.05268 14.64 0.77375 14.36107 0.77375 14.01375 L 0.77375 1.34625 C 0.77375 0.99893 1.05268 0.72 1.4 0.72 z M 2.155 1.76625 C 1.9625786 2.2704548 1.8301785 2.8099127 1.7775 3.37 L 4.3325 4.055 C 4.3114 4.19495 4.16776 4.54562 4.1575 4.75625 L 1.935 4.75625 C 2.018 5.08457 2.12797 6.03218 2.2625 6.33625 L 4.21375 5.81375 L 4.4125 6.425 L 2.95375 7.2675 C 3.14551 7.48257 3.66692 8.31357 3.8875 8.49875 L 4.99 7.3975 L 6.05625 8.215 L 5.36625 9.41 C 5.67537 9.54225 5.99795 9.64806 6.33125 9.72625 C 6.35565 9.81415 6.38245 9.9015 6.41125 9.9875 C 6.10669 10.23373 5.81624 10.49308 5.54625 10.77 C 5.4364 10.7167 5.31285 10.68625 5.1825 10.68625 C 4.72154 10.68625 4.19625 10.80774 4.19625 11.26875 C 4.19625 11.31105 4.20025 11.35311 4.20625 11.39375 C 4.25605 11.11003 4.65452 11.14625 4.9525 11.14625 C 5.029 11.14625 5.10143 11.16035 5.16875 11.18625 C 4.9198 11.48445 4.6963 11.80384 4.50625 12.1525 C 4.84869 11.96662 5.18819 11.76449 5.52 11.5425 C 5.5437 11.6073 5.55625 11.67702 5.55625 11.75 C 5.55625 12.0487 5.66474 12.40237 5.38 12.45125 C 5.4215 12.45725 5.46426 12.46125 5.5075 12.46125 C 5.96853 12.46125 6.0175 11.98221 6.0175 11.52125 C 6.0175 11.41849 5.9989 11.32088 5.965 11.23 C 6.21223 11.04601 6.45247 10.84952 6.685 10.63875 C 6.7584 10.77932 6.83882 10.91087 6.92375 11.02875 L 5.85 13.17625 C 7.03934 13.72993 8.7021 13.73707 9.74125 13.17625 L 8.7025 11.0975 C 8.7942 10.97898 8.88076 10.84514 8.96 10.7 C 9.17134 10.88769 9.38938 11.06397 9.6125 11.23 C 9.5786 11.3208 9.56 11.41859 9.56 11.52125 C 9.56 11.98221 9.66774 12.535 10.12875 12.535 L 10.13 12.535 C 10.130576 12.535055 10.13202 12.534892 10.1325 12.535 L 10.13375 12.535 L 10.13375 12.53625 L 10.135 12.53625 L 10.135 12.5375 L 10.13625 12.5375 L 10.13625 12.53875 L 10.13625 12.54 L 10.13625 12.54125 C 10.136135 12.541679 10.135168 12.544543 10.135 12.545 C 10.130692 12.55465 10.116932 12.569229 10.11375 12.5775 L 10.11375 12.57875 L 10.11375 12.58 L 10.11375 12.58125 L 10.11375 12.5825 L 10.115 12.5825 L 10.11625 12.58375 L 10.1175 12.58375 L 10.11875 12.58375 C 10.131779 12.583086 10.169518 12.568268 10.25625 12.525 C 9.9714 12.4761 10.02 12.04872 10.02 11.75 C 10.02 11.677 10.03245 11.6073 10.05625 11.5425 C 10.38802 11.76441 10.72759 11.96662 11.07 12.1525 C 10.88002 11.80389 10.65755 11.48445 10.40875 11.18625 C 10.47595 11.16045 10.54879 11.14625 10.625 11.14625 C 10.92291 11.14625 11.40398 11.06384 11.45375 11.3475 C 11.45975 11.3069 11.4625 11.26601 11.4625 11.22375 C 11.4625 10.76272 10.85475 10.68625 10.39375 10.68625 C 10.26377 10.68625 10.14094 10.71575 10.03125 10.76875 C 9.78467 10.51568 9.51989 10.27824 9.24375 10.05125 C 9.29145 9.91523 9.33364 9.7756 9.37 9.635 C 9.56491 9.5767 9.75646 9.5087 9.9425 9.43125 L 9.24 8.215 L 10.30625 7.3975 L 11.4375 8.52875 C 11.66285 8.34254 12.1892 7.50846 12.385 7.29125 L 10.88375 6.425 L 11.0825 5.81375 L 13.09125 6.3525 C 13.22894 6.04367 13.3418 5.0902 13.42625 4.75625 L 11.13875 4.75625 L 10.96375 4.055 L 13.5825 3.3525 C 13.5288 2.79833 13.39683 2.26548 13.20625 1.76625 C 12.55286 2.78909 11.14624 3.58755 9.3925 3.91 C 9.7047 4.29448 9.89625 4.78622 9.89625 5.32125 C 9.89625 6.08994 9.50845 6.76755 8.92 7.16875 C 8.39589 6.86304 8.13064 6.42678 8.06625 6.05875 L 8.39875 5.965 L 8.44625 5.71 C 8.83237 5.43069 8.99458 5.32008 9.475 5.545 L 9.3225 4.94 L 8.27875 4.93625 L 8.20875 4.61125 L 7.93125 4.415 L 6.37125 4.95875 L 6.72125 5.78625 C 6.50946 6.27114 6.38626 6.84406 6.5875 7.26 C 5.91717 6.87634 5.46375 6.15119 5.46375 5.32 C 5.46375 4.78498 5.65534 4.29445 5.9675 3.91 C 4.2142109 3.5876963 2.8086053 2.7887774 2.155 1.76625 z "
     inkscape:label="icon-power" />
</svg>
