<?xml version="1.0" encoding="UTF-8" standalone="no"?>
<svg
   height="24px"
   viewBox="0 -960 960 960"
   width="24px"
   fill="#e3e3e3"
   version="1.1"
   id="svg1"
   sodipodi:docname="fight.svg"
   inkscape:version="1.4.2 (ebf0e940, 2025-05-08)"
   xmlns:inkscape="http://www.inkscape.org/namespaces/inkscape"
   xmlns:sodipodi="http://sodipodi.sourceforge.net/DTD/sodipodi-0.dtd"
   xmlns="http://www.w3.org/2000/svg"
   xmlns:svg="http://www.w3.org/2000/svg">
  <defs
     id="defs1" />
  <sodipodi:namedview
     id="namedview1"
     pagecolor="#ffffff"
     bordercolor="#000000"
     borderopacity="0.25"
     inkscape:showpageshadow="2"
     inkscape:pageopacity="0.0"
     inkscape:pagecheckerboard="0"
     inkscape:deskcolor="#d1d1d1"
     inkscape:zoom="5.1248164"
     inkscape:cx="-33.17192"
     inkscape:cy="7.6100288"
     inkscape:window-width="1920"
     inkscape:window-height="1027"
     inkscape:window-x="0"
     inkscape:window-y="25"
     inkscape:window-maximized="1"
     inkscape:current-layer="svg1" />
  <path
     d="M762-96 645-212l-88 88-28-28q-23-23-23-57t23-57l169-169q23-23 57-23t57 23l28 28-88 88 116 117q12 12 12 28t-12 28l-50 50q-12 12-28 12t-28-12Zm118-628L426-270l5 4q23 23 23 57t-23 57l-28 28-88-88L198-96q-12 12-28 12t-28-12l-50-50q-12-12-12-28t12-28l116-117-88-88 28-28q23-23 57-23t57 23l4 5 454-454h160v160ZM334-583l24-23 23-24-23 24-24 23Zm-56 57L80-724v-160h160l198 198-57 56-174-174h-47v47l174 174-56 57Zm92 199 430-430v-47h-47L323-374l47 47Zm0 0-24-23-23-24 23 24 24 23Z"
     id="path1"
     style="fill:#000000" />
  <rect
     style="fill:#ff00ff;fill-opacity:0;stroke:none;stroke-width:40;stroke-linejoin:round;stroke-opacity:1"
     id="rect1"
     width="834.09839"
     height="678.9696"
     x="32.599533"
     y="-925.15222" />
  <rect
     style="fill:#ff00ff;fill-opacity:0;stroke:none;stroke-width:40;stroke-linejoin:round;stroke-opacity:1"
     id="rect2"
     width="58.45433"
     height="152.88057"
     x="858.82904"
     y="-246.18263" />
  <path
     id="rect3"
     style="fill:#000000;fill-opacity:1;stroke:none;stroke-width:63.8921;stroke-linejoin:round;stroke-opacity:1"
     d="M 75.46875 -960 C 33.652456 -960 0 -926.34754 0 -884.53125 L 0 -75.46875 C -1.1842379e-14 -33.652456 33.652456 0 75.46875 0 L 884.53125 0 C 926.34754 -1.1368684e-13 960 -33.652456 960 -75.46875 L 960 -884.53125 C 960 -926.34754 926.34754 -960 884.53125 -960 L 75.46875 -960 z M 87.5 -915 L 872.5 -915 C 894.20724 -915 911.64062 -897.56662 911.64062 -875.85938 L 911.64062 -84.140625 C 911.64062 -62.433383 894.20724 -45 872.5 -45 L 87.5 -45 C 65.792758 -45 48.359375 -62.433383 48.359375 -84.140625 L 48.359375 -875.85938 C 48.359375 -897.56662 65.792758 -915 87.5 -915 z " />
</svg>
