<?xml version="1.0" encoding="UTF-8" standalone="no"?>
<svg
   height="24px"
   viewBox="0 -960 960 960"
   width="24px"
   fill="#e3e3e3"
   version="1.1"
   id="svg1"
   sodipodi:docname="gears.svg"
   inkscape:version="1.4.2 (ebf0e940, 2025-05-08)"
   xmlns:inkscape="http://www.inkscape.org/namespaces/inkscape"
   xmlns:sodipodi="http://sodipodi.sourceforge.net/DTD/sodipodi-0.dtd"
   xmlns="http://www.w3.org/2000/svg"
   xmlns:svg="http://www.w3.org/2000/svg">
  <defs
     id="defs1" />
  <sodipodi:namedview
     id="namedview1"
     pagecolor="#ffffff"
     bordercolor="#000000"
     borderopacity="0.25"
     inkscape:showpageshadow="2"
     inkscape:pageopacity="0.0"
     inkscape:pagecheckerboard="0"
     inkscape:deskcolor="#d1d1d1"
     inkscape:zoom="22.669034"
     inkscape:cx="0.48524345"
     inkscape:cy="9.7048689"
     inkscape:window-width="1168"
     inkscape:window-height="1027"
     inkscape:window-x="467"
     inkscape:window-y="25"
     inkscape:window-maximized="0"
     inkscape:current-layer="svg1" />
  <path
     d="m 261.90327,-493.38053 -10.6751,-53.37554 c -7.11674,-2.96531 -13.78868,-6.07888 -20.01583,-9.34072 -6.22715,-3.26183 -12.60256,-7.265 -19.12623,-12.00949 l -51.59635,16.01266 -35.58369,-60.49227 40.92125,-35.58369 c -1.18613,-7.7098 -1.77919,-15.4196 -1.77919,-23.12941 0,-7.70979 0.59306,-15.41958 1.77919,-23.12938 l -40.92125,-35.58369 35.58369,-60.49227 51.59635,16.01266 c 6.52367,-4.7445 12.89908,-8.74766 19.12623,-12.0095 6.22715,-3.26184 12.89909,-6.37541 20.01583,-9.34073 l 10.6751,-53.37553 h 71.16738 l 10.67511,53.37553 c 7.11673,2.96532 13.78867,6.07889 20.01582,9.34073 6.22715,3.26184 12.60256,7.265 19.12623,12.0095 l 51.59636,-16.01266 35.58368,60.49227 -40.92124,35.58369 c 1.18613,7.7098 1.77918,15.41959 1.77918,23.12939 0,7.7098 -0.59305,15.4196 -1.77918,23.1294 l 40.92124,35.58369 -35.58368,60.49227 -51.59636,-16.01266 c -6.52367,4.74449 -12.89908,8.74766 -19.12623,12.00949 -6.22715,3.26184 -12.89909,6.37541 -20.01582,9.34072 l -10.67511,53.37554 z m 35.58369,-106.75107 c 19.57103,0 36.32502,-6.96847 50.26196,-20.90542 13.93695,-13.93695 20.90542,-30.69093 20.90542,-50.26197 0,-19.57102 -6.96847,-36.32501 -20.90542,-50.26196 -13.93694,-13.93694 -30.69093,-20.90541 -50.26196,-20.90541 -19.57103,0 -36.32501,6.96848 -50.26196,20.90541 -13.93694,13.93695 -20.90541,30.69093 -20.90541,50.26196 0,19.57103 6.96847,36.32502 20.90541,50.26197 13.93695,13.93695 30.69093,20.90542 50.26196,20.90542 z m 247.5999,489.34903 -16.01266,-74.72575 c -10.08205,-3.55836 -19.42277,-7.85806 -28.02216,-12.89908 -8.5994,-5.04102 -17.05052,-10.82337 -25.35338,-17.34705 l -71.16737,23.12939 -49.81717,-85.40085 56.9339,-49.81716 c -1.18612,-10.6751 -1.77918,-21.35021 -1.77918,-32.02532 0,-10.6751 0.59306,-21.35021 1.77918,-32.02532 l -56.9339,-49.81716 49.81717,-85.40086 71.16737,23.1294 c 8.30286,-6.52367 16.75398,-12.30602 25.35338,-17.34705 8.59939,-5.04102 17.94011,-9.34071 28.02216,-12.89909 l 16.01266,-74.72574 h 99.63432 l 16.01266,74.72575 c 10.08204,3.55837 19.42276,7.85806 28.02216,12.89908 8.59938,5.04103 17.05051,10.82338 25.35338,17.34705 l 71.16737,-23.1294 49.81717,85.40086 -56.93391,49.81716 c 1.18612,10.67511 1.77919,21.35022 1.77919,32.02532 0,10.67511 -0.59307,21.35022 -1.77919,32.02532 l 56.93391,49.81716 -49.81717,85.40085 -71.16737,-23.12939 c -8.30287,6.52368 -16.754,12.30603 -25.35338,17.34705 -8.5994,5.04102 -17.94012,9.34072 -28.02216,12.89908 l -16.01266,74.72575 z m 49.81717,-142.33476 c 29.65306,0 54.85817,-10.37857 75.61534,-31.13572 20.75714,-20.75715 31.13572,-45.96226 31.13572,-75.61534 0,-29.65307 -10.37858,-54.85818 -31.13572,-75.61534 -20.75717,-20.75715 -45.96227,-31.13573 -75.61534,-31.13573 -29.65309,0 -54.8582,10.37858 -75.61535,31.13573 -20.75716,20.75716 -31.13573,45.96227 -31.13573,75.61534 0,29.65308 10.37857,54.85819 31.13573,75.61534 20.75715,20.75715 45.96226,31.13572 75.61535,31.13572 z"
     id="path1"
     style="fill:#000000;stroke-width:0.889592"
     sodipodi:nodetypes="ccsccccsccccsccccsccccsccccscccsssssssssccsccccsccccsccccsccccsccccscccsssssssss" />
  <path
     id="rect3"
     style="fill:#000000;fill-opacity:1;stroke:none;stroke-width:63.8919;stroke-linejoin:round;stroke-opacity:1"
     d="M 75.46875,-960 C 33.6525,-960 0,-926.3475 0,-884.53125 v 809.0625 C 0,-33.6525 33.6525,0 75.46875,0 H 884.5313 C 926.3475,0 960,-33.6525 960,-75.46875 v -809.0625 C 960,-926.3475 926.3475,-960 884.5313,-960 Z M 87.5,-915 h 785 c 21.7075,0 39.1406,17.43313 39.1406,39.14062 V -84.14063 C 911.6406,-62.43313 894.2075,-45 872.5,-45 H 87.5 C 65.7925,-45 48.35937,-62.43313 48.35937,-84.14063 V -875.85938 C 48.35937,-897.56687 65.7925,-915 87.5,-915 Z" />
</svg>
