<?xml version="1.0" encoding="UTF-8" standalone="no"?>
<svg
   height="24px"
   viewBox="0 -960 960 960"
   width="24px"
   fill="#e3e3e3"
   version="1.1"
   id="svg1"
   sodipodi:docname="heart.svg"
   inkscape:version="1.4.2 (ebf0e940, 2025-05-08)"
   xmlns:inkscape="http://www.inkscape.org/namespaces/inkscape"
   xmlns:sodipodi="http://sodipodi.sourceforge.net/DTD/sodipodi-0.dtd"
   xmlns="http://www.w3.org/2000/svg"
   xmlns:svg="http://www.w3.org/2000/svg">
  <defs
     id="defs1" />
  <sodipodi:namedview
     id="namedview1"
     pagecolor="#ffffff"
     bordercolor="#000000"
     borderopacity="0.25"
     inkscape:showpageshadow="2"
     inkscape:pageopacity="0.0"
     inkscape:pagecheckerboard="0"
     inkscape:deskcolor="#d1d1d1"
     inkscape:zoom="16.831672"
     inkscape:cx="6.8026516"
     inkscape:cy="10.337654"
     inkscape:window-width="1920"
     inkscape:window-height="1027"
     inkscape:window-x="0"
     inkscape:window-y="25"
     inkscape:window-maximized="1"
     inkscape:current-layer="svg1" />
  <path
     d="m 480,-150.06702 -52.142,-46.748 q -90.79899,-81.809 -150.13298,-141.14299 -59.334,-59.334 -94.395,-106.53149 -35.061,-47.1975 -48.99549,-86.7535 -13.9345,-39.55599 -13.9345,-80.90999 0,-84.50599 56.63699,-141.14299 56.637,-56.637 141.14299,-56.637 46.748,0 89.001,19.778 42.25299,19.778 72.81899,55.738 30.566,-35.96 72.81899,-55.738 42.253,-19.778 89.001,-19.778 84.50599,0 141.14299,56.637 56.63699,56.637 56.63699,141.14299 0,41.354 -13.9345,80.90999 -13.93449,39.556 -48.99549,86.7535 -35.061,47.19749 -94.395,106.53149 -59.33399,59.33399 -150.13298,141.14299 z m 0,-97.092 q 86.30399,-77.31399 142.04199,-132.60249 55.738,-55.28849 88.10199,-96.19299 32.364,-40.9045 44.95,-72.81899 12.586,-31.9145 12.586,-63.3795 0,-53.94 -35.96,-89.89999 -35.96,-35.96 -89.89999,-35.96 -42.253,0 -78.213,23.8235 -35.95999,23.8235 -49.44499,60.68249 h -68.324 q -13.485,-36.85899 -49.44499,-60.68249 -35.96,-23.8235 -78.213,-23.8235 -53.93999,0 -89.89999,35.96 -35.96,35.95999 -35.96,89.89999 0,31.465 12.586,63.3795 12.586,31.91449 44.95,72.81899 32.36399,40.9045 88.10199,96.19299 55.738,55.2885 142.04199,132.60249 z m 0,-245.42698 z"
     id="path1"
     style="fill:#000000;stroke-width:0.899" />
  <path
     id="rect3"
     style="fill:#000000;fill-opacity:1;stroke:none;stroke-width:63.8919;stroke-linejoin:round;stroke-opacity:1"
     d="M 75.46875,-960 C 33.6525,-960 0,-926.3475 0,-884.53125 v 809.0625 C 0,-33.6525 33.6525,0 75.46875,0 H 884.5313 C 926.3475,0 960,-33.6525 960,-75.46875 v -809.0625 C 960,-926.3475 926.3475,-960 884.5313,-960 Z M 87.5,-915 h 785 c 21.7075,0 39.1406,17.43313 39.1406,39.14063 V -84.14063 C 911.6406,-62.43313 894.2075,-45 872.5,-45 H 87.5 C 65.7925,-45 48.35937,-62.43313 48.35937,-84.14063 V -875.85937 C 48.35937,-897.56687 65.7925,-915 87.5,-915 Z" />
</svg>
