<?xml version="1.0" encoding="UTF-8" standalone="no"?>
<svg
   height="24px"
   viewBox="0 -960 960 960"
   width="24px"
   fill="#e3e3e3"
   version="1.1"
   id="svg1"
   sodipodi:docname="icon-hex.svg"
   inkscape:version="1.4.2 (ebf0e940, 2025-05-08)"
   xmlns:inkscape="http://www.inkscape.org/namespaces/inkscape"
   xmlns:sodipodi="http://sodipodi.sourceforge.net/DTD/sodipodi-0.dtd"
   xmlns="http://www.w3.org/2000/svg"
   xmlns:svg="http://www.w3.org/2000/svg">
  <defs
     id="defs1" />
  <sodipodi:namedview
     id="namedview1"
     pagecolor="#ffffff"
     bordercolor="#000000"
     borderopacity="0.25"
     inkscape:showpageshadow="2"
     inkscape:pageopacity="0.0"
     inkscape:pagecheckerboard="0"
     inkscape:deskcolor="#d1d1d1"
     inkscape:zoom="35.583333"
     inkscape:cx="13.461358"
     inkscape:cy="12"
     inkscape:window-width="1920"
     inkscape:window-height="1027"
     inkscape:window-x="0"
     inkscape:window-y="25"
     inkscape:window-maximized="1"
     inkscape:current-layer="svg1" />
  <path
     id="icon-hex"
     style="fill:#000000;stroke-width:0.90537"
     d="M 75.46875 -960 C 33.65255 -960 1.1842379e-14 -926.3475 0 -884.53125 L 0 -75.46875 C 0 -33.65246 33.65255 1.1368684e-13 75.46875 0 L 884.53125 0 C 926.34754 0 960 -33.65246 960 -75.46875 L 960 -884.53125 C 960 -926.3475 926.34754 -960 884.53125 -960 L 75.46875 -960 z M 87.5 -915 L 872.5 -915 C 894.20724 -915 911.64062 -897.56662 911.64062 -875.85938 L 911.64062 -84.140625 C 911.64062 -62.433385 894.20724 -45 872.5 -45 L 87.5 -45 C 65.7928 -45 48.359375 -62.433385 48.359375 -84.140625 L 48.359375 -875.85938 C 48.359375 -897.56662 65.7928 -915 87.5 -915 z M 479.84375 -856.40625 L 153.82812 -668.28125 L 153.98438 -291.875 L 480.15625 -103.59375 L 806.17188 -291.71875 L 806.01562 -668.125 L 479.84375 -856.40625 z M 479.76562 -772.89062 L 733.75 -626.17188 L 733.28125 -333.75 L 480.23438 -187.10938 L 226.25 -333.82812 L 225.9375 -626.64062 L 479.76562 -772.89062 z "
     inkscape:label="icon-hex" />
</svg>
