<?xml version="1.0" encoding="UTF-8" standalone="no"?>
<svg
   height="24px"
   viewBox="0 -960 960 960"
   width="24px"
   fill="#e3e3e3"
   version="1.1"
   id="svg1"
   sodipodi:docname="icon-recruit.svg"
   inkscape:version="1.4.2 (ebf0e940, 2025-05-08)"
   xmlns:inkscape="http://www.inkscape.org/namespaces/inkscape"
   xmlns:sodipodi="http://sodipodi.sourceforge.net/DTD/sodipodi-0.dtd"
   xmlns="http://www.w3.org/2000/svg"
   xmlns:svg="http://www.w3.org/2000/svg">
  <defs
     id="defs1" />
  <sodipodi:namedview
     id="namedview1"
     pagecolor="#ffffff"
     bordercolor="#000000"
     borderopacity="0.25"
     inkscape:showpageshadow="2"
     inkscape:pageopacity="0.0"
     inkscape:pagecheckerboard="0"
     inkscape:deskcolor="#d1d1d1"
     inkscape:zoom="21.47068"
     inkscape:cx="8.2438004"
     inkscape:cy="13.972543"
     inkscape:window-width="1424"
     inkscape:window-height="1027"
     inkscape:window-x="339"
     inkscape:window-y="33"
     inkscape:window-maximized="0"
     inkscape:current-layer="svg1" />
  <path
     id="icon-recruit"
     style="fill:#000000"
     d="M 75.46875 -960 C 33.65246 -960 0 -926.34754 0 -884.53125 L 0 -75.46875 C 0 -33.652456 33.65246 -1.1368684e-13 75.46875 0 L 884.53125 0 C 926.34745 0 960 -33.652456 960 -75.46875 L 960 -884.53125 C 960 -926.34754 926.34745 -960 884.53125 -960 L 75.46875 -960 z M 87.5 -915 L 872.5 -915 C 894.2072 -915 911.64062 -897.56662 911.64062 -875.85938 L 911.64062 -84.140625 C 911.64062 -62.433383 894.2072 -45 872.5 -45 L 87.5 -45 C 65.79276 -45 48.359375 -62.433383 48.359375 -84.140625 L 48.359375 -875.85938 C 48.359375 -897.56662 65.79276 -915 87.5 -915 z M 280 -880 L 280 -566.01562 C 280 -550.68229 283.33333 -537 290 -525 C 296.66667 -513 305.96875 -503.34896 317.96875 -496.01562 L 460 -412.03125 L 432.03125 -320 L 280 -320 L 403.98438 -232.03125 L 356.01562 -80 L 480 -173.98438 L 603.98438 -80 L 556.01562 -232.03125 L 680 -320 L 527.96875 -320 L 500 -412.03125 L 642.03125 -496.01562 C 654.03125 -503.34896 663.33333 -513 670 -525 C 676.66667 -537 680 -550.68229 680 -566.01562 L 680 -880 L 280 -880 z M 360 -800 L 440 -800 L 440 -517.96875 L 360 -566.01562 L 360 -800 z M 520 -800 L 600 -800 L 600 -566.01562 L 520 -517.96875 L 520 -800 z "
     inkscape:label="icon-recruit" />
</svg>
