<?xml version="1.0" encoding="UTF-8" standalone="no"?>
<svg
   height="24px"
   viewBox="0 -960 960 960"
   width="24px"
   fill="#e3e3e3"
   version="1.1"
   id="svg1"
   sodipodi:docname="icon-move.svg"
   inkscape:version="1.4.2 (ebf0e940, 2025-05-08)"
   xmlns:inkscape="http://www.inkscape.org/namespaces/inkscape"
   xmlns:sodipodi="http://sodipodi.sourceforge.net/DTD/sodipodi-0.dtd"
   xmlns="http://www.w3.org/2000/svg"
   xmlns:svg="http://www.w3.org/2000/svg">
  <defs
     id="defs1" />
  <sodipodi:namedview
     id="namedview1"
     pagecolor="#ffffff"
     bordercolor="#000000"
     borderopacity="0.25"
     inkscape:showpageshadow="2"
     inkscape:pageopacity="0.0"
     inkscape:pagecheckerboard="0"
     inkscape:deskcolor="#d1d1d1"
     inkscape:zoom="16.831672"
     inkscape:cx="7.4858873"
     inkscape:cy="11.822949"
     inkscape:window-width="1920"
     inkscape:window-height="1027"
     inkscape:window-x="0"
     inkscape:window-y="25"
     inkscape:window-maximized="1"
     inkscape:current-layer="svg1" />
  <path
     id="icon-move"
     style="fill:#000000;stroke-width:0.940588"
     d="M 75.46875 -960 C 33.65246 -960 0 -926.34754 0 -884.53125 L 0 -75.46875 C 0 -33.65246 33.65246 1.1368684e-13 75.46875 0 L 884.53125 0 C 926.34745 0 960 -33.65246 960 -75.46875 L 960 -884.53125 C 960 -926.34754 926.34745 -960 884.53125 -960 L 75.46875 -960 z M 87.5 -915 L 872.5 -915 C 894.2072 -915 911.64062 -897.56662 911.64062 -875.85938 L 911.64062 -84.140625 C 911.64062 -62.433375 894.2072 -45 872.5 -45 L 87.5 -45 C 65.79276 -45 48.359375 -62.433375 48.359375 -84.140625 L 48.359375 -875.85938 C 48.359375 -897.56662 65.79276 -915 87.5 -915 z M 548.28125 -876.79688 C 527.58831 -876.79688 509.89213 -869.42338 495.15625 -854.6875 C 480.42036 -839.95162 473.04688 -822.25544 473.04688 -801.5625 C 473.04687 -780.86956 480.42036 -763.17338 495.15625 -748.4375 C 509.89213 -733.70161 527.58831 -726.32812 548.28125 -726.32812 C 568.97419 -726.32812 586.7485 -733.70161 601.48438 -748.4375 C 616.22026 -763.17338 623.59375 -780.86956 623.59375 -801.5625 C 623.59375 -822.25544 616.22026 -839.95162 601.48438 -854.6875 C 586.74849 -869.42338 568.97419 -876.79688 548.28125 -876.79688 z M 491.875 -707.5 C 483.09617 -707.5 473.54959 -706.10302 463.20312 -703.28125 C 452.85665 -700.45949 436.71268 -694.32776 414.76562 -684.92188 L 266.17188 -621.01562 L 266.17188 -444.14062 L 341.40625 -444.14062 L 341.40625 -572.10938 L 409.14062 -598.4375 L 348.90625 -293.67188 L 168.28125 -331.25 L 153.28125 -256.01562 L 412.89062 -203.35938 L 450.46875 -368.90625 L 529.53125 -293.67188 L 529.53125 -67.890625 L 604.76562 -67.890625 L 604.76562 -350.07812 L 525.78125 -425.3125 L 548.28125 -538.20312 C 572.73654 -509.98548 603.00662 -487.24411 639.0625 -470 C 675.11838 -452.75588 713.84849 -444.14062 755.23438 -444.14062 L 755.23438 -519.375 C 719.49203 -519.375 687.66975 -527.83504 659.76562 -544.76562 C 631.86151 -561.69621 609.74103 -583.35103 593.4375 -609.6875 L 555.85938 -669.92188 C 548.96172 -681.20894 539.8808 -690.28985 528.59375 -697.1875 C 517.30669 -704.08515 505.04323 -707.5 491.875 -707.5 z "
     inkscape:label="icon-move" />
</svg>
