<?xml version="1.0" encoding="UTF-8" standalone="no"?>
<svg
   height="24px"
   viewBox="0 -960 960 960"
   width="24px"
   fill="#e3e3e3"
   version="1.1"
   id="svg1"
   sodipodi:docname="icon-fight.svg"
   inkscape:version="1.4.2 (ebf0e940, 2025-05-08)"
   xmlns:inkscape="http://www.inkscape.org/namespaces/inkscape"
   xmlns:sodipodi="http://sodipodi.sourceforge.net/DTD/sodipodi-0.dtd"
   xmlns="http://www.w3.org/2000/svg"
   xmlns:svg="http://www.w3.org/2000/svg">
  <defs
     id="defs1" />
  <sodipodi:namedview
     id="namedview1"
     pagecolor="#ffffff"
     bordercolor="#000000"
     borderopacity="0.25"
     inkscape:showpageshadow="2"
     inkscape:pageopacity="0.0"
     inkscape:pagecheckerboard="0"
     inkscape:deskcolor="#d1d1d1"
     inkscape:zoom="5.1248164"
     inkscape:cx="-33.17192"
     inkscape:cy="7.7075932"
     inkscape:window-width="1408"
     inkscape:window-height="790"
     inkscape:window-x="245"
     inkscape:window-y="25"
     inkscape:window-maximized="0"
     inkscape:current-layer="svg1" />
  <path
     id="icon-fight"
     style="fill:#000000"
     d="M 75.4687,-960 C 33.6525,-960 0,-926.34754 0,-884.53125 v 809.0625 C 0,-33.652456 33.6525,0 75.4687,0 H 884.53125 C 926.34754,0 960,-33.652456 960,-75.46875 v -809.0625 C 960,-926.34754 926.34754,-960 884.53125,-960 Z M 87.5,-915 h 785 c 21.70724,0 39.14062,17.43338 39.14062,39.14062 V -84.140625 C 911.64062,-62.433383 894.20724,-45 872.5,-45 H 87.5 C 65.7928,-45 48.3594,-62.433383 48.3594,-84.140625 V -875.85938 C 48.3594,-897.56662 65.7928,-915 87.5,-915 Z m -7.5,31.01562 v 160 l 197.9687,197.96876 56.0157,-56.95313 L 160,-757.03125 v -46.95313 h 47.0312 L 381.0156,-630 437.9687,-686.01562 240,-883.98438 Z m 640,0 L 266.0156,-430 l -3.9844,-5 c -15.3333,-15.33333 -34.3645,-22.96875 -57.0312,-22.96875 -22.6667,0 -41.6979,7.63542 -57.0313,22.96875 L 120,-407.03125 l 87.9687,88.04687 -115.9375,116.95313 c -8,8 -12.0312,17.38021 -12.0312,28.04687 0,10.66667 4.0312,19.96876 12.0312,27.96876 l 50,49.999995 c 8,8 17.3021,12.03125 27.9688,12.03125 10.6667,0 19.9687,-4.03125 27.9687,-12.03125 L 315,-212.03125 l 87.9687,88.04687 28.0469,-28.04687 c 15.3334,-15.33333 22.9688,-34.28646 22.9688,-56.95313 0,-22.66666 -7.6354,-41.69791 -22.9688,-57.03124 L 426.0156,-270 880,-723.98438 v -160 z m 32.96875,80 H 800 v 46.95313 l -430,430 -47.0313,-46.95313 z M 755,-457.96875 c -22.66667,0 -41.69792,7.63542 -57.03125,22.96875 L 528.9844,-266.01562 c -15.3334,15.33333 -22.9688,34.36458 -22.9688,57.03124 0,22.66667 7.6354,41.6198 22.9688,56.95313 l 28.0468,28.04687 L 645,-212.03125 762.03125,-96.015625 c 8,8 17.30208,12.03125 27.96875,12.03125 10.66667,0 19.96875,-4.03125 27.96875,-12.03125 l 50,-49.999995 c 8,-8 12.03125,-17.30209 12.03125,-27.96876 0,-10.66666 -4.03125,-20.04687 -12.03125,-28.04687 L 752.03125,-318.98438 840,-407.03125 812.03125,-435 C 796.69792,-450.33333 777.66667,-457.96875 755,-457.96875 Z"
     inkscape:label="icon-fight" />
</svg>
