<?xml version="1.0" encoding="UTF-8" standalone="no"?>
<svg
   height="24px"
   viewBox="0 -960 960 960"
   width="24px"
   fill="#e8eaed"
   version="1.1"
   id="svg1"
   sodipodi:docname="icon-worker.svg"
   inkscape:version="1.4.2 (ebf0e940, 2025-05-08)"
   xmlns:inkscape="http://www.inkscape.org/namespaces/inkscape"
   xmlns:sodipodi="http://sodipodi.sourceforge.net/DTD/sodipodi-0.dtd"
   xmlns="http://www.w3.org/2000/svg"
   xmlns:svg="http://www.w3.org/2000/svg">
  <defs
     id="defs1" />
  <sodipodi:namedview
     id="namedview1"
     pagecolor="#ffffff"
     bordercolor="#000000"
     borderopacity="0.25"
     inkscape:showpageshadow="2"
     inkscape:pageopacity="0.0"
     inkscape:pagecheckerboard="0"
     inkscape:deskcolor="#d1d1d1"
     inkscape:zoom="21.47068"
     inkscape:cx="11.154747"
     inkscape:cy="14.251994"
     inkscape:window-width="1920"
     inkscape:window-height="1027"
     inkscape:window-x="0"
     inkscape:window-y="25"
     inkscape:window-maximized="1"
     inkscape:current-layer="svg1" />
  <path
     id="icon-worker"
     style="fill:#000000;stroke-width:1.07088"
     d="M 75.46875 -960 C 33.6525 -960 0 -926.34745 0 -884.53125 L 0 -75.46875 C 0 -33.6525 33.6525 0 75.46875 0 L 884.53125 0 C 926.3474 0 960 -33.6525 960 -75.46875 L 960 -884.53125 C 960 -926.34745 926.3474 -960 884.53125 -960 L 75.46875 -960 z M 87.5 -915 L 872.5 -915 C 894.2075 -915 911.64062 -897.56687 911.64062 -875.85938 L 911.64062 -84.140625 C 911.64062 -62.433135 894.2075 -45 872.5 -45 L 87.5 -45 C 65.7925 -45 48.359375 -62.433135 48.359375 -84.140625 L 48.359375 -875.85938 C 48.359375 -897.56687 65.7925 -915 87.5 -915 z M 480 -844.0625 C 472.14686 -844.0625 464.63923 -843.57089 457.5 -842.5 C 450.36079 -841.42913 443.61279 -839.79802 437.1875 -837.65625 L 437.1875 -779.84375 C 437.1875 -773.41847 435.17657 -768.22344 431.25 -764.29688 C 427.32344 -760.37032 422.20654 -758.4375 415.78125 -758.4375 C 409.35596 -758.4375 404.16093 -760.37032 400.23438 -764.29688 C 396.3078 -768.22344 394.29688 -773.41847 394.29688 -779.84375 L 394.29688 -820.54688 C 368.59571 -805.55451 347.89377 -785.23243 332.1875 -759.53125 C 316.48123 -733.83007 308.67188 -704.86083 308.67188 -672.73438 L 297.96875 -672.73438 C 291.54346 -672.73438 286.34845 -670.80155 282.42188 -666.875 C 278.49532 -662.94844 276.5625 -657.75341 276.5625 -651.32812 C 276.5625 -644.90283 278.49532 -639.70782 282.42188 -635.78125 C 286.34844 -631.85468 291.54346 -629.92188 297.96875 -629.92188 L 308.67188 -629.92188 C 308.67187 -582.80306 325.43006 -542.46056 358.98438 -508.90625 C 392.5387 -475.35193 432.88118 -458.59375 480 -458.59375 C 527.11882 -458.59375 567.46132 -475.35193 601.01562 -508.90625 C 634.56994 -542.46057 651.32812 -582.80305 651.32812 -629.92188 L 662.03125 -629.92188 C 668.45654 -629.92188 673.65157 -631.85469 677.57812 -635.78125 C 681.5047 -639.70782 683.4375 -644.90283 683.4375 -651.32812 C 683.4375 -657.7534 681.50469 -662.94844 677.57812 -666.875 C 673.65156 -670.80157 668.45654 -672.73438 662.03125 -672.73438 L 651.32812 -672.73438 C 651.32813 -704.86083 643.51878 -733.83007 627.8125 -759.53125 C 612.10623 -785.23243 591.4043 -805.55452 565.70312 -820.54688 L 565.70312 -779.84375 C 565.70312 -773.41847 563.69218 -768.22344 559.76562 -764.29688 C 555.83905 -760.37032 550.64405 -758.4375 544.21875 -758.4375 C 537.79346 -758.4375 532.67656 -760.37032 528.75 -764.29688 C 524.82343 -768.22344 522.8125 -773.41847 522.8125 -779.84375 L 522.8125 -837.65625 C 516.38721 -839.79802 509.63921 -841.42913 502.5 -842.5 C 495.36077 -843.57089 487.85313 -844.0625 480 -844.0625 z M 394.29688 -629.92188 L 565.70312 -629.92188 C 565.70312 -606.36247 557.2459 -586.23028 540.46875 -569.45312 C 523.6916 -552.67597 503.55941 -544.21875 480 -544.21875 C 456.44059 -544.21875 436.3084 -552.67597 419.53125 -569.45312 C 402.75409 -586.23028 394.29688 -606.36247 394.29688 -629.92188 z M 480 -415.78125 C 425.02804 -415.78125 374.67536 -409.33497 328.98438 -396.48438 C 283.2934 -383.63378 242.26936 -367.93696 205.85938 -349.375 C 184.44173 -338.66618 167.68353 -322.96935 155.54688 -302.26562 C 143.41021 -281.5619 137.34375 -259.41878 137.34375 -235.85938 L 137.34375 -115.9375 L 822.65625 -115.9375 L 822.65625 -235.85938 C 822.65625 -259.41877 816.58979 -281.56189 804.45312 -302.26562 C 792.31648 -322.96935 775.55827 -338.66618 754.14062 -349.375 C 717.73064 -367.93696 676.7066 -383.63378 631.01562 -396.48438 C 585.32464 -409.33497 534.97195 -415.78125 480 -415.78125 z M 480 -330.07812 C 530.68843 -330.07812 576.22594 -323.63183 616.5625 -310.78125 C 656.89907 -297.93066 689.92383 -285.11621 715.625 -272.26562 C 722.05029 -268.69601 727.16719 -263.69091 731.09375 -257.26562 C 735.02032 -250.84033 737.03125 -243.71251 737.03125 -235.85938 L 737.03125 -201.5625 L 222.96875 -201.5625 L 222.96875 -235.85938 C 222.96875 -243.71252 224.97968 -250.84033 228.90625 -257.26562 C 232.83281 -263.69091 237.94971 -268.69601 244.375 -272.26562 C 270.07617 -285.11621 303.10093 -297.93066 343.4375 -310.78125 C 383.77406 -323.63183 429.31156 -330.07812 480 -330.07812 z "
     inkscape:label="icon-worker" />
</svg>
