<?xml version="1.0" encoding="UTF-8" standalone="no"?>
<svg
   height="24px"
   viewBox="0 -960 960 960"
   width="24px"
   fill="#e3e3e3"
   version="1.1"
   id="svg1"
   sodipodi:docname="icon-coin.svg"
   inkscape:version="1.4.2 (ebf0e940, 2025-05-08)"
   xmlns:inkscape="http://www.inkscape.org/namespaces/inkscape"
   xmlns:sodipodi="http://sodipodi.sourceforge.net/DTD/sodipodi-0.dtd"
   xmlns="http://www.w3.org/2000/svg"
   xmlns:svg="http://www.w3.org/2000/svg">
  <defs
     id="defs1" />
  <sodipodi:namedview
     id="namedview1"
     pagecolor="#ffffff"
     bordercolor="#000000"
     borderopacity="0.25"
     inkscape:showpageshadow="2"
     inkscape:pageopacity="0.0"
     inkscape:pagecheckerboard="0"
     inkscape:deskcolor="#d1d1d1"
     inkscape:zoom="13.068534"
     inkscape:cx="1.3008345"
     inkscape:cy="18.135163"
     inkscape:window-width="1712"
     inkscape:window-height="845"
     inkscape:window-x="61"
     inkscape:window-y="124"
     inkscape:window-maximized="0"
     inkscape:current-layer="svg1" />
  <path
     id="icon-coin"
     style="fill:#000000"
     inkscape:label="icon-coin"
     d="M 75.4687,-960 C 33.6525,-960 0,-926.34754 0,-884.53125 v 809.0625 C 0,-33.652456 33.6525,0 75.4687,0 H 884.5312 C 926.3475,0 960,-33.652456 960,-75.46875 v -809.0625 C 960,-926.34754 926.3475,-960 884.5312,-960 Z M 87.5,-915 h 785 c 21.7072,0 39.1406,17.43338 39.1406,39.14062 V -84.140625 C 911.6406,-62.433383 894.2072,-45 872.5,-45 H 87.5 C 65.7928,-45 48.3594,-62.433383 48.3594,-84.140625 V -875.85938 C 48.3594,-897.56662 65.7928,-915 87.5,-915 Z m 392.5,59.84375 c -206.7193,0 -375.1563,168.43699 -375.1563,375.15625 0,206.71926 168.437,375.15625 375.1563,375.15625 206.7193,0 375.1562,-168.43699 375.1562,-375.15625 0,-206.71926 -168.4369,-375.15625 -375.1562,-375.15625 z m 0,80 c 163.484,0 295.1562,131.6722 295.1562,295.15625 0,163.48405 -131.6722,295.15625 -295.1562,295.15625 -163.4841,0 -295.1563,-131.6722 -295.1563,-295.15625 0,-163.48405 131.6722,-295.15625 295.1563,-295.15625 z m -92.5,109.14063 v 63.67187 h 54.5312 v 244.6875 h -51.0937 v 63.67187 h 189.6094 v -63.67187 h -47.8907 v -308.35937 z" />
</svg>
