<?xml version="1.0" encoding="UTF-8" standalone="no"?>
<svg
   height="24px"
   viewBox="0 -960 960 960"
   width="24px"
   fill="#e3e3e3"
   version="1.1"
   id="svg1"
   sodipodi:docname="icon-heart.svg"
   inkscape:version="1.4.2 (ebf0e940, 2025-05-08)"
   xmlns:inkscape="http://www.inkscape.org/namespaces/inkscape"
   xmlns:sodipodi="http://sodipodi.sourceforge.net/DTD/sodipodi-0.dtd"
   xmlns="http://www.w3.org/2000/svg"
   xmlns:svg="http://www.w3.org/2000/svg">
  <defs
     id="defs1" />
  <sodipodi:namedview
     id="namedview1"
     pagecolor="#ffffff"
     bordercolor="#000000"
     borderopacity="0.25"
     inkscape:showpageshadow="2"
     inkscape:pageopacity="0.0"
     inkscape:pagecheckerboard="0"
     inkscape:deskcolor="#d1d1d1"
     inkscape:zoom="16.831672"
     inkscape:cx="6.7729457"
     inkscape:cy="10.337654"
     inkscape:window-width="1920"
     inkscape:window-height="1027"
     inkscape:window-x="0"
     inkscape:window-y="25"
     inkscape:window-maximized="1"
     inkscape:current-layer="svg1" />
  <path
     id="icon-heart"
     style="fill:#000000;stroke-width:0.899"
     d="M 75.46875 -960 C 33.6525 -960 0 -926.3475 0 -884.53125 L 0 -75.46875 C 0 -33.6525 33.6525 0 75.46875 0 L 884.53125 0 C 926.34745 0 960 -33.6525 960 -75.46875 L 960 -884.53125 C 960 -926.3475 926.34745 -960 884.53125 -960 L 75.46875 -960 z M 87.5 -915 L 872.5 -915 C 894.2075 -915 911.64062 -897.56687 911.64062 -875.85938 L 911.64062 -84.140625 C 911.64062 -62.433125 894.2075 -45 872.5 -45 L 87.5 -45 C 65.7925 -45 48.359375 -62.433125 48.359375 -84.140625 L 48.359375 -875.85938 C 48.359375 -897.56687 65.7925 -915 87.5 -915 z M 318.20312 -809.92188 C 261.8658 -809.92188 214.78925 -791.03925 177.03125 -753.28125 C 139.27326 -715.52325 120.39063 -668.52483 120.39062 -612.1875 C 120.39062 -584.61817 125.00721 -557.62066 134.29688 -531.25 C 143.58653 -504.87933 159.98538 -475.91812 183.35938 -444.45312 C 206.73337 -412.98813 238.17837 -377.52475 277.73438 -337.96875 C 317.29037 -298.41276 367.35797 -251.33621 427.89062 -196.79688 L 480 -150.07812 L 532.10938 -196.79688 C 592.64203 -251.33621 642.70963 -298.41276 682.26562 -337.96875 C 721.82163 -377.52475 753.26663 -412.98813 776.64062 -444.45312 C 800.01463 -475.91812 816.41346 -504.87933 825.70312 -531.25 C 834.99279 -557.62066 839.60938 -584.61817 839.60938 -612.1875 C 839.60937 -668.52483 820.72674 -715.52325 782.96875 -753.28125 C 745.21075 -791.03925 698.1342 -809.92188 641.79688 -809.92188 C 610.63154 -809.92188 580.98117 -803.34158 552.8125 -790.15625 C 524.64384 -776.97092 500.37733 -758.42646 480 -734.45312 C 459.62267 -758.42646 435.35616 -776.97092 407.1875 -790.15625 C 379.01883 -803.34158 349.36846 -809.92188 318.20312 -809.92188 z M 318.20312 -738.04688 C 346.37179 -738.04688 372.43292 -730.10108 396.40625 -714.21875 C 420.37958 -698.33642 436.86937 -678.08829 445.85938 -653.51562 L 514.14062 -653.51562 C 523.13063 -678.08829 539.62042 -698.33642 563.59375 -714.21875 C 587.56708 -730.10108 613.62821 -738.04688 641.79688 -738.04688 C 677.75687 -738.04688 707.74542 -726.00458 731.71875 -702.03125 C 755.69208 -678.05792 767.65625 -648.1475 767.65625 -612.1875 C 767.65625 -591.21083 763.46879 -570.02633 755.07812 -548.75 C 746.68746 -527.47367 731.73225 -503.20717 710.15625 -475.9375 C 688.58026 -448.66783 659.18992 -416.62462 622.03125 -379.76562 C 584.87258 -342.90663 537.53599 -298.73016 480 -247.1875 C 422.46401 -298.73016 375.12742 -342.90662 337.96875 -379.76562 C 300.81008 -416.62462 271.41974 -448.66783 249.84375 -475.9375 C 228.26775 -503.20717 213.31254 -527.47367 204.92188 -548.75 C 196.53121 -570.02633 192.34375 -591.21083 192.34375 -612.1875 C 192.34375 -648.1475 204.30792 -678.05792 228.28125 -702.03125 C 252.25458 -726.00458 282.24313 -738.04688 318.20312 -738.04688 z "
     inkscape:label="icon-heart" />
</svg>
