<?xml version="1.0" encoding="UTF-8" standalone="no"?>
<svg
   height="24px"
   viewBox="0 -960 960 960"
   width="24px"
   fill="#e3e3e3"
   version="1.1"
   id="svg1"
   sodipodi:docname="icon-gears.svg"
   inkscape:version="1.4.2 (ebf0e940, 2025-05-08)"
   xmlns:inkscape="http://www.inkscape.org/namespaces/inkscape"
   xmlns:sodipodi="http://sodipodi.sourceforge.net/DTD/sodipodi-0.dtd"
   xmlns="http://www.w3.org/2000/svg"
   xmlns:svg="http://www.w3.org/2000/svg">
  <defs
     id="defs1" />
  <sodipodi:namedview
     id="namedview1"
     pagecolor="#ffffff"
     bordercolor="#000000"
     borderopacity="0.25"
     inkscape:showpageshadow="2"
     inkscape:pageopacity="0.0"
     inkscape:pagecheckerboard="0"
     inkscape:deskcolor="#d1d1d1"
     inkscape:zoom="22.669034"
     inkscape:cx="0.48524345"
     inkscape:cy="9.7048689"
     inkscape:window-width="1920"
     inkscape:window-height="1027"
     inkscape:window-x="0"
     inkscape:window-y="25"
     inkscape:window-maximized="1"
     inkscape:current-layer="svg1" />
  <path
     id="icon-gears"
     style="fill:#000000;stroke-width:0.889592"
     d="M 75.46875 -960 C 33.6525 -960 0 -926.3475 0 -884.53125 L 0 -75.46875 C 0 -33.6525 33.6525 0 75.46875 0 L 884.53125 0 C 926.34745 0 960 -33.6525 960 -75.46875 L 960 -884.53125 C 960 -926.3475 926.34745 -960 884.53125 -960 L 75.46875 -960 z M 87.5 -915 L 872.5 -915 C 894.2075 -915 911.64062 -897.56687 911.64062 -875.85938 L 911.64062 -84.140625 C 911.64062 -62.433125 894.2075 -45 872.5 -45 L 87.5 -45 C 65.7925 -45 48.359375 -62.433125 48.359375 -84.140625 L 48.359375 -875.85938 C 48.359375 -897.56687 65.7925 -915 87.5 -915 z M 261.875 -849.21875 L 251.25 -795.85938 C 244.13326 -792.89405 237.47715 -789.74622 231.25 -786.48438 C 225.02285 -783.22253 218.63305 -779.19763 212.10938 -774.45312 L 160.46875 -790.46875 L 124.92188 -730 L 165.85938 -694.45312 C 164.67325 -686.74333 164.0625 -679.03792 164.0625 -671.32812 C 164.0625 -663.61831 164.67325 -655.91292 165.85938 -648.20312 L 124.92188 -612.57812 L 160.46875 -552.10938 L 212.10938 -568.125 C 218.63305 -563.38051 225.02285 -559.35558 231.25 -556.09375 C 237.47715 -552.83191 244.13326 -549.68406 251.25 -546.71875 L 261.875 -493.35938 L 333.04688 -493.35938 L 343.75 -546.71875 C 350.86673 -549.68406 357.52285 -552.83191 363.75 -556.09375 C 369.97715 -559.35558 376.36696 -563.38051 382.89062 -568.125 L 434.45312 -552.10938 L 470.07812 -612.57812 L 429.14062 -648.20312 C 430.32676 -655.91293 430.9375 -663.61832 430.9375 -671.32812 C 430.9375 -679.03793 430.32675 -686.74333 429.14062 -694.45312 L 470.07812 -730 L 434.45312 -790.46875 L 382.89062 -774.45312 C 376.36696 -779.19763 369.97715 -783.22253 363.75 -786.48438 C 357.52285 -789.74622 350.86673 -792.89405 343.75 -795.85938 L 333.04688 -849.21875 L 261.875 -849.21875 z M 297.5 -742.5 C 317.07103 -742.5 333.79744 -735.49944 347.73438 -721.5625 C 361.67132 -707.62555 368.67188 -690.89915 368.67188 -671.32812 C 368.67188 -651.75708 361.67133 -634.95258 347.73438 -621.01562 C 333.79744 -607.07868 317.07103 -600.15625 297.5 -600.15625 C 277.92897 -600.15625 261.12445 -607.07867 247.1875 -621.01562 C 233.25056 -634.95257 226.32812 -651.7571 226.32812 -671.32812 C 226.32813 -690.89916 233.25056 -707.62555 247.1875 -721.5625 C 261.12445 -735.49943 277.92897 -742.5 297.5 -742.5 z M 545.07812 -608.98438 L 529.0625 -534.21875 C 518.98045 -530.66037 509.61501 -526.36914 501.01562 -521.32812 C 492.41623 -516.2871 484.00599 -510.50804 475.70312 -503.98438 L 404.53125 -527.10938 L 354.6875 -441.71875 L 411.64062 -391.875 C 410.4545 -381.19989 409.84375 -370.51885 409.84375 -359.84375 C 409.84375 -349.16864 410.4545 -338.4876 411.64062 -327.8125 L 354.6875 -278.04688 L 404.53125 -192.65625 L 475.70312 -215.78125 C 484.00598 -209.25757 492.41622 -203.47852 501.01562 -198.4375 C 509.61501 -193.39648 518.98045 -189.10523 529.0625 -185.54688 L 545.07812 -110.78125 L 644.6875 -110.78125 L 660.70312 -185.54688 C 670.78517 -189.10524 680.1506 -193.39648 688.75 -198.4375 C 697.34938 -203.47852 705.83776 -209.25757 714.14062 -215.78125 L 785.3125 -192.65625 L 835.07812 -278.04688 L 778.125 -327.8125 C 779.31112 -338.4876 779.92188 -349.16864 779.92188 -359.84375 C 779.92187 -370.51885 779.31112 -381.19989 778.125 -391.875 L 835.07812 -441.71875 L 785.3125 -527.10938 L 714.14062 -503.98438 C 705.83775 -510.50805 697.34938 -516.2871 688.75 -521.32812 C 680.1506 -526.36914 670.78516 -530.66038 660.70312 -534.21875 L 644.6875 -608.98438 L 545.07812 -608.98438 z M 594.92188 -466.64062 C 624.57494 -466.64062 649.78971 -456.2259 670.54688 -435.46875 C 691.30402 -414.71159 701.64062 -389.49682 701.64062 -359.84375 C 701.64062 -330.19067 691.30402 -304.9759 670.54688 -284.21875 C 649.78971 -263.4616 624.57493 -253.125 594.92188 -253.125 C 565.26878 -253.125 540.05403 -263.4616 519.29688 -284.21875 C 498.53972 -304.9759 488.125 -330.19067 488.125 -359.84375 C 488.125 -389.49682 498.53972 -414.71159 519.29688 -435.46875 C 540.05403 -456.2259 565.26878 -466.64062 594.92188 -466.64062 z "
     inkscape:label="icon-gears" />
</svg>
