<?xml version="1.0" encoding="UTF-8" standalone="no"?>
<svg
   height="24px"
   viewBox="0 -960 960 960"
   width="24px"
   fill="#e3e3e3"
   version="1.1"
   id="svg1"
   sodipodi:docname="moving.svg"
   inkscape:version="1.4.2 (ebf0e940, 2025-05-08)"
   xmlns:inkscape="http://www.inkscape.org/namespaces/inkscape"
   xmlns:sodipodi="http://sodipodi.sourceforge.net/DTD/sodipodi-0.dtd"
   xmlns="http://www.w3.org/2000/svg"
   xmlns:svg="http://www.w3.org/2000/svg">
  <defs
     id="defs1" />
  <sodipodi:namedview
     id="namedview1"
     pagecolor="#ffffff"
     bordercolor="#000000"
     borderopacity="0.25"
     inkscape:showpageshadow="2"
     inkscape:pageopacity="0.0"
     inkscape:pagecheckerboard="0"
     inkscape:deskcolor="#d1d1d1"
     inkscape:zoom="16.831672"
     inkscape:cx="7.4858873"
     inkscape:cy="11.822949"
     inkscape:window-width="976"
     inkscape:window-height="1027"
     inkscape:window-x="0"
     inkscape:window-y="25"
     inkscape:window-maximized="0"
     inkscape:current-layer="svg1" />
  <path
     d="M 529.50589,-67.923548 V -293.66471 l -79.00941,-75.24706 -37.62353,165.54352 -259.60234,-52.67293 15.04941,-75.24706 180.59293,37.62353 60.19765,-304.75058 -67.72235,26.33647 v 127.92 H 266.14119 V -620.9894 l 148.61294,-63.96 q 32.92058,-14.10883 48.44029,-18.34147 15.5197,-4.23265 28.68794,-4.23265 19.75235,0 36.68294,10.34647 16.93058,10.34647 27.27706,27.27706 l 37.62352,60.19764 q 24.4553,39.50471 66.31147,64.90059 41.85618,25.39588 95.4697,25.39588 v 75.24706 q -62.07882,0 -116.16264,-25.86618 -54.08382,-25.86617 -90.76676,-68.19264 l -22.57412,112.87058 79.00941,75.24706 v 282.176452 z m 18.81176,-658.411732 q -31.03941,0 -53.14323,-22.10383 -22.10383,-22.10382 -22.10383,-53.14323 0,-31.03941 22.10383,-53.14323 22.10382,-22.10382 53.14323,-22.10382 31.03941,0 53.14323,22.10382 22.10383,22.10382 22.10383,53.14323 0,31.03941 -22.10383,53.14323 -22.10382,22.10383 -53.14323,22.10383 z"
     id="path1"
     style="fill:#000000;stroke-width:0.940588" />
  <path
     id="rect3"
     style="fill:#000000;fill-opacity:1;stroke:none;stroke-width:63.8921;stroke-linejoin:round;stroke-opacity:1"
     d="M 75.46875,-960 C 33.65246,-960 0,-926.34754 0,-884.53125 v 809.0625 C 0,-33.65246 33.65246,0 75.46875,0 H 884.5313 C 926.3475,0 960,-33.65246 960,-75.46875 v -809.0625 C 960,-926.34754 926.3475,-960 884.5313,-960 Z M 87.5,-915 h 785 c 21.7072,0 39.1406,17.43338 39.1406,39.14062 V -84.14063 C 911.6406,-62.43338 894.2072,-45 872.5,-45 H 87.5 C 65.79276,-45 48.35937,-62.43338 48.35937,-84.14063 V -875.85938 C 48.35937,-897.56662 65.79276,-915 87.5,-915 Z" />
</svg>
