<?xml version="1.0" encoding="UTF-8" standalone="no"?>
<svg
   height="24px"
   viewBox="0 -960 960 960"
   width="24px"
   fill="#e8eaed"
   version="1.1"
   id="svg1"
   sodipodi:docname="tunnel.svg"
   inkscape:version="1.4 (e7c3feb1, 2024-10-09)"
   xmlns:inkscape="http://www.inkscape.org/namespaces/inkscape"
   xmlns:sodipodi="http://sodipodi.sourceforge.net/DTD/sodipodi-0.dtd"
   xmlns="http://www.w3.org/2000/svg"
   xmlns:svg="http://www.w3.org/2000/svg">
  <defs
     id="defs1" />
  <sodipodi:namedview
     id="namedview1"
     pagecolor="#ffffff"
     bordercolor="#000000"
     borderopacity="0.25"
     inkscape:showpageshadow="2"
     inkscape:pageopacity="0.0"
     inkscape:pagecheckerboard="0"
     inkscape:deskcolor="#d1d1d1"
     inkscape:zoom="8.6478753"
     inkscape:cx="-12.372981"
     inkscape:cy="30.007371"
     inkscape:window-width="1856"
     inkscape:window-height="786"
     inkscape:window-x="0"
     inkscape:window-y="25"
     inkscape:window-maximized="0"
     inkscape:current-layer="svg1" />
  <path
     d="m 80,-80 v -526 c 0,-56.66667 14.666667,-105.83333 44,-147.5 29.33333,-41.66667 70.66667,-73.16667 124,-94.5 36,-14 74.33333,-22.83333 115,-26.5 40.66667,-3.66667 79.66667,-5.5 117,-5.5 37.33333,0 76.33333,1.83333 117,5.5 40.66667,3.66667 79,12.5 115,26.5 53.33333,21.33333 94.66667,52.83333 124,94.5 29.33333,41.66667 44,90.83333 44,147.5 v 526 z m 80,-80 h 640 v -446 c 0,-40 -9.83333,-74.16667 -29.5,-102.5 -19.66667,-28.33333 -49.16667,-50.16667 -88.5,-65.5 -29.33333,-11.33333 -61.83333,-18.5 -97.5,-21.5 -35.66667,-3 -70.5,-4.5 -104.5,-4.5 -34,0 -68.83333,1.5 -104.5,4.5 -35.66667,3 -68.16667,10.16667 -97.5,21.5 -39.33333,15.33333 -68.83333,37.16667 -88.5,65.5 C 169.83333,-680.16667 160,-646 160,-606 Z m 0,0 h 640 z"
     id="path1"
     sodipodi:nodetypes="csscssscssccccsscssscsscccc"
     style="fill:#000000" />
</svg>
