<?xml version="1.0" encoding="UTF-8" standalone="no"?>
<svg
   height="24"
   viewBox="0 -960 6160 960"
   width="154"
   fill="#e8eaed"
   version="1.1"
   id="svg1"
   sodipodi:docname="worker-row.svg"
   inkscape:version="1.4.2 (ebf0e940, 2025-05-08)"
   xmlns:inkscape="http://www.inkscape.org/namespaces/inkscape"
   xmlns:sodipodi="http://sodipodi.sourceforge.net/DTD/sodipodi-0.dtd"
   xmlns="http://www.w3.org/2000/svg"
   xmlns:svg="http://www.w3.org/2000/svg">
  <defs
     id="defs1" />
  <sodipodi:namedview
     id="namedview1"
     pagecolor="#ffffff"
     bordercolor="#000000"
     borderopacity="0.25"
     inkscape:showpageshadow="2"
     inkscape:pageopacity="0.0"
     inkscape:pagecheckerboard="0"
     inkscape:deskcolor="#d1d1d1"
     inkscape:zoom="5.314983"
     inkscape:cx="89.652215"
     inkscape:cy="-42.70945"
     inkscape:window-width="1920"
     inkscape:window-height="1027"
     inkscape:window-x="0"
     inkscape:window-y="25"
     inkscape:window-maximized="1"
     inkscape:current-layer="worker_1"
     showguides="false" />
  <g
     inkscape:groupmode="layer"
     id="g10"
     inkscape:label="cost"
     style="display:inline">
    <g
       id="g24"
       inkscape:label="icon_power">
      <path
         id="path23"
         style="display:inline;fill:#e6e6e6;stroke-width:1.07088"
         d="m 1115.4688,-960 c -41.8163,0 -75.4688,33.6525 -75.4688,75.4687 v 809.062603 c 0,41.8162 33.6525,75.4686995 75.4688,75.4686995 h 809.0625 C 1966.3474,2.5e-6 2000,-33.652497 2000,-75.468697 V -884.5313 C 2000,-926.3475 1966.3474,-960 1924.5313,-960 Z"
         inkscape:label="icon_bg"
         sodipodi:nodetypes="sssssssss" />
      <path
         id="icon_power"
         style="fill:#000000;stroke-width:1.54005"
         d="m 1115.4688,-959.99998 c -41.8163,0 -75.4688,33.6525 -75.4688,75.46875 v 809.06251 c 0,41.8162 33.6525,75.4687 75.4688,75.4687 h 809.0625 c 41.8162,0 75.4687,-33.6525 75.4687,-75.4687 v -809.06251 c 0,-41.81625 -33.6525,-75.46875 -75.4687,-75.46875 z m 12.0312,45 h 785 c 21.7075,0 39.1406,17.43313 39.1406,39.14062 v 791.71874 c 0,21.7075 -17.4331,39.1406 -39.1406,39.1406 h -785 c -21.7075,0 -39.1406,-17.4331 -39.1406,-39.1406 v -791.71874 c 0,-21.70749 17.4331,-39.14062 39.1406,-39.14062 z m 47.1875,65.39062 c -12.0263,31.51278 -20.3013,65.22888 -23.5937,100.23438 l 159.6875,42.8125 c -1.3188,8.7469 -10.2963,30.6638 -10.9375,43.8281 h -138.9063 c 5.1875,20.52 12.0606,79.7457 20.4688,98.75 l 121.9531,-32.6562 12.4219,38.2031 -91.1719,52.6563 c 11.985,13.4418 44.5731,65.3793 58.3594,76.9531 l 68.9062,-68.8281 66.6406,51.0937 -43.125,74.6875 c 19.32,8.2656 39.4813,14.8788 60.3125,19.7656 1.525,5.4938 3.2,10.9532 5,16.3282 -19.035,15.3893 -37.1881,31.5987 -54.0625,48.9062 -6.8656,-3.3312 -14.5875,-5.2344 -22.7343,-5.2344 -28.81,0 -61.6407,7.5932 -61.6407,36.4063 0,2.6437 0.25,5.2725 0.625,7.8125 3.1125,-17.7325 28.0169,-15.4688 46.6407,-15.4688 4.7812,0 9.3081,0.8813 13.5156,2.5 -15.5594,18.6375 -29.5282,38.5994 -41.4063,60.3907 21.4025,-11.6175 42.6213,-24.2507 63.3594,-38.125 1.4812,4.05 2.2656,8.4075 2.2656,12.9687 0,18.6688 6.7806,40.7731 -11.0156,43.8281 2.5938,0.375 5.2663,0.625 7.9688,0.625 28.8143,0 31.875,-29.94 31.875,-58.75 0,-6.4225 -1.1625,-12.5231 -3.2813,-18.2031 15.4519,-11.4994 30.4669,-23.78 45,-36.9531 4.5875,8.7856 9.6138,17.0075 14.9219,24.375 l -67.1094,134.21866 c 74.3337,34.605 178.2563,35.0513 243.2031,0 l -64.9218,-129.92176 c 5.7312,-7.4075 11.1412,-15.7725 16.0937,-24.8438 13.2087,11.7306 26.8362,22.7481 40.7813,33.125 -2.1188,5.675 -3.2813,11.7869 -3.2813,18.2031 0,28.81 6.7337,63.3594 35.5469,63.3594 h 0.078 c 0.036,0 0.125,-0.01 0.1563,0 h 0.075 v 0.081 h 0.081 v 0.075 h 0.081 v 0.081 0.075 0.081 c -0.01,0.027 -0.069,0.2062 -0.081,0.2375 -0.2688,0.6062 -1.1294,1.5143 -1.3281,2.0312 v 0.075 0.081 0.081 0.075 h 0.081 l 0.081,0.081 h 0.075 0.081 c 0.8144,-0.042 3.1732,-0.9675 8.5938,-3.6719 -17.8094,-3.0656 -14.7719,-29.7769 -14.7719,-48.4469 0,-4.5625 0.7781,-8.9187 2.2656,-12.9687 20.7357,13.8693 41.9588,26.5075 63.3594,38.125 -11.8737,-21.7882 -25.7781,-41.7532 -41.3281,-60.3907 4.2,-1.6125 8.7525,-2.5 13.5156,-2.5 18.6194,0 48.6863,-5.1506 51.7969,12.5782 0.375,-2.5375 0.55,-5.0932 0.55,-7.7344 0,-28.8144 -37.9844,-33.5938 -66.7969,-33.5938 -8.1237,0 -15.8006,1.8438 -22.6562,5.1563 -15.4144,-15.8169 -31.9632,-30.6569 -49.2219,-44.8438 2.9812,-8.5012 5.6181,-17.2281 7.8906,-26.0156 12.1819,-3.6437 24.1538,-7.8938 35.7813,-12.7344 l -43.9063,-76.0156 66.6406,-51.0937 70.7032,70.7031 c 14.0843,-11.6381 46.9812,-63.7681 59.2187,-77.3438 l -93.8281,-54.1406 12.4219,-38.2031 125.5468,33.6719 c 8.6057,-19.3019 15.6594,-78.8938 20.9375,-99.7657 h -142.9687 l -10.9375,-43.8281 163.6719,-43.9062 c -3.3563,-34.6357 -11.6044,-67.9388 -23.5157,-99.14068 -40.8368,63.92748 -128.7506,113.83128 -238.3593,133.98438 19.5124,24.03 31.4843,54.7638 31.4843,88.2031 0,48.0432 -24.2375,90.3938 -61.0156,115.4688 -32.7569,-19.1069 -49.335,-46.3731 -53.3594,-69.375 l 20.7813,-5.8594 2.9687,-15.9375 c 24.1325,-17.4569 34.2707,-24.37 64.2969,-10.3125 l -9.5312,-37.8125 -65.2344,-0.2344 -4.375,-20.3125 -17.3438,-12.2656 -97.5,33.9844 21.875,51.7187 c -13.2368,30.3057 -20.9368,66.1131 -8.3593,92.1094 -41.8957,-23.9787 -70.2344,-69.3006 -70.2344,-121.25 0,-33.4387 11.9743,-64.0969 31.4844,-88.125 -109.5806,-20.144 -197.431,-70.0764 -238.2813,-133.98438 z"
         inkscape:label="icon_power" />
    </g>
    <g
       id="icon_heart"
       inkscape:label="icon_heart">
      <path
         id="path22"
         style="display:inline;fill:#e6e6e6;stroke-width:1.07088"
         d="m 3195.4688,-960 c -41.8163,0 -75.4688,33.6525 -75.4688,75.4687 v 809.062605 c 0,41.8162 33.6525,75.4687 75.4688,75.4687 h 809.0625 c 41.8161,0 75.4687,-33.6525 75.4687,-75.4687 V -884.5313 C 4080,-926.3475 4046.3474,-960 4004.5313,-960 Z"
         inkscape:label="icon_bg"
         sodipodi:nodetypes="sssssssss" />
      <path
         id="icon-heart-bg"
         style="fill:#ff00ff;stroke-width:0.899"
         d="m 3438.2031,-809.92188 c -56.3373,0 -103.4139,18.8827 -141.1719,56.6407 -37.7579,37.758 -56.6406,84.7564 -56.6406,141.0937 0,27.5693 4.6166,54.5668 13.9063,80.9375 9.2896,26.3707 25.6885,55.3319 49.0625,86.7969 23.374,31.465 54.819,66.9284 94.375,106.4844 39.556,39.5559 89.6236,86.6325 150.1562,141.1718 l 52.1094,46.7188 52.1094,-46.7188 c 60.5326,-54.5393 110.6002,-101.6159 150.1562,-141.1718 39.556,-39.556 71.001,-75.0194 94.375,-106.4844 23.374,-31.465 39.7729,-60.4262 49.0625,-86.7969 9.2897,-26.3707 13.9063,-53.3682 13.9063,-80.9375 0,-56.3373 -18.8827,-103.3357 -56.6407,-141.0937 -37.758,-37.758 -84.8345,-56.6407 -141.1718,-56.6407 -31.1654,0 -60.8157,6.5803 -88.9844,19.7657 -28.1687,13.1853 -52.4352,31.7297 -72.8125,55.7031 -20.3773,-23.9734 -44.6438,-42.5178 -72.8125,-55.7031 -28.1687,-13.1854 -57.819,-19.7657 -88.9844,-19.7657 z"
         inkscape:label="icon-heart-bg"
         sodipodi:nodetypes="sssssscccssssssscss" />
      <path
         id="icon-heart"
         style="display:inline;fill:#000000;stroke-width:0.899"
         d="m 3195.4687,-959.99998 c -41.8162,0 -75.4687,33.6525 -75.4687,75.4688 v 809.06246 c 0,41.8162 33.6525,75.4687 75.4687,75.4687 h 809.0625 c 41.8162,0 75.4688,-33.6525 75.4688,-75.4687 v -809.06246 c 0,-41.8163 -33.6526,-75.4688 -75.4688,-75.4688 z m 12.0313,45 h 785 c 21.7075,0 39.1406,17.4331 39.1406,39.1406 v 791.71876 c 0,21.7075 -17.4331,39.1406 -39.1406,39.1406 h -785 c -21.7075,0 -39.1406,-17.4331 -39.1406,-39.1406 v -791.71876 c 0,-21.7075 17.4331,-39.1406 39.1406,-39.1406 z m 230.7031,105.0781 c -56.3373,0 -103.4139,18.8827 -141.1719,56.6407 -37.7579,37.758 -56.6406,84.7564 -56.6406,141.0937 0,27.5693 4.6166,54.5668 13.9063,80.9375 9.2896,26.3707 25.6885,55.3319 49.0625,86.7969 23.374,31.465 54.819,66.9284 94.375,106.4844 39.556,39.5559 89.6236,86.6325 150.1562,141.1718 l 52.1094,46.7188 52.1094,-46.7188 c 60.5326,-54.5393 110.6002,-101.6159 150.1562,-141.1718 39.556,-39.556 71.001,-75.0194 94.375,-106.4844 23.374,-31.465 39.7729,-60.4262 49.0625,-86.7969 9.2897,-26.3707 13.9063,-53.3682 13.9063,-80.9375 0,-56.3373 -18.8827,-103.3357 -56.6407,-141.0937 -37.758,-37.758 -84.8345,-56.6407 -141.1718,-56.6407 -31.1654,0 -60.8157,6.5803 -88.9844,19.7657 -28.1687,13.1853 -52.4352,31.7297 -72.8125,55.7031 -20.3773,-23.9734 -44.6438,-42.5178 -72.8125,-55.7031 -28.1687,-13.1854 -57.819,-19.7657 -88.9844,-19.7657 z m 0,71.875 c 28.1687,0 54.2298,7.9458 78.2031,23.8282 23.9734,15.8823 40.4632,36.1304 49.4532,60.7031 h 68.2812 c 8.99,-24.5727 25.4798,-44.8208 49.4531,-60.7031 23.9734,-15.8824 50.0345,-23.8282 78.2032,-23.8282 35.96,0 65.9485,12.0423 89.9218,36.0157 23.9734,23.9733 35.9375,53.8837 35.9375,89.8437 0,20.9767 -4.1874,42.1612 -12.5781,63.4375 -8.3906,21.2763 -23.3459,45.5428 -44.9219,72.8125 -21.5759,27.2697 -50.9663,59.3129 -88.125,96.1719 -37.1586,36.859 -84.4952,81.0354 -142.0312,132.5781 -57.536,-51.5427 -104.8726,-95.7191 -142.0313,-132.5781 -37.1586,-36.859 -66.549,-68.9022 -88.125,-96.1719 -21.576,-27.2697 -36.5312,-51.5362 -44.9218,-72.8125 -8.3907,-21.2763 -12.5782,-42.4608 -12.5782,-63.4375 0,-35.96 11.9642,-65.8704 35.9375,-89.8437 23.9734,-23.9734 53.9619,-36.0157 89.9219,-36.0157 z"
         inkscape:label="icon-heart" />
    </g>
    <g
       id="icon_coin"
       inkscape:label="icon_coin"
       sodipodi:insensitive="true"
       style="display:inline">
      <path
         id="icon_bg"
         style="display:inline;fill:#e6e6e6;stroke-width:1.07088"
         d="M 5275.4688,-960 C 5233.6525,-960 5200,-926.3475 5200,-884.5313 V -75.4687 C 5200,-33.6525 5233.6525,0 5275.4688,0 h 809.0625 C 6126.3474,0 6160,-33.6525 6160,-75.4687 V -884.5313 C 6160,-926.3475 6126.3474,-960 6084.5313,-960 Z"
         inkscape:label="icon_coin_bg"
         sodipodi:nodetypes="sssssssss" />
      <circle
         style="fill:#ffcc00;stroke-width:80;stroke-linejoin:round"
         id="path10"
         cx="5680"
         cy="-480"
         inkscape:label="coin-bg"
         r="322.8078" />
      <path
         id="icon-coin"
         style="fill:#000000"
         inkscape:label="icon-coin"
         d="M 5275.4687,-960 C 5233.6525,-960 5200,-926.3475 5200,-884.5312 V -75.4687 C 5200,-33.6525 5233.6525,0 5275.4687,0 h 809.0625 C 6126.3475,0 6160,-33.6525 6160,-75.4687 V -884.5312 C 6160,-926.3475 6126.3475,-960 6084.5312,-960 Z m 12.0313,45 h 785 c 21.7072,0 39.1406,17.4334 39.1406,39.1406 v 791.7188 c 0,21.7072 -17.4334,39.1406 -39.1406,39.1406 h -785 c -21.7072,0 -39.1406,-17.4334 -39.1406,-39.1406 v -791.7188 c 0,-21.7072 17.4334,-39.1406 39.1406,-39.1406 z m 392.5,59.8438 c -206.7193,0 -375.1563,168.4369 -375.1563,375.1562 0,206.7193 168.437,375.1563 375.1563,375.1563 206.7193,0 375.1562,-168.437 375.1562,-375.1563 0,-206.7193 -168.4369,-375.1562 -375.1562,-375.1562 z m 0,80 c 163.484,0 295.1562,131.6722 295.1562,295.1562 0,163.4841 -131.6722,295.1563 -295.1562,295.1563 -163.4841,0 -295.1563,-131.6722 -295.1563,-295.1563 0,-163.484 131.6722,-295.1562 295.1563,-295.1562 z m -92.5,109.1406 v 63.6719 h 54.5312 v 244.6875 h -51.0937 v 63.6718 h 189.6094 v -63.6718 h -47.8907 v -308.3594 z" />
    </g>
  </g>
  <g
     inkscape:groupmode="layer"
     id="workers"
     inkscape:label="workers"
     style="display:inline">
    <g
       id="worker_1"
       inkscape:label="worker_1"
       style="display:inline">
      <path
         id="path21"
         style="display:inline;fill:#e6e6e6;stroke-width:1.07088"
         d="M 75.4688,-960 C 33.6525,-960 0,-926.3475 0,-884.5313 V -75.4687 C 0,-33.6525 33.6525,0 75.4688,0 H 884.5313 C 926.3474,0 960,-33.6525 960,-75.4687 V -884.5313 C 960,-926.3475 926.3474,-960 884.5313,-960 Z"
         inkscape:label="icon_bg"
         sodipodi:nodetypes="sssssssss" />
      <path
         id="worker"
         style="fill:#000000;stroke-width:1.07088"
         d="M 75.4688,-960 C 33.6525,-960 0,-926.3475 0,-884.5313 V -75.46875 C 0,-33.6525 33.6525,0 75.4688,0 H 884.5313 C 926.3474,0 960,-33.6525 960,-75.46875 V -884.5313 C 960,-926.3475 926.3474,-960 884.5313,-960 Z M 87.5,-915 h 785 c 21.7075,0 39.1406,17.4331 39.1406,39.1406 V -84.14062 C 911.6406,-62.43313 894.2075,-45 872.5,-45 H 87.5 C 65.7925,-45 48.3594,-62.43313 48.3594,-84.14062 V -875.8594 C 48.3594,-897.5669 65.7925,-915 87.5,-915 Z m 392.5,70.9375 c -7.8531,0 -15.3608,0.4916 -22.5,1.5625 -7.1392,1.0709 -13.8872,2.702 -20.3125,4.8437 v 57.8125 c 0,6.4253 -2.0109,11.6204 -5.9375,15.5469 -3.9266,3.9266 -9.0435,5.8594 -15.4687,5.8594 -6.4253,0 -11.6204,-1.9328 -15.5469,-5.8594 -3.9266,-3.9265 -5.9375,-9.1216 -5.9375,-15.5469 v -40.7031 c -25.7012,14.9924 -46.4031,35.3145 -62.1094,61.0156 -15.7063,25.7012 -23.5156,54.6705 -23.5156,86.7969 h -10.7031 c -6.4253,0 -11.6203,1.9328 -15.5469,5.8594 -3.9266,3.9266 -5.8594,9.1216 -5.8594,15.5469 0,6.4253 1.9328,11.6203 5.8594,15.5468 3.9265,3.9266 9.1216,5.8594 15.5469,5.8594 h 10.7031 c 0,47.1188 16.7582,87.4613 50.3125,121.0156 33.5543,33.5544 73.8968,50.3125 121.0156,50.3125 47.1188,0 87.4613,-16.7581 121.0156,-50.3125 33.5543,-33.5543 50.3125,-73.8968 50.3125,-121.0156 h 10.7032 c 6.4252,0 11.6203,-1.9328 15.5468,-5.8594 3.9266,-3.9265 5.8594,-9.1215 5.8594,-15.5468 0,-6.4253 -1.9328,-11.6203 -5.8594,-15.5469 -3.9265,-3.9266 -9.1216,-5.8594 -15.5468,-5.8594 h -10.7032 c 0,-32.1264 -7.8093,-61.0957 -23.5156,-86.7969 -15.7063,-25.7011 -36.4082,-46.0232 -62.1094,-61.0156 v 40.7031 c 0,6.4253 -2.0109,11.6204 -5.9375,15.5469 -3.9265,3.9266 -9.1215,5.8594 -15.5468,5.8594 -6.4253,0 -11.5422,-1.9328 -15.4688,-5.8594 -3.9266,-3.9265 -5.9375,-9.1216 -5.9375,-15.5469 v -57.8125 c -6.4253,-2.1417 -13.1733,-3.7728 -20.3125,-4.8437 -7.1392,-1.0709 -14.6469,-1.5625 -22.5,-1.5625 z m -85.7031,214.1406 h 171.4062 c 0,23.5594 -8.4572,43.6916 -25.2343,60.4688 -16.7772,16.7771 -36.9094,25.2343 -60.4688,25.2343 -23.5594,0 -43.6916,-8.4572 -60.4687,-25.2343 -16.7772,-16.7772 -25.2344,-36.9094 -25.2344,-60.4688 z M 480,-415.7813 c -54.972,0 -105.3246,6.4463 -151.0156,19.2969 -45.691,12.8506 -86.715,28.5474 -123.125,47.1094 -21.4177,10.7088 -38.1759,26.4056 -50.3125,47.1094 -12.1367,20.7037 -18.2031,42.8468 -18.2031,66.4062 v 119.9219 h 685.3125 v -119.9219 c 0,-23.5594 -6.0665,-45.7025 -18.2032,-66.4062 -12.1366,-20.7038 -28.8948,-36.4006 -50.3125,-47.1094 -36.41,-18.562 -77.434,-34.2588 -123.125,-47.1094 C 585.3246,-409.335 534.972,-415.7813 480,-415.7813 Z m 0,85.7032 c 50.6884,0 96.2259,6.4463 136.5625,19.2968 40.3366,12.8506 73.3613,25.6651 99.0625,38.5157 6.4253,3.5696 11.5422,8.5747 15.4688,15 3.9265,6.4253 5.9375,13.5531 5.9375,21.4062 v 34.2969 H 222.9688 v -34.2969 c 0,-7.8531 2.0109,-14.9809 5.9375,-21.4062 3.9265,-6.4253 9.0434,-11.4304 15.4687,-15 25.7012,-12.8506 58.7259,-25.6651 99.0625,-38.5157 40.3366,-12.8505 85.8741,-19.2968 136.5625,-19.2968 z"
         inkscape:label="worker" />
    </g>
    <g
       id="worker_2"
       inkscape:label="worker_2"
       transform="translate(1040)"
       style="display:inline">
      <path
         id="path11"
         style="display:inline;fill:#e6e6e6;stroke-width:1.07088"
         d="M 75.4688,-960 C 33.6525,-960 0,-926.3475 0,-884.5313 V -75.4687 C 0,-33.6525 33.6525,0 75.4688,0 H 884.5313 C 926.3474,0 960,-33.6525 960,-75.4687 V -884.5313 C 960,-926.3475 926.3474,-960 884.5313,-960 Z"
         inkscape:label="icon_bg"
         sodipodi:nodetypes="sssssssss" />
      <path
         id="path12"
         style="fill:#000000;stroke-width:1.07088"
         d="M 75.4688,-960 C 33.6525,-960 0,-926.3475 0,-884.5313 V -75.46875 C 0,-33.6525 33.6525,0 75.4688,0 H 884.5313 C 926.3474,0 960,-33.6525 960,-75.46875 V -884.5313 C 960,-926.3475 926.3474,-960 884.5313,-960 Z M 87.5,-915 h 785 c 21.7075,0 39.1406,17.4331 39.1406,39.1406 V -84.14062 C 911.6406,-62.43313 894.2075,-45 872.5,-45 H 87.5 C 65.7925,-45 48.3594,-62.43313 48.3594,-84.14062 V -875.8594 C 48.3594,-897.5669 65.7925,-915 87.5,-915 Z m 392.5,70.9375 c -7.8531,0 -15.3608,0.4916 -22.5,1.5625 -7.1392,1.0709 -13.8872,2.702 -20.3125,4.8437 v 57.8125 c 0,6.4253 -2.0109,11.6204 -5.9375,15.5469 -3.9266,3.9266 -9.0435,5.8594 -15.4687,5.8594 -6.4253,0 -11.6204,-1.9328 -15.5469,-5.8594 -3.9266,-3.9265 -5.9375,-9.1216 -5.9375,-15.5469 v -40.7031 c -25.7012,14.9924 -46.4031,35.3145 -62.1094,61.0156 -15.7063,25.7012 -23.5156,54.6705 -23.5156,86.7969 h -10.7031 c -6.4253,0 -11.6203,1.9328 -15.5469,5.8594 -3.9266,3.9266 -5.8594,9.1216 -5.8594,15.5469 0,6.4253 1.9328,11.6203 5.8594,15.5468 3.9265,3.9266 9.1216,5.8594 15.5469,5.8594 h 10.7031 c 0,47.1188 16.7582,87.4613 50.3125,121.0156 33.5543,33.5544 73.8968,50.3125 121.0156,50.3125 47.1188,0 87.4613,-16.7581 121.0156,-50.3125 33.5543,-33.5543 50.3125,-73.8968 50.3125,-121.0156 h 10.7032 c 6.4252,0 11.6203,-1.9328 15.5468,-5.8594 3.9266,-3.9265 5.8594,-9.1215 5.8594,-15.5468 0,-6.4253 -1.9328,-11.6203 -5.8594,-15.5469 -3.9265,-3.9266 -9.1216,-5.8594 -15.5468,-5.8594 h -10.7032 c 0,-32.1264 -7.8093,-61.0957 -23.5156,-86.7969 -15.7063,-25.7011 -36.4082,-46.0232 -62.1094,-61.0156 v 40.7031 c 0,6.4253 -2.0109,11.6204 -5.9375,15.5469 -3.9265,3.9266 -9.1215,5.8594 -15.5468,5.8594 -6.4253,0 -11.5422,-1.9328 -15.4688,-5.8594 -3.9266,-3.9265 -5.9375,-9.1216 -5.9375,-15.5469 v -57.8125 c -6.4253,-2.1417 -13.1733,-3.7728 -20.3125,-4.8437 -7.1392,-1.0709 -14.6469,-1.5625 -22.5,-1.5625 z m -85.7031,214.1406 h 171.4062 c 0,23.5594 -8.4572,43.6916 -25.2343,60.4688 -16.7772,16.7771 -36.9094,25.2343 -60.4688,25.2343 -23.5594,0 -43.6916,-8.4572 -60.4687,-25.2343 -16.7772,-16.7772 -25.2344,-36.9094 -25.2344,-60.4688 z M 480,-415.7813 c -54.972,0 -105.3246,6.4463 -151.0156,19.2969 -45.691,12.8506 -86.715,28.5474 -123.125,47.1094 -21.4177,10.7088 -38.1759,26.4056 -50.3125,47.1094 -12.1367,20.7037 -18.2031,42.8468 -18.2031,66.4062 v 119.9219 h 685.3125 v -119.9219 c 0,-23.5594 -6.0665,-45.7025 -18.2032,-66.4062 -12.1366,-20.7038 -28.8948,-36.4006 -50.3125,-47.1094 -36.41,-18.562 -77.434,-34.2588 -123.125,-47.1094 C 585.3246,-409.335 534.972,-415.7813 480,-415.7813 Z m 0,85.7032 c 50.6884,0 96.2259,6.4463 136.5625,19.2968 40.3366,12.8506 73.3613,25.6651 99.0625,38.5157 6.4253,3.5696 11.5422,8.5747 15.4688,15 3.9265,6.4253 5.9375,13.5531 5.9375,21.4062 v 34.2969 H 222.9688 v -34.2969 c 0,-7.8531 2.0109,-14.9809 5.9375,-21.4062 3.9265,-6.4253 9.0434,-11.4304 15.4687,-15 25.7012,-12.8506 58.7259,-25.6651 99.0625,-38.5157 40.3366,-12.8505 85.8741,-19.2968 136.5625,-19.2968 z"
         inkscape:label="worker" />
    </g>
    <g
       id="worker_3"
       inkscape:label="worker_3"
       transform="translate(2080)">
      <path
         id="path13"
         style="display:inline;fill:#e6e6e6;stroke-width:1.07088"
         d="M 75.4688,-960 C 33.6525,-960 0,-926.3475 0,-884.5313 V -75.4687 C 0,-33.6525 33.6525,0 75.4688,0 H 884.5313 C 926.3474,0 960,-33.6525 960,-75.4687 V -884.5313 C 960,-926.3475 926.3474,-960 884.5313,-960 Z"
         inkscape:label="icon_bg"
         sodipodi:nodetypes="sssssssss" />
      <path
         id="path14"
         style="fill:#000000;stroke-width:1.07088"
         d="M 75.4688,-960 C 33.6525,-960 0,-926.3475 0,-884.5313 V -75.46875 C 0,-33.6525 33.6525,0 75.4688,0 H 884.5313 C 926.3474,0 960,-33.6525 960,-75.46875 V -884.5313 C 960,-926.3475 926.3474,-960 884.5313,-960 Z M 87.5,-915 h 785 c 21.7075,0 39.1406,17.4331 39.1406,39.1406 V -84.14062 C 911.6406,-62.43313 894.2075,-45 872.5,-45 H 87.5 C 65.7925,-45 48.3594,-62.43313 48.3594,-84.14062 V -875.8594 C 48.3594,-897.5669 65.7925,-915 87.5,-915 Z m 392.5,70.9375 c -7.8531,0 -15.3608,0.4916 -22.5,1.5625 -7.1392,1.0709 -13.8872,2.702 -20.3125,4.8437 v 57.8125 c 0,6.4253 -2.0109,11.6204 -5.9375,15.5469 -3.9266,3.9266 -9.0435,5.8594 -15.4687,5.8594 -6.4253,0 -11.6204,-1.9328 -15.5469,-5.8594 -3.9266,-3.9265 -5.9375,-9.1216 -5.9375,-15.5469 v -40.7031 c -25.7012,14.9924 -46.4031,35.3145 -62.1094,61.0156 -15.7063,25.7012 -23.5156,54.6705 -23.5156,86.7969 h -10.7031 c -6.4253,0 -11.6203,1.9328 -15.5469,5.8594 -3.9266,3.9266 -5.8594,9.1216 -5.8594,15.5469 0,6.4253 1.9328,11.6203 5.8594,15.5468 3.9265,3.9266 9.1216,5.8594 15.5469,5.8594 h 10.7031 c 0,47.1188 16.7582,87.4613 50.3125,121.0156 33.5543,33.5544 73.8968,50.3125 121.0156,50.3125 47.1188,0 87.4613,-16.7581 121.0156,-50.3125 33.5543,-33.5543 50.3125,-73.8968 50.3125,-121.0156 h 10.7032 c 6.4252,0 11.6203,-1.9328 15.5468,-5.8594 3.9266,-3.9265 5.8594,-9.1215 5.8594,-15.5468 0,-6.4253 -1.9328,-11.6203 -5.8594,-15.5469 -3.9265,-3.9266 -9.1216,-5.8594 -15.5468,-5.8594 h -10.7032 c 0,-32.1264 -7.8093,-61.0957 -23.5156,-86.7969 -15.7063,-25.7011 -36.4082,-46.0232 -62.1094,-61.0156 v 40.7031 c 0,6.4253 -2.0109,11.6204 -5.9375,15.5469 -3.9265,3.9266 -9.1215,5.8594 -15.5468,5.8594 -6.4253,0 -11.5422,-1.9328 -15.4688,-5.8594 -3.9266,-3.9265 -5.9375,-9.1216 -5.9375,-15.5469 v -57.8125 c -6.4253,-2.1417 -13.1733,-3.7728 -20.3125,-4.8437 -7.1392,-1.0709 -14.6469,-1.5625 -22.5,-1.5625 z m -85.7031,214.1406 h 171.4062 c 0,23.5594 -8.4572,43.6916 -25.2343,60.4688 -16.7772,16.7771 -36.9094,25.2343 -60.4688,25.2343 -23.5594,0 -43.6916,-8.4572 -60.4687,-25.2343 -16.7772,-16.7772 -25.2344,-36.9094 -25.2344,-60.4688 z M 480,-415.7813 c -54.972,0 -105.3246,6.4463 -151.0156,19.2969 -45.691,12.8506 -86.715,28.5474 -123.125,47.1094 -21.4177,10.7088 -38.1759,26.4056 -50.3125,47.1094 -12.1367,20.7037 -18.2031,42.8468 -18.2031,66.4062 v 119.9219 h 685.3125 v -119.9219 c 0,-23.5594 -6.0665,-45.7025 -18.2032,-66.4062 -12.1366,-20.7038 -28.8948,-36.4006 -50.3125,-47.1094 -36.41,-18.562 -77.434,-34.2588 -123.125,-47.1094 C 585.3246,-409.335 534.972,-415.7813 480,-415.7813 Z m 0,85.7032 c 50.6884,0 96.2259,6.4463 136.5625,19.2968 40.3366,12.8506 73.3613,25.6651 99.0625,38.5157 6.4253,3.5696 11.5422,8.5747 15.4688,15 3.9265,6.4253 5.9375,13.5531 5.9375,21.4062 v 34.2969 H 222.9688 v -34.2969 c 0,-7.8531 2.0109,-14.9809 5.9375,-21.4062 3.9265,-6.4253 9.0434,-11.4304 15.4687,-15 25.7012,-12.8506 58.7259,-25.6651 99.0625,-38.5157 40.3366,-12.8505 85.8741,-19.2968 136.5625,-19.2968 z"
         inkscape:label="worker" />
    </g>
    <g
       id="worker_4"
       inkscape:label="worker_4"
       transform="translate(3120)">
      <path
         id="path15"
         style="display:inline;fill:#e6e6e6;stroke-width:1.07088"
         d="M 75.4688,-960 C 33.6525,-960 0,-926.3475 0,-884.5313 V -75.4687 C 0,-33.6525 33.6525,0 75.4688,0 H 884.5313 C 926.3474,0 960,-33.6525 960,-75.4687 V -884.5313 C 960,-926.3475 926.3474,-960 884.5313,-960 Z"
         inkscape:label="icon_bg"
         sodipodi:nodetypes="sssssssss" />
      <path
         id="path16"
         style="fill:#000000;stroke-width:1.07088"
         d="M 75.4688,-960 C 33.6525,-960 0,-926.3475 0,-884.5313 V -75.46875 C 0,-33.6525 33.6525,0 75.4688,0 H 884.5313 C 926.3474,0 960,-33.6525 960,-75.46875 V -884.5313 C 960,-926.3475 926.3474,-960 884.5313,-960 Z M 87.5,-915 h 785 c 21.7075,0 39.1406,17.4331 39.1406,39.1406 V -84.14062 C 911.6406,-62.43313 894.2075,-45 872.5,-45 H 87.5 C 65.7925,-45 48.3594,-62.43313 48.3594,-84.14062 V -875.8594 C 48.3594,-897.5669 65.7925,-915 87.5,-915 Z m 392.5,70.9375 c -7.8531,0 -15.3608,0.4916 -22.5,1.5625 -7.1392,1.0709 -13.8872,2.702 -20.3125,4.8437 v 57.8125 c 0,6.4253 -2.0109,11.6204 -5.9375,15.5469 -3.9266,3.9266 -9.0435,5.8594 -15.4687,5.8594 -6.4253,0 -11.6204,-1.9328 -15.5469,-5.8594 -3.9266,-3.9265 -5.9375,-9.1216 -5.9375,-15.5469 v -40.7031 c -25.7012,14.9924 -46.4031,35.3145 -62.1094,61.0156 -15.7063,25.7012 -23.5156,54.6705 -23.5156,86.7969 h -10.7031 c -6.4253,0 -11.6203,1.9328 -15.5469,5.8594 -3.9266,3.9266 -5.8594,9.1216 -5.8594,15.5469 0,6.4253 1.9328,11.6203 5.8594,15.5468 3.9265,3.9266 9.1216,5.8594 15.5469,5.8594 h 10.7031 c 0,47.1188 16.7582,87.4613 50.3125,121.0156 33.5543,33.5544 73.8968,50.3125 121.0156,50.3125 47.1188,0 87.4613,-16.7581 121.0156,-50.3125 33.5543,-33.5543 50.3125,-73.8968 50.3125,-121.0156 h 10.7032 c 6.4252,0 11.6203,-1.9328 15.5468,-5.8594 3.9266,-3.9265 5.8594,-9.1215 5.8594,-15.5468 0,-6.4253 -1.9328,-11.6203 -5.8594,-15.5469 -3.9265,-3.9266 -9.1216,-5.8594 -15.5468,-5.8594 h -10.7032 c 0,-32.1264 -7.8093,-61.0957 -23.5156,-86.7969 -15.7063,-25.7011 -36.4082,-46.0232 -62.1094,-61.0156 v 40.7031 c 0,6.4253 -2.0109,11.6204 -5.9375,15.5469 -3.9265,3.9266 -9.1215,5.8594 -15.5468,5.8594 -6.4253,0 -11.5422,-1.9328 -15.4688,-5.8594 -3.9266,-3.9265 -5.9375,-9.1216 -5.9375,-15.5469 v -57.8125 c -6.4253,-2.1417 -13.1733,-3.7728 -20.3125,-4.8437 -7.1392,-1.0709 -14.6469,-1.5625 -22.5,-1.5625 z m -85.7031,214.1406 h 171.4062 c 0,23.5594 -8.4572,43.6916 -25.2343,60.4688 -16.7772,16.7771 -36.9094,25.2343 -60.4688,25.2343 -23.5594,0 -43.6916,-8.4572 -60.4687,-25.2343 -16.7772,-16.7772 -25.2344,-36.9094 -25.2344,-60.4688 z M 480,-415.7813 c -54.972,0 -105.3246,6.4463 -151.0156,19.2969 -45.691,12.8506 -86.715,28.5474 -123.125,47.1094 -21.4177,10.7088 -38.1759,26.4056 -50.3125,47.1094 -12.1367,20.7037 -18.2031,42.8468 -18.2031,66.4062 v 119.9219 h 685.3125 v -119.9219 c 0,-23.5594 -6.0665,-45.7025 -18.2032,-66.4062 -12.1366,-20.7038 -28.8948,-36.4006 -50.3125,-47.1094 -36.41,-18.562 -77.434,-34.2588 -123.125,-47.1094 C 585.3246,-409.335 534.972,-415.7813 480,-415.7813 Z m 0,85.7032 c 50.6884,0 96.2259,6.4463 136.5625,19.2968 40.3366,12.8506 73.3613,25.6651 99.0625,38.5157 6.4253,3.5696 11.5422,8.5747 15.4688,15 3.9265,6.4253 5.9375,13.5531 5.9375,21.4062 v 34.2969 H 222.9688 v -34.2969 c 0,-7.8531 2.0109,-14.9809 5.9375,-21.4062 3.9265,-6.4253 9.0434,-11.4304 15.4687,-15 25.7012,-12.8506 58.7259,-25.6651 99.0625,-38.5157 40.3366,-12.8505 85.8741,-19.2968 136.5625,-19.2968 z"
         inkscape:label="worker" />
    </g>
    <g
       id="worker_5"
       inkscape:label="worker_5"
       transform="translate(4160)">
      <path
         id="path17"
         style="display:inline;fill:#e6e6e6;stroke-width:1.07088"
         d="M 75.4688,-960 C 33.6525,-960 0,-926.3475 0,-884.5313 V -75.4687 C 0,-33.6525 33.6525,0 75.4688,0 H 884.5313 C 926.3474,0 960,-33.6525 960,-75.4687 V -884.5313 C 960,-926.3475 926.3474,-960 884.5313,-960 Z"
         inkscape:label="icon_bg"
         sodipodi:nodetypes="sssssssss" />
      <path
         id="path18"
         style="fill:#000000;stroke-width:1.07088"
         d="M 75.4688,-960 C 33.6525,-960 0,-926.3475 0,-884.5313 V -75.46875 C 0,-33.6525 33.6525,0 75.4688,0 H 884.5313 C 926.3474,0 960,-33.6525 960,-75.46875 V -884.5313 C 960,-926.3475 926.3474,-960 884.5313,-960 Z M 87.5,-915 h 785 c 21.7075,0 39.1406,17.4331 39.1406,39.1406 V -84.14062 C 911.6406,-62.43313 894.2075,-45 872.5,-45 H 87.5 C 65.7925,-45 48.3594,-62.43313 48.3594,-84.14062 V -875.8594 C 48.3594,-897.5669 65.7925,-915 87.5,-915 Z m 392.5,70.9375 c -7.8531,0 -15.3608,0.4916 -22.5,1.5625 -7.1392,1.0709 -13.8872,2.702 -20.3125,4.8437 v 57.8125 c 0,6.4253 -2.0109,11.6204 -5.9375,15.5469 -3.9266,3.9266 -9.0435,5.8594 -15.4687,5.8594 -6.4253,0 -11.6204,-1.9328 -15.5469,-5.8594 -3.9266,-3.9265 -5.9375,-9.1216 -5.9375,-15.5469 v -40.7031 c -25.7012,14.9924 -46.4031,35.3145 -62.1094,61.0156 -15.7063,25.7012 -23.5156,54.6705 -23.5156,86.7969 h -10.7031 c -6.4253,0 -11.6203,1.9328 -15.5469,5.8594 -3.9266,3.9266 -5.8594,9.1216 -5.8594,15.5469 0,6.4253 1.9328,11.6203 5.8594,15.5468 3.9265,3.9266 9.1216,5.8594 15.5469,5.8594 h 10.7031 c 0,47.1188 16.7582,87.4613 50.3125,121.0156 33.5543,33.5544 73.8968,50.3125 121.0156,50.3125 47.1188,0 87.4613,-16.7581 121.0156,-50.3125 33.5543,-33.5543 50.3125,-73.8968 50.3125,-121.0156 h 10.7032 c 6.4252,0 11.6203,-1.9328 15.5468,-5.8594 3.9266,-3.9265 5.8594,-9.1215 5.8594,-15.5468 0,-6.4253 -1.9328,-11.6203 -5.8594,-15.5469 -3.9265,-3.9266 -9.1216,-5.8594 -15.5468,-5.8594 h -10.7032 c 0,-32.1264 -7.8093,-61.0957 -23.5156,-86.7969 -15.7063,-25.7011 -36.4082,-46.0232 -62.1094,-61.0156 v 40.7031 c 0,6.4253 -2.0109,11.6204 -5.9375,15.5469 -3.9265,3.9266 -9.1215,5.8594 -15.5468,5.8594 -6.4253,0 -11.5422,-1.9328 -15.4688,-5.8594 -3.9266,-3.9265 -5.9375,-9.1216 -5.9375,-15.5469 v -57.8125 c -6.4253,-2.1417 -13.1733,-3.7728 -20.3125,-4.8437 -7.1392,-1.0709 -14.6469,-1.5625 -22.5,-1.5625 z m -85.7031,214.1406 h 171.4062 c 0,23.5594 -8.4572,43.6916 -25.2343,60.4688 -16.7772,16.7771 -36.9094,25.2343 -60.4688,25.2343 -23.5594,0 -43.6916,-8.4572 -60.4687,-25.2343 -16.7772,-16.7772 -25.2344,-36.9094 -25.2344,-60.4688 z M 480,-415.7813 c -54.972,0 -105.3246,6.4463 -151.0156,19.2969 -45.691,12.8506 -86.715,28.5474 -123.125,47.1094 -21.4177,10.7088 -38.1759,26.4056 -50.3125,47.1094 -12.1367,20.7037 -18.2031,42.8468 -18.2031,66.4062 v 119.9219 h 685.3125 v -119.9219 c 0,-23.5594 -6.0665,-45.7025 -18.2032,-66.4062 -12.1366,-20.7038 -28.8948,-36.4006 -50.3125,-47.1094 -36.41,-18.562 -77.434,-34.2588 -123.125,-47.1094 C 585.3246,-409.335 534.972,-415.7813 480,-415.7813 Z m 0,85.7032 c 50.6884,0 96.2259,6.4463 136.5625,19.2968 40.3366,12.8506 73.3613,25.6651 99.0625,38.5157 6.4253,3.5696 11.5422,8.5747 15.4688,15 3.9265,6.4253 5.9375,13.5531 5.9375,21.4062 v 34.2969 H 222.9688 v -34.2969 c 0,-7.8531 2.0109,-14.9809 5.9375,-21.4062 3.9265,-6.4253 9.0434,-11.4304 15.4687,-15 25.7012,-12.8506 58.7259,-25.6651 99.0625,-38.5157 40.3366,-12.8505 85.8741,-19.2968 136.5625,-19.2968 z"
         inkscape:label="worker" />
    </g>
    <g
       id="worker_6"
       inkscape:label="worker_6"
       transform="translate(5200)">
      <path
         id="path19"
         style="display:inline;fill:#e6e6e6;stroke-width:1.07088"
         d="M 75.4688,-960 C 33.6525,-960 0,-926.3475 0,-884.5313 V -75.4687 C 0,-33.6525 33.6525,0 75.4688,0 H 884.5313 C 926.3474,0 960,-33.6525 960,-75.4687 V -884.5313 C 960,-926.3475 926.3474,-960 884.5313,-960 Z"
         inkscape:label="icon_bg"
         sodipodi:nodetypes="sssssssss" />
      <path
         id="path20"
         style="fill:#000000;stroke-width:1.07088"
         d="M 75.4688,-960 C 33.6525,-960 0,-926.3475 0,-884.5313 V -75.46875 C 0,-33.6525 33.6525,0 75.4688,0 H 884.5313 C 926.3474,0 960,-33.6525 960,-75.46875 V -884.5313 C 960,-926.3475 926.3474,-960 884.5313,-960 Z M 87.5,-915 h 785 c 21.7075,0 39.1406,17.4331 39.1406,39.1406 V -84.14062 C 911.6406,-62.43313 894.2075,-45 872.5,-45 H 87.5 C 65.7925,-45 48.3594,-62.43313 48.3594,-84.14062 V -875.8594 C 48.3594,-897.5669 65.7925,-915 87.5,-915 Z m 392.5,70.9375 c -7.8531,0 -15.3608,0.4916 -22.5,1.5625 -7.1392,1.0709 -13.8872,2.702 -20.3125,4.8437 v 57.8125 c 0,6.4253 -2.0109,11.6204 -5.9375,15.5469 -3.9266,3.9266 -9.0435,5.8594 -15.4687,5.8594 -6.4253,0 -11.6204,-1.9328 -15.5469,-5.8594 -3.9266,-3.9265 -5.9375,-9.1216 -5.9375,-15.5469 v -40.7031 c -25.7012,14.9924 -46.4031,35.3145 -62.1094,61.0156 -15.7063,25.7012 -23.5156,54.6705 -23.5156,86.7969 h -10.7031 c -6.4253,0 -11.6203,1.9328 -15.5469,5.8594 -3.9266,3.9266 -5.8594,9.1216 -5.8594,15.5469 0,6.4253 1.9328,11.6203 5.8594,15.5468 3.9265,3.9266 9.1216,5.8594 15.5469,5.8594 h 10.7031 c 0,47.1188 16.7582,87.4613 50.3125,121.0156 33.5543,33.5544 73.8968,50.3125 121.0156,50.3125 47.1188,0 87.4613,-16.7581 121.0156,-50.3125 33.5543,-33.5543 50.3125,-73.8968 50.3125,-121.0156 h 10.7032 c 6.4252,0 11.6203,-1.9328 15.5468,-5.8594 3.9266,-3.9265 5.8594,-9.1215 5.8594,-15.5468 0,-6.4253 -1.9328,-11.6203 -5.8594,-15.5469 -3.9265,-3.9266 -9.1216,-5.8594 -15.5468,-5.8594 h -10.7032 c 0,-32.1264 -7.8093,-61.0957 -23.5156,-86.7969 -15.7063,-25.7011 -36.4082,-46.0232 -62.1094,-61.0156 v 40.7031 c 0,6.4253 -2.0109,11.6204 -5.9375,15.5469 -3.9265,3.9266 -9.1215,5.8594 -15.5468,5.8594 -6.4253,0 -11.5422,-1.9328 -15.4688,-5.8594 -3.9266,-3.9265 -5.9375,-9.1216 -5.9375,-15.5469 v -57.8125 c -6.4253,-2.1417 -13.1733,-3.7728 -20.3125,-4.8437 -7.1392,-1.0709 -14.6469,-1.5625 -22.5,-1.5625 z m -85.7031,214.1406 h 171.4062 c 0,23.5594 -8.4572,43.6916 -25.2343,60.4688 -16.7772,16.7771 -36.9094,25.2343 -60.4688,25.2343 -23.5594,0 -43.6916,-8.4572 -60.4687,-25.2343 -16.7772,-16.7772 -25.2344,-36.9094 -25.2344,-60.4688 z M 480,-415.7813 c -54.972,0 -105.3246,6.4463 -151.0156,19.2969 -45.691,12.8506 -86.715,28.5474 -123.125,47.1094 -21.4177,10.7088 -38.1759,26.4056 -50.3125,47.1094 -12.1367,20.7037 -18.2031,42.8468 -18.2031,66.4062 v 119.9219 h 685.3125 v -119.9219 c 0,-23.5594 -6.0665,-45.7025 -18.2032,-66.4062 -12.1366,-20.7038 -28.8948,-36.4006 -50.3125,-47.1094 -36.41,-18.562 -77.434,-34.2588 -123.125,-47.1094 C 585.3246,-409.335 534.972,-415.7813 480,-415.7813 Z m 0,85.7032 c 50.6884,0 96.2259,6.4463 136.5625,19.2968 40.3366,12.8506 73.3613,25.6651 99.0625,38.5157 6.4253,3.5696 11.5422,8.5747 15.4688,15 3.9265,6.4253 5.9375,13.5531 5.9375,21.4062 v 34.2969 H 222.9688 v -34.2969 c 0,-7.8531 2.0109,-14.9809 5.9375,-21.4062 3.9265,-6.4253 9.0434,-11.4304 15.4687,-15 25.7012,-12.8506 58.7259,-25.6651 99.0625,-38.5157 40.3366,-12.8505 85.8741,-19.2968 136.5625,-19.2968 z"
         inkscape:label="worker" />
    </g>
  </g>
</svg>
